<?xml version="1.0" encoding="utf-8"?>
<!-- Generator: Adobe Illustrator 28.2.0, SVG Export Plug-In . SVG Version: 6.00 Build 0)  -->
<svg version="1.1" id="Ebene_1" xmlns="http://www.w3.org/2000/svg" xmlns:xlink="http://www.w3.org/1999/xlink" x="0px" y="0px"
	 viewBox="0 0 524.4 340.2" style="enable-background:new 0 0 524.4 340.2;" xml:space="preserve">
<style type="text/css">
	.st0{fill:#C50E1F;}
	.st1{fill:#FFFFFF;}
	.st2{fill:#CCFF00;}
	.st3{fill:#7E898F;}
	.st4{fill:#00376C;}
</style>
<g>
	<g id="M_bol_48">
		<path d="M36.4,217v-30.3l-4-0.7v-3.9h8.1c0.9,0,2.4,0,4.6,0c1.7,0,2.9,0,3.7,0c3.7,0,6.6,0.3,8.8,1c2.1,0.7,3.7,1.6,4.6,2.9
			c0.9,1.3,1.3,2.8,1.3,4.7c0,1.7-0.4,3.2-1.1,4.5c-0.7,1.3-1.7,2.4-3,3.2c-1.3,0.8-2.7,1.4-4.3,1.6c2.2,0,4.2,0.4,5.8,1.1
			c1.7,0.7,3,1.8,3.9,3.1c0.9,1.4,1.4,3,1.4,4.9c0,8-5.6,12-16.8,12c-1.2,0-2.7,0-4.4,0s-3.2,0-4.3,0h-8.3v-3.6L36.4,217z
			 M49.1,217.8c2.7,0,4.6-0.7,5.8-2s1.8-3.3,1.8-5.8c0-1.7-0.3-3.1-0.8-4.2c-0.5-1-1.3-1.8-2.3-2.3c-1.1-0.5-2.4-0.7-4.1-0.7
			c-2.1,0-3.6,0-4.6,0v14.5C45.5,217.6,46.9,217.8,49.1,217.8z M49.1,198.9c2,0,3.5-0.6,4.4-1.8c0.9-1.2,1.4-3,1.4-5.3
			c0-2.2-0.5-3.8-1.5-4.8s-2.6-1.5-4.9-1.5c-0.5,0-1.2,0-1.9,0.1c-0.8,0.1-1.3,0.2-1.6,0.2v13C45.7,198.8,47,198.9,49.1,198.9z"/>
		<path d="M71.3,198.8c1.2-2.2,2.9-3.9,5-5.1c2.2-1.2,4.7-1.8,7.5-1.8c3.6,0,6.4,0.8,8.3,2.5s2.9,4.1,3,7.3c0,2.2-0.1,3.9-0.4,5
			H78.2c0.2,3.2,1,5.5,2.3,7s3.1,2.3,5.4,2.3c1.3,0,2.6-0.2,4-0.7c1.4-0.4,2.5-1,3.4-1.5l1.5,3.2c-0.6,0.6-1.5,1.3-2.7,1.9
			c-1.2,0.7-2.5,1.2-4,1.6s-3,0.7-4.6,0.7c-3.2,0-5.8-0.6-7.9-1.8c-2.1-1.2-3.6-2.9-4.6-5.1s-1.5-4.7-1.5-7.6
			C69.5,203.7,70.1,201,71.3,198.8z M86.9,203.2v-1.8c0-1.8-0.3-3.3-0.9-4.3s-1.7-1.5-3.1-1.5c-1,0-1.8,0.2-2.5,0.6
			s-1.2,1.2-1.6,2.3c-0.4,1.1-0.6,2.7-0.7,4.7L86.9,203.2L86.9,203.2z"/>
		<path d="M102.4,217.5v-19.2l-3.1-1v-4.1l8.6-1.2h0.1l1.5,1.1v1.5l-0.1,4.1h0.1c0.2-0.8,0.8-1.7,1.6-2.7c0.8-1.1,1.9-2,3.2-2.8
			c1.3-0.8,2.8-1.2,4.3-1.2c0.4,0,0.8,0,1.2,0.1c0.4,0.1,0.6,0.2,0.8,0.3v9c-0.6-0.5-1.2-0.8-1.8-1.1c-0.6-0.2-1.4-0.3-2.3-0.3
			c-1.3,0-2.4,0.2-3.5,0.5s-1.9,0.7-2.4,1.2v15.7l6.1,0.5v3.3H99v-3.3L102.4,217.5z"/>
		<path d="M126.9,217.3v-34.1l-3.8-0.7v-3.2l10.4-1.3h0.1l1.5,1.1v38.1l3.5,0.5v3.4h-15.2v-3.4L126.9,217.3z"/>
		<path d="M145.4,217.3v-19.7l-3.5-1.1v-3.9l10.1-1.3h0.1l1.6,1.1v24.9l3.3,0.5v3.4h-15.1v-3.4L145.4,217.3z M144.7,180.4
			c0.4-0.8,1-1.4,1.7-1.8c0.7-0.5,1.6-0.7,2.7-0.7l0,0c1,0,1.8,0.2,2.5,0.6s1.2,0.9,1.6,1.6c0.4,0.7,0.6,1.4,0.6,2.2
			c0,1.5-0.4,2.7-1.3,3.6c-0.9,0.9-2.2,1.4-3.8,1.4l0,0c-0.9,0-1.6-0.2-2.3-0.6s-1.2-0.9-1.6-1.5c-0.4-0.6-0.6-1.4-0.6-2.2
			C144.1,182.1,144.3,181.2,144.7,180.4z"/>
		<path d="M164.1,217.4v-19.2l-3.2-1V193l9.3-1.2h0.1l1.4,1.1v1.9l-0.1,1.2c1.2-1.1,2.8-2.1,4.7-2.9s3.8-1.2,5.8-1.2
			c2.1,0,3.8,0.4,5,1.1s2.1,1.9,2.6,3.6c0.5,1.6,0.8,3.9,0.8,6.7v14l3.1,0.4v3.4h-14.3v-3.3l2.7-0.5v-14c0-1.7-0.1-3-0.3-3.9
			s-0.6-1.6-1.2-2c-0.6-0.4-1.4-0.7-2.5-0.7c-1,0-2,0.2-3,0.7c-1,0.4-1.8,1-2.5,1.6v18.4l3,0.5v3.3h-14.4v-3.3L164.1,217.4z"/>
		<path d="M213.8,186.6l-3.3-0.7v-3.7h16.7v3.7l-4.3,0.8v19.1c0,4,0.7,7,2.1,9c1.4,1.9,3.4,2.9,6.2,2.9c2.7,0,4.8-1,6.1-3.1
			s2-4.9,2-8.6v-19.3l-4.4-0.7v-3.7h13.5v3.7l-3.5,0.7v18.9c0,3.6-0.6,6.6-1.9,9c-1.3,2.4-3,4.1-5.2,5.2s-4.8,1.6-7.7,1.6
			c-3.7,0-6.7-0.6-9.1-1.7c-2.4-1.1-4.1-2.9-5.3-5.2c-1.2-2.4-1.7-5.5-1.7-9.3v-18.6H213.8z"/>
		<path d="M254.3,217.4v-19.2l-3.2-1V193l9.3-1.2h0.1l1.4,1.1v1.9l-0.1,1.2c1.2-1.1,2.8-2.1,4.7-2.9c1.9-0.8,3.8-1.2,5.8-1.2
			c2.1,0,3.8,0.4,5,1.1s2.1,1.9,2.6,3.6c0.5,1.6,0.8,3.9,0.8,6.7v14l3.1,0.4v3.4h-14.3v-3.3l2.7-0.5v-14c0-1.7-0.1-3-0.3-3.9
			c-0.2-0.9-0.6-1.6-1.2-2s-1.4-0.7-2.5-0.7c-1,0-2,0.2-3,0.7c-1,0.4-1.8,1-2.5,1.6v18.4l3,0.5v3.3h-14.4v-3.3L254.3,217.4z"/>
		<path d="M290.5,217.3v-19.7l-3.5-1.1v-3.9l10.1-1.3h0.1l1.6,1.1v24.9l3.3,0.5v3.4H287v-3.4L290.5,217.3z M289.9,180.4
			c0.4-0.8,1-1.4,1.7-1.8c0.7-0.5,1.6-0.7,2.7-0.7l0,0c1,0,1.8,0.2,2.5,0.6s1.2,0.9,1.6,1.6s0.6,1.4,0.6,2.2c0,1.5-0.4,2.7-1.3,3.6
			s-2.2,1.4-3.8,1.4l0,0c-0.9,0-1.6-0.2-2.3-0.6c-0.7-0.4-1.2-0.9-1.6-1.5s-0.6-1.4-0.6-2.2C289.3,182.1,289.5,181.2,289.9,180.4z"
			/>
		<path d="M303.2,195.3v-3.4h14.9v3.4l-3.5,0.7l4.4,13.5l1.5,5.2l1.2-5.1l4.2-13.6l-3.3-0.6V192h12.1v3.4L332,196l-9.6,25.2h-6.8
			L305.2,196L303.2,195.3z"/>
		<path d="M337.4,198.8c1.2-2.2,2.9-3.9,5-5.1c2.2-1.2,4.7-1.8,7.5-1.8c3.6,0,6.4,0.8,8.3,2.5s2.9,4.1,3,7.3c0,2.2-0.1,3.9-0.4,5
			h-16.6c0.2,3.2,1,5.5,2.3,7s3.1,2.3,5.4,2.3c1.3,0,2.6-0.2,4-0.7c1.4-0.4,2.5-1,3.4-1.5l1.5,3.2c-0.6,0.6-1.5,1.3-2.7,1.9
			c-1.2,0.7-2.5,1.2-4,1.6s-3,0.7-4.6,0.7c-3.2,0-5.8-0.6-7.9-1.8c-2.1-1.2-3.6-2.9-4.6-5.1s-1.5-4.7-1.5-7.6
			C335.6,203.7,336.2,201,337.4,198.8z M353,203.2v-1.8c0-1.8-0.3-3.3-0.9-4.3s-1.7-1.5-3.1-1.5c-1,0-1.8,0.2-2.5,0.6
			s-1.2,1.2-1.6,2.3c-0.4,1.1-0.6,2.7-0.7,4.7L353,203.2L353,203.2z"/>
		<path d="M368.5,217.5v-19.2l-3.1-1v-4.1l8.6-1.2h0.1l1.5,1.1v1.5l-0.1,4.1h0.1c0.2-0.8,0.8-1.7,1.6-2.7c0.8-1.1,1.9-2,3.2-2.8
			c1.3-0.8,2.8-1.2,4.3-1.2c0.4,0,0.8,0,1.2,0.1c0.4,0.1,0.6,0.2,0.8,0.3v9c-0.6-0.5-1.2-0.8-1.8-1.1c-0.6-0.2-1.4-0.3-2.3-0.3
			c-1.3,0-2.4,0.2-3.5,0.5s-1.9,0.7-2.4,1.2v15.7l6.1,0.5v3.3H365v-3.3L368.5,217.5z"/>
		<path d="M395.6,212.4l1.3,3.8c0.3,0.4,0.8,0.8,1.8,1.1c0.9,0.3,1.9,0.5,2.8,0.5c1.5,0,2.6-0.3,3.3-0.9c0.7-0.6,1.1-1.4,1.1-2.3
			c0-0.7-0.3-1.3-0.8-1.9s-1.3-1.1-2.1-1.5c-0.9-0.5-2.2-1-3.9-1.8l-1.3-0.6c-2.4-1-4.2-2.2-5.3-3.6c-1.2-1.4-1.7-3.1-1.7-5.3
			c0-1.5,0.5-2.9,1.4-4.1s2.3-2.2,4-2.9c1.8-0.7,3.8-1,6.2-1c1.6,0,3,0.1,4.2,0.3c1.2,0.2,2.4,0.5,3.9,0.8c0.8,0.2,1.4,0.4,1.8,0.4
			v6.7h-4.6l-1.3-3.6c-0.2-0.4-0.6-0.7-1.3-1c-0.7-0.3-1.4-0.4-2.4-0.4c-1.4,0-2.4,0.3-3.2,0.8c-0.7,0.6-1.1,1.3-1.1,2.2
			c0,0.8,0.2,1.4,0.7,1.9s1.1,1,1.8,1.3c0.7,0.4,1.7,0.8,3,1.4l1.2,0.5c1.9,0.8,3.4,1.6,4.6,2.3c1.2,0.7,2.3,1.7,3.1,2.8
			c0.8,1.1,1.2,2.5,1.2,4.1s-0.4,3-1.3,4.3s-2.2,2.3-4,3s-4,1.1-6.7,1.1c-1.8,0-3.5-0.2-5-0.5s-3.1-0.7-4.8-1.2
			c-0.3-0.1-0.8-0.3-1.4-0.4v-6.3H395.6z"/>
		<path d="M421.1,217.3v-19.7l-3.5-1.1v-3.9l10.1-1.3h0.1l1.6,1.1v24.9l3.3,0.5v3.4h-15.1v-3.4L421.1,217.3z M420.4,180.4
			c0.4-0.8,1-1.4,1.7-1.8c0.7-0.5,1.6-0.7,2.7-0.7l0,0c1,0,1.8,0.2,2.5,0.6s1.2,0.9,1.6,1.6s0.6,1.4,0.6,2.2c0,1.5-0.4,2.7-1.3,3.6
			s-2.2,1.4-3.8,1.4l0,0c-0.9,0-1.6-0.2-2.3-0.6c-0.7-0.4-1.2-0.9-1.6-1.5s-0.6-1.4-0.6-2.2C419.8,182.1,420,181.2,420.4,180.4z"/>
		<path d="M435.5,196.3v-3c0.4-0.2,1-0.4,1.7-0.8c0.8-0.3,1.2-0.5,1.3-0.6c0.7-0.7,1.2-1.5,1.6-2.6c0.3-0.7,0.6-1.6,1-2.6
			c0.4-1.1,0.7-2,0.9-2.9h4.8l0.2,8.2h7.7v4.3H447V210c0,2,0,3.4,0.1,4.1c0.1,0.8,0.3,1.2,0.6,1.5c0.3,0.2,0.9,0.3,1.7,0.3l0,0
			c1.5,0,3.1-0.2,4.8-0.7l0,0l1.1,3.2c-0.6,0.5-1.5,1-2.5,1.4c-1.1,0.4-2.3,0.8-3.6,1.1c-1.3,0.3-2.6,0.4-3.8,0.4h-0.1
			c-2.3,0-4.1-0.5-5.2-1.6c-1.1-1-1.7-2.6-1.7-4.8v-18.6H435.5z"/>
		<path d="M459.2,227.3c0.2,0.2,0.8,0.3,1.5,0.4c0.8,0.1,1.5,0.2,2.2,0.2c1.7,0,3.1-0.5,4.2-1.6c1.1-1,2.2-2.8,3.1-5.2H467
			l-9.6-25.2l-2.3-0.7v-3.4h15.3v3.4l-3.6,0.7l4.4,14.3l1.6,5.4l1.3-5.4l4.1-14.3l-3.2-0.6v-3.4h11.8v3.4l-2.5,0.6
			c-1.5,4.6-3.3,9.9-5.4,15.8s-3.3,9.2-3.6,9.9c-1,2.8-2.1,5-3.2,6.8s-2.4,3.1-3.9,4.1c-1.5,0.9-3.2,1.4-5.2,1.4
			c-0.7,0-1.4,0-2.2-0.1c-0.8-0.1-1.3-0.2-1.6-0.4L459.2,227.3L459.2,227.3z"/>
		<path d="M34.9,284.6l11.9-35h9.1l11.9,35l3,0.6v3.4H54.5v-3.4l3.7-0.7l-1.8-6.3h-13l-1.8,6.4l4.1,0.6v3.4H31.8l-0.1-3.4
			L34.9,284.6z M55.2,274.3l-4.6-15.7l-0.8-3.6l-0.8,3.6l-4.4,15.7H55.2z"/>
		<path d="M75,284.8v-34.1l-3.8-0.7v-3.2l10.4-1.3h0.1l1.5,1.1v38.1l3.5,0.5v3.4H71.5v-3.4L75,284.8z"/>
		<path d="M93.1,284.8v-34.1l-3.8-0.7v-3.2l10.4-1.3h0.1l1.5,1.1v38.1l3.5,0.5v3.4H89.6v-3.4L93.1,284.8z"/>
		<path d="M111.5,284.8v-19.7L108,264v-3.9l10.1-1.3h0.1l1.6,1.1v24.9l3.3,0.5v3.4H108v-3.4L111.5,284.8z M110.8,248
			c0.4-0.8,1-1.4,1.7-1.8c0.7-0.5,1.6-0.7,2.7-0.7l0,0c1,0,1.8,0.2,2.5,0.6s1.2,0.9,1.6,1.6s0.6,1.4,0.6,2.2c0,1.5-0.4,2.7-1.3,3.6
			s-2.2,1.4-3.8,1.4l0,0c-0.9,0-1.6-0.2-2.3-0.6c-0.7-0.4-1.2-0.9-1.6-1.5s-0.6-1.4-0.6-2.2C110.3,249.6,110.5,248.8,110.8,248z"/>
		<path d="M143.1,269.3c0-1-0.1-1.9-0.4-2.5c-0.3-0.6-0.8-1.1-1.6-1.4s-1.8-0.5-3.2-0.5c-1.7,0-3.3,0.2-4.7,0.5s-2.8,0.7-4.3,1.2
			l0,0l-1.7-3.1c0.6-0.5,1.5-1,2.8-1.7c1.3-0.6,2.8-1.2,4.6-1.7s3.5-0.7,5.4-0.7c2.7,0,4.9,0.3,6.5,1s2.7,1.7,3.4,3.2s1,3.5,1,5.9
			v15h2.8v3.3c-0.9,0.2-2,0.4-3.3,0.6s-2.5,0.3-3.5,0.3c-0.9,0-1.6-0.1-2.1-0.2c-0.5-0.2-0.8-0.5-1-0.9s-0.3-1-0.3-1.8V285
			c-0.8,1-2,1.9-3.4,2.6c-1.4,0.8-3.1,1.1-5,1.1c-1.6,0-3.1-0.3-4.5-1s-2.4-1.7-3.2-3s-1.2-2.9-1.2-4.8c0-3.2,1.5-5.7,4.5-7.3
			c3-1.6,7.2-2.5,12.5-2.5v-0.8H143.1z M143.1,273.6c-2.9,0-4.9,0.5-6.2,1.5s-1.9,2.3-1.9,3.9s0.4,2.8,1.1,3.6
			c0.7,0.8,1.7,1.3,2.9,1.3c0.6,0,1.3-0.2,2.1-0.5s1.5-0.7,2-1.2L143.1,273.6L143.1,273.6z"/>
		<path d="M160.1,285v-19.2l-3.2-1v-4.2l9.3-1.2h0.1l1.4,1.1v1.9l-0.1,1.2c1.2-1.1,2.8-2.1,4.7-2.9s3.8-1.2,5.8-1.2
			c2.1,0,3.8,0.4,5,1.1s2.1,1.9,2.6,3.6c0.5,1.6,0.8,3.9,0.8,6.7v14l3.1,0.4v3.4h-14.3v-3.3l2.7-0.5v-14c0-1.7-0.1-3-0.3-3.9
			s-0.6-1.6-1.2-2c-0.6-0.4-1.4-0.7-2.5-0.7c-1,0-2,0.2-3,0.7c-1,0.4-1.8,1-2.5,1.6v18.3l3,0.5v3.3h-14.4v-3.3L160.1,285z"/>
		<path d="M211.4,259.8c1,0.2,2.1,0.5,3.3,0.8c0.8,0.3,1.5,0.4,1.9,0.5l-0.4,8.7H211l-1.3-5.2c-0.2-0.5-0.5-0.8-1-1
			s-1.1-0.3-1.8-0.3c-3.6,0-5.3,3.3-5.3,9.8c0,2.4,0.3,4.3,0.8,5.9c0.6,1.6,1.4,2.8,2.4,3.6c1,0.8,2.2,1.2,3.5,1.2
			c1.5,0,2.8-0.2,3.9-0.5c1.1-0.4,2.2-0.8,3.1-1.4l1.4,3c-0.5,0.6-1.3,1.2-2.3,1.8c-1,0.6-2.3,1.2-3.7,1.6s-2.9,0.7-4.4,0.7
			c-3.1,0-5.6-0.6-7.7-1.8c-2-1.2-3.5-2.9-4.5-5s-1.5-4.6-1.5-7.4c0-2.9,0.6-5.6,1.9-7.8c1.2-2.3,3-4,5.3-5.3s4.9-1.9,7.9-1.9
			C209.2,259.5,210.4,259.6,211.4,259.8z"/>
		<path d="M221.7,266.4c1.2-2.2,2.9-3.9,5-5.1c2.2-1.2,4.7-1.8,7.5-1.8c3.6,0,6.4,0.8,8.3,2.5c1.9,1.7,2.9,4.1,3,7.3
			c0,2.2-0.1,3.9-0.4,5h-16.6c0.2,3.2,1,5.5,2.3,7s3.1,2.3,5.4,2.3c1.3,0,2.6-0.2,4-0.7c1.4-0.4,2.5-1,3.4-1.5l1.5,3.2
			c-0.6,0.6-1.5,1.3-2.7,1.9c-1.2,0.7-2.5,1.2-4,1.6s-3,0.7-4.6,0.7c-3.2,0-5.8-0.6-7.9-1.8c-2.1-1.2-3.6-2.9-4.6-5.1
			s-1.5-4.7-1.5-7.6C219.9,271.2,220.5,268.6,221.7,266.4z M237.3,270.7v-1.8c0-1.8-0.3-3.3-0.9-4.3c-0.6-1-1.7-1.5-3.1-1.5
			c-1,0-1.8,0.2-2.5,0.6s-1.2,1.2-1.6,2.3c-0.4,1.1-0.6,2.7-0.7,4.7L237.3,270.7L237.3,270.7z"/>
	</g>
	<g id="RGB_x5F_Ausdruck">
		<polygon class="st0" points="32.2,50.4 32.2,50.4 70.6,88.8 109.1,88.8 147.5,88.8 109.1,50.4 109.1,50.4 		"/>
		<path class="st1" d="M147.5,88.8L147.5,88.8L147.5,88.8z"/>
		<polygon class="st2" points="109.1,127.2 109.1,127.2 147.5,127.2 185.9,127.2 224.4,88.8 185.9,88.8 147.5,88.8 147.5,88.8 		"/>
		<polygon class="st3" points="301.2,88.8 301.2,127.2 339.7,127.2 		"/>
		<path class="st1" d="M224.4,88.8L224.4,88.8L224.4,88.8z"/>
		<polygon class="st4" points="262.8,50.4 224.4,88.8 262.8,88.8 301.2,88.8 262.8,50.4 262.8,50.4 		"/>
	</g>
</g>
</svg>
