<?xml version="1.0" encoding="UTF-8" standalone="no"?>
<!DOCTYPE svg PUBLIC "-//W3C//DTD SVG 1.1//EN" "http://www.w3.org/Graphics/SVG/1.1/DTD/svg11.dtd">
<svg width="100%" height="100%" viewBox="0 0 284 107" version="1.1" xmlns="http://www.w3.org/2000/svg" xmlns:xlink="http://www.w3.org/1999/xlink" xml:space="preserve" xmlns:serif="http://www.serif.com/" style="fill-rule:evenodd;clip-rule:evenodd;stroke-linejoin:round;stroke-miterlimit:2;">
    <g transform="matrix(1,0,0,1,-125,-88.7)">
        <g id="CD_Raster">
            <rect x="139.2" y="88.7" width="69.2" height="28.3" style="fill:rgb(204,255,0);"/>
            <rect x="202.9" y="88.7" width="56.6" height="70.8" style="fill:rgb(204,255,0);"/>
            <rect x="294.9" y="117" width="56.6" height="42.5" style="fill:rgb(204,255,0);"/>
            <rect x="188.7" y="117" width="113.2" height="70.8" style="fill:rgb(204,255,0);"/>
            <rect x="294.9" y="173.6" width="113.2" height="21.2" style="fill:rgb(204,255,0);"/>
            <rect x="125" y="173.6" width="56.6" height="21.2" style="fill:rgb(204,255,0);"/>
        </g>
        <g id="Logo_3-zeilig">
            <g>
                <g>
                    <path d="M153.3,102.8L199.4,102.8L199.4,113.5L167.5,113.5L167.5,138.2L153.3,138.2L153.3,102.8Z" style="fill-rule:nonzero;"/>
                    <rect x="167.5" y="138.2" width="28.3" height="10.6" style="fill-rule:nonzero;"/>
                    <rect x="139.2" y="152.3" width="14.1" height="28.4" style="fill-rule:nonzero;"/>
                </g>
                <g>
                    <g>
                        <path d="M353.1,129.8C354.2,129.8 355,129 355,127.9C355,126.8 354.2,126 353.1,126C352,126 351.2,126.8 351.2,127.9C351.2,129 352,129.8 353.1,129.8Z" style="fill-rule:nonzero;"/>
                        <path d="M347.1,129.8C348.2,129.8 349,129 349,127.9C349,126.8 348.2,126 347.1,126C346,126 345.2,126.8 345.2,127.9C345.2,129 346,129.8 347.1,129.8Z" style="fill-rule:nonzero;"/>
                    </g>
                    <g>
                        <path d="M217,140.6L217,131.1L221,131.1L221,141C221,144.5 222.1,145.6 224.1,145.6C226.1,145.6 227.2,144.4 227.2,141L227.2,131.1L231,131.1L231,140.6C231,146.5 228.6,149.1 224,149.1C219.4,149.1 216.9,146.5 216.9,140.6L217,140.6Z" style="fill-rule:nonzero;"/>
                        <path d="M234.7,131.1L238.8,131.1L243.4,139.9L245.2,143.8L245.3,143.8C245.1,141.9 244.8,139.4 244.8,137.3L244.8,131.1L248.6,131.1L248.6,148.8L244.5,148.8L239.9,140L238.1,136.2L238,136.2C238.2,138.1 238.5,140.5 238.5,142.6L238.5,148.9L234.7,148.9L234.7,131.1Z" style="fill-rule:nonzero;"/>
                        <rect x="252.6" y="131.1" width="4" height="17.7" style="fill-rule:nonzero;"/>
                        <path d="M258.6,131.1L262.8,131.1L265,139.4C265.5,141.3 265.9,143.1 266.4,145.1L266.5,145.1C267,143.2 267.4,141.4 267.9,139.4L270,131.1L274.1,131.1L268.8,148.8L264,148.8L258.6,131.1Z" style="fill-rule:nonzero;"/>
                        <path d="M276.1,131.1L287.2,131.1L287.2,134.5L280.1,134.5L280.1,138.1L286.2,138.1L286.2,141.4L280.1,141.4L280.1,145.5L287.5,145.5L287.5,148.8L276.1,148.8L276.1,131.1Z" style="fill-rule:nonzero;"/>
                        <path d="M304.9,148.8L300.9,141.7C302.8,140.9 304.1,139.2 304.1,136.6C304.1,132.4 301,131.1 297.2,131.1L290.9,131.1L290.9,148.8L294.9,148.8L294.9,142.4L297.1,142.4L300.5,148.7L304.9,148.7L304.9,148.8ZM294.9,134.3L296.9,134.3C299,134.3 300.1,134.9 300.1,136.6C300.1,138.3 299,139.3 296.9,139.3L294.9,139.3L294.9,134.3Z" style="fill-rule:nonzero;"/>
                        <path d="M306.1,146.6L308.4,143.9C309.6,145 311.3,145.8 312.8,145.8C314.3,145.8 315.3,145.1 315.3,144.1C315.3,143.1 314.3,142.6 312.8,142L310.5,141C308.7,140.3 306.9,138.7 306.9,136.2C306.9,133.7 309.5,130.9 313.2,130.9C316.9,130.9 317.4,131.7 318.9,133.2L316.9,135.7C315.7,134.8 314.6,134.3 313.2,134.3C311.8,134.3 310.9,134.9 310.9,135.9C310.9,136.9 312,137.4 313.6,138L315.9,138.9C318.1,139.7 319.4,141.2 319.4,143.7C319.4,146.2 317,149.2 312.7,149.2C310.4,149 307.9,148.1 306.1,146.5L306.1,146.6Z" style="fill-rule:nonzero;"/>
                        <rect x="322.6" y="131.1" width="4" height="17.7" style="fill-rule:nonzero;"/>
                        <path d="M334.2,134.5L329.3,134.5L329.3,131.1L343,131.1L343,134.5L338.1,134.5L338.1,148.8L334.1,148.8L334.1,134.5L334.2,134.5Z" style="fill-rule:nonzero;"/>
                        <path d="M353.9,148.8L358.1,148.8L352.6,131.1L347.8,131.1L342.3,148.8L346.4,148.8L347.5,144.6L352.9,144.6L354,148.8L353.9,148.8ZM348.2,141.5L348.7,139.9C349.2,138.1 349.7,136.1 350.1,134.2L350.2,134.2C350.7,136.1 351.2,138.2 351.6,139.9L352,141.5L348.2,141.5Z" style="fill-rule:nonzero;"/>
                        <path d="M362,134.5L357.1,134.5L357.1,131.1L370.9,131.1L370.9,134.5L366,134.5L366,148.8L362,148.8L362,134.5Z" style="fill-rule:nonzero;"/>
                    </g>
                </g>
                <g>
                    <path d="M217,102.8L228.2,102.8L228.2,106.1L221,106.1L221,110.2L227.1,110.2L227.1,113.5L221,113.5L221,120.4L217,120.4L217,102.7L217,102.8Z" style="fill-rule:nonzero;"/>
                    <path d="M245.4,120.5L241.4,113.4C243.3,112.6 244.6,110.9 244.6,108.3C244.6,104.1 241.5,102.8 237.7,102.8L231.3,102.8L231.3,120.5L235.3,120.5L235.3,114L237.5,114L240.9,120.3L245.4,120.3L245.4,120.5ZM235.4,106L237.4,106C239.5,106 240.6,106.6 240.6,108.3C240.6,110 239.5,111 237.4,111L235.4,111L235.4,106Z" style="fill-rule:nonzero;"/>
                    <path d="M248.2,102.8L259.3,102.8L259.3,106.1L252.2,106.1L252.2,109.7L258.3,109.7L258.3,113L252.2,113L252.2,117.1L259.6,117.1L259.6,120.4L248.2,120.4L248.2,102.7L248.2,102.8Z" style="fill-rule:nonzero;"/>
                    <rect x="263.2" y="102.8" width="4" height="17.7" style="fill-rule:nonzero;"/>
                    <path d="M271.2,102.8L282.3,102.8L282.3,106.1L275.2,106.1L275.2,109.7L281.3,109.7L281.3,113L275.2,113L275.2,117.1L282.6,117.1L282.6,120.4L271.2,120.4L271.2,102.7L271.2,102.8Z" style="fill-rule:nonzero;"/>
                </g>
                <g>
                    <path d="M217,162.9L222,162.9C225.6,162.9 228,164.1 228,167.2C228,170.3 227,170.5 225.3,171C227.5,171.5 229,172.9 229,175.4C229,178.9 226.3,180.6 222.4,180.6L217,180.6L217,162.9ZM221.7,170.6C225,170.6 226.3,169.4 226.3,167.5C226.3,165.6 224.8,164.4 221.8,164.4L218.9,164.4L218.9,170.6L221.7,170.6ZM222.1,179.2C225.3,179.2 227.3,178 227.3,175.5C227.3,173 225.4,172.1 222.1,172.1L218.8,172.1L218.8,179.2L222.1,179.2Z" style="fill-rule:nonzero;"/>
                    <path d="M232.9,162.9L242.9,162.9L242.9,164.5L234.7,164.5L234.7,170.5L241.6,170.5L241.6,172.1L234.7,172.1L234.7,179.1L243.1,179.1L243.1,180.7L232.9,180.7L232.9,162.9Z" style="fill-rule:nonzero;"/>
                    <path d="M258.9,180.7L254.3,172.8C256.8,172.3 258.5,170.6 258.5,167.9C258.5,165.2 256,163 252.4,163L247.1,163L247.1,180.7L249,180.7L249,172.9L252.4,172.9L256.9,180.7L259,180.7L258.9,180.7ZM248.9,164.5L252.1,164.5C255,164.5 256.6,165.4 256.6,167.8C256.6,170.2 255,171.4 252.1,171.4L248.9,171.4L248.9,164.5Z" style="fill-rule:nonzero;"/>
                    <path d="M262.3,162.9L264.2,162.9L264.2,179L272.1,179L272.1,180.6L262.4,180.6L262.4,162.9L262.3,162.9Z" style="fill-rule:nonzero;"/>
                    <rect x="275.2" y="162.9" width="1.9" height="17.7" style="fill-rule:nonzero;"/>
                    <path d="M282.2,162.9L284.1,162.9L290.9,174.6L292.8,178.2L292.9,178.2C292.8,176.4 292.7,174.6 292.7,172.8L292.7,162.9L294.5,162.9L294.5,180.6L292.6,180.6L285.8,168.9L283.9,165.3L283.8,165.3C283.9,167.1 284,168.8 284,170.6L284,180.6L282.2,180.6L282.2,162.9Z" style="fill-rule:nonzero;"/>
                </g>
            </g>
        </g>
    </g>
</svg>
