<?xml version="1.0" encoding="UTF-8" standalone="no"?>
<!DOCTYPE svg PUBLIC "-//W3C//DTD SVG 1.1//EN" "http://www.w3.org/Graphics/SVG/1.1/DTD/svg11.dtd">
<svg width="100%" height="100%" viewBox="0 0 251 118" version="1.1" xmlns="http://www.w3.org/2000/svg" xmlns:xlink="http://www.w3.org/1999/xlink" xml:space="preserve" xmlns:serif="http://www.serif.com/" style="fill-rule:evenodd;clip-rule:evenodd;stroke-linejoin:round;stroke-miterlimit:2;">
    <g transform="matrix(1,0,0,1,-542,-83.9)">
        <path d="M793,142.7C793,175.2 766.6,201.5 734.2,201.5C701.8,201.5 675.4,175.1 675.4,142.7C675.4,110.3 701.8,83.9 734.2,83.9C766.6,83.9 793,110.3 793,142.7Z" style="fill:white;fill-rule:nonzero;"/>
        <path d="M557.8,120L563.2,120L563.2,123.5L561.8,123.5L561.8,124.2L566.2,124.2L566.2,123.5L564.8,123.5L564.8,115.7L566.2,115.7L566.2,115L561.8,115L561.8,115.7L563.2,115.7L563.2,119.2L557.8,119.2L557.8,115.7L559.2,115.7L559.2,115L554.7,115L554.7,115.7L556.2,115.7L556.2,123.5L554.7,123.5L554.7,124.2L559.2,124.2L559.2,123.5L557.8,123.5L557.8,120Z" style="fill:rgb(8,71,128);fill-rule:nonzero;"/>
        <path d="M578.8,120.8L578.8,115.8L580.3,115.8L580.3,115L576.3,115L576.3,115.8L577.8,115.8L577.8,120.8C577.8,122.4 576.8,123.6 575.2,123.6C573.6,123.6 572.8,122.5 572.8,120.8L572.8,115.8L574.4,115.8L574.4,115L569.9,115L569.9,115.8L571.4,115.8L571.4,121.2C571.4,123.1 573,124.5 575.1,124.5C577.3,124.5 578.9,122.9 578.9,120.8L578.8,120.8Z" style="fill:rgb(8,71,128);fill-rule:nonzero;"/>
        <path d="M593.1,116.8L593.1,123.5L591.5,123.5L591.5,124.2L596,124.2L596,123.5L594.5,123.5L594.5,115.8L596,115.8L596,115L592.9,115L589.7,121.8L586.6,115L583.5,115L583.5,115.8L585.1,115.8L585.1,123.5L583.5,123.5L583.5,124.2L587.6,124.2L587.6,123.5L586,123.5L586,117.2L589.4,124.4L593.1,116.8Z" style="fill:rgb(8,71,128);fill-rule:nonzero;"/>
        <path d="M607.7,121.8C607.7,120.3 606.6,119.4 604.7,119.4C606.2,119.4 607.2,118.5 607.2,117.3C607.2,116.1 606.2,115 604.4,115L599.6,115L599.6,115.8L601.1,115.8L601.1,123.6L599.6,123.6L599.6,124.4L604.8,124.4C606.6,124.4 607.7,123.4 607.7,121.9L607.7,121.8ZM602.5,115.8L603.9,115.8C604.9,115.8 605.4,116.3 605.4,117.4C605.4,118.5 604.8,119 603.8,119L602.5,119L602.5,115.8ZM602.5,123.4L602.5,119.8L604,119.8C605.3,119.8 606,120.4 606,121.7C606,123 605.3,123.4 604,123.4L602.5,123.4Z" style="fill:rgb(8,71,128);fill-rule:nonzero;"/>
        <path d="M615.5,124.4C618,124.4 620.2,122.2 620.2,119.5C620.2,116.8 618,114.7 615.5,114.7C613,114.7 610.7,116.9 610.7,119.5C610.7,122.2 612.9,124.4 615.5,124.4ZM615.5,115.6C617.1,115.6 618.5,117.4 618.5,119.6C618.5,121.8 617.2,123.7 615.5,123.7C613.8,123.7 612.5,121.9 612.5,119.6C612.5,117.3 613.9,115.6 615.5,115.6Z" style="fill:rgb(8,71,128);fill-rule:nonzero;"/>
        <path d="M630.1,123.4L626.9,123.4L626.9,115.8L628.3,115.8L628.3,115L623.8,115L623.8,115.8L625.3,115.8L625.3,123.5L623.8,123.5L623.8,124.2L630.9,124.2L630.9,122.2L630.1,122.2L630.1,123.4Z" style="fill:rgb(8,71,128);fill-rule:nonzero;"/>
        <path d="M643.2,119.6C643.2,117 641.1,115 638.4,115L633.6,115L633.6,115.8L635.1,115.8L635.1,123.6L633.6,123.6L633.6,124.4L638.4,124.4C641.2,124.2 643.2,122.2 643.2,119.6ZM636.6,123.4L636.6,115.8L638.2,115.8C640,115.8 641.5,117.4 641.5,119.6C641.5,121.8 640.1,123.4 638.2,123.4L636.6,123.4Z" style="fill:rgb(8,71,128);fill-rule:nonzero;"/>
        <path d="M649,123.5L647.4,123.5L647.4,124.2L652.2,124.2L652.2,123.5L650.6,123.5L650.6,115.8L653.5,115.8L653.5,116.9L654.2,116.9L654.2,114.6L653.5,114.6L653.5,115L646.1,115L646.1,114.6L645.4,114.6L645.4,116.9L646.1,116.9L646.1,115.8L649,115.8L649,123.5Z" style="fill:rgb(8,71,128);fill-rule:nonzero;"/>
        <rect x="655.8" y="119.5" width="3.4" height="1.2" style="fill:rgb(8,71,128);"/>
        <path d="M548.4,135.9L549.9,135.9L549.9,140.9C549.9,142.5 548.9,143.7 547.3,143.7C545.7,143.7 544.9,142.6 544.9,140.9L544.9,135.9L546.5,135.9L546.5,135.1L542,135.1L542,135.9L543.6,135.9L543.6,141.3C543.6,143.2 545.2,144.6 547.3,144.6C549.4,144.6 551.1,143.1 551.1,141L551.1,136L552.6,136L552.6,135.2L548.6,135.2L548.6,135.9L548.4,135.9Z" style="fill:rgb(8,71,128);fill-rule:nonzero;"/>
        <path d="M562,135.9L563.6,135.9L563.6,141.7L557.9,135.2L555.4,135.2L555.4,135.9L556.7,135.9L557.2,136.5L557.2,143.6L555.7,143.6L555.7,144.4L559.7,144.4L559.7,143.6L558.2,143.6L558.2,137.8L563.9,144.6L564.5,144.6L564.5,135.9L566.1,135.9L566.1,135.2L562,135.2L562,135.9Z" style="fill:rgb(8,71,128);fill-rule:nonzero;"/>
        <path d="M570.7,143.6L569.3,143.6L569.3,144.4L573.8,144.4L573.8,143.6L572.3,143.6L572.3,135.9L573.8,135.9L573.8,135.2L569.3,135.2L569.3,135.9L570.7,135.9L570.7,143.6Z" style="fill:rgb(8,71,128);fill-rule:nonzero;"/>
        <path d="M576.8,135.9L577.7,135.9L581.3,144.6L581.8,144.6L585.4,135.9L586.2,135.9L586.2,135.2L583.3,135.2L583.3,135.9L584.5,135.9L582,142.2L579.4,135.9L580.6,135.9L580.6,135.2L576.8,135.2L576.8,135.9Z" style="fill:rgb(8,71,128);fill-rule:nonzero;"/>
        <path d="M594.8,143.6L591.4,143.6L591.4,140.1L593.9,140.1L593.9,141.1L594.7,141.1L594.7,138.4L593.9,138.4L593.9,139.3L591.4,139.3L591.4,135.9L594.6,135.9L594.6,137L595.4,137L595.4,134.8L594.6,134.8L594.6,135.2L588.4,135.2L588.4,135.9L589.9,135.9L589.9,143.6L588.4,143.6L588.4,144.4L595.5,144.4L595.5,142.5L594.8,142.5L594.8,143.6Z" style="fill:rgb(8,71,128);fill-rule:nonzero;"/>
        <path d="M608.4,144.4L608.4,143.6L607.9,143.6C607.5,143.6 607.1,143.3 606.8,142.8L605,140.1C606.3,139.8 607.2,138.9 607.2,137.5C607.2,136.1 606.2,135 604.3,135L599.6,135L599.6,135.8L601.1,135.8L601.1,143.5L599.6,143.5L599.6,144.3L604.1,144.3L604.1,143.5L602.6,143.5L602.6,140.2L603.6,140.2L605.8,143.4C606.3,144.2 606.5,144.3 607.4,144.3L608.6,144.3L608.4,144.4ZM602.2,139.6L602.2,136.1L603.6,136.1C604.6,136.1 605.2,136.7 605.2,137.8C605.2,138.9 604.6,139.6 603.6,139.6L602.2,139.6Z" style="fill:rgb(8,71,128);fill-rule:nonzero;"/>
        <path d="M615.1,139.1C614.7,138.8 614.2,138.6 613.7,138.3C613,137.9 612.8,137.6 612.8,137.1C612.8,136.3 613.4,135.8 614.4,135.8C615.4,135.8 615.3,135.8 616,136.3L616,137.3L616.8,137.3L616.8,134.9L616,134.9L616,135.4C615.4,135.1 614.9,135 614.2,135C612.6,135 611.3,136.1 611.3,137.6C611.3,139.1 611.9,139.5 613.6,140.4C615.2,141.3 615.8,141.8 615.8,142.5C615.8,143.2 615.1,143.8 614.1,143.8C613.1,143.8 612.9,143.6 612,143.1L612,142.1L611.2,142.1L611.2,144.6L612,144.6L612,144.1C612.8,144.5 613.5,144.8 614.2,144.8C615.8,144.8 617.1,143.7 617.1,142.2C617.3,140.7 616.8,140.1 615,139.2L615.1,139.1Z" style="fill:rgb(8,71,128);fill-rule:nonzero;"/>
        <path d="M623.7,135.9L625.3,135.9L625.3,135.2L620.8,135.2L620.8,135.9L622.3,135.9L622.3,143.6L620.8,143.6L620.8,144.4L625.3,144.4L625.3,143.6L623.7,143.6L623.7,135.9Z" style="fill:rgb(8,71,128);fill-rule:nonzero;"/>
        <path d="M628.6,134.8L627.8,134.8L627.8,137.1L628.6,137.1L628.6,135.9L631.4,135.9L631.4,143.6L629.8,143.6L629.8,144.4L634.7,144.4L634.7,143.6L633,143.6L633,135.9L635.9,135.9L635.9,137.1L636.6,137.1L636.6,134.8L635.9,134.8L635.9,135.2L628.6,135.2L628.6,134.8Z" style="fill:rgb(8,71,128);fill-rule:nonzero;"/>
        <path d="M641,131.6C640.5,131.6 640,132 640,132.6C640,133.2 640.4,133.6 641,133.6C641.6,133.6 642,133.2 642,132.6C642,132 641.5,131.6 641,131.6Z" style="fill:rgb(8,71,128);fill-rule:nonzero;"/>
        <path d="M644.2,144.4L647.6,144.4L647.6,143.6L646.7,143.6L643.1,134.9L642.6,134.9L638.8,143.7L638,143.7L638,144.5L640.8,144.5L640.8,143.7L639.7,143.7L640.7,141.5L644.3,141.5L645.2,143.7L644.3,143.7L644.3,144.4L644.2,144.4ZM640.9,140.7L642.5,137.2L644,140.7L640.9,140.7Z" style="fill:rgb(8,71,128);fill-rule:nonzero;"/>
        <path d="M644.5,133.7C645,133.7 645.5,133.3 645.5,132.7C645.5,132.1 645.1,131.7 644.5,131.7C643.9,131.7 643.5,132.1 643.5,132.7C643.5,133.3 644,133.7 644.5,133.7Z" style="fill:rgb(8,71,128);fill-rule:nonzero;"/>
        <path d="M656.9,134.8L656.9,135.2L649.5,135.2L649.5,134.8L648.8,134.8L648.8,137.1L649.5,137.1L649.5,135.9L652.5,135.9L652.5,143.6L650.7,143.6L650.7,144.4L655.7,144.4L655.7,143.6L653.9,143.6L653.9,135.9L656.9,135.9L656.9,137.1L657.6,137.1L657.6,134.8L656.9,134.8Z" style="fill:rgb(8,71,128);fill-rule:nonzero;"/>
        <path d="M573.2,155.8L573.2,155.4L566.1,155.4L566.1,155L565.4,155L565.4,157.2L566.1,157.2L566.1,156.2L571.1,156.2L565.4,164.1L565.4,164.6L573.4,164.6L573.4,162.4L572.7,162.4L572.7,163.8L567.4,163.8L573.2,155.8Z" style="fill:rgb(8,71,128);fill-rule:nonzero;"/>
        <path d="M582.9,156.2L584.4,156.2L584.4,161.2C584.4,162.8 583.4,164 581.8,164C580.2,164 579.4,162.9 579.4,161.2L579.4,156.2L581,156.2L581,155.4L576.5,155.4L576.5,156.2L578.1,156.2L578.1,161.6C578.1,163.5 579.7,164.9 581.8,164.9C583.9,164.9 585.6,163.4 585.6,161.3L585.6,156.3L587.1,156.3L587.1,155.4L583.1,155.4L583.1,156.2L582.9,156.2Z" style="fill:rgb(8,71,128);fill-rule:nonzero;"/>
        <path d="M600,159.7C601.5,159.7 602.5,158.8 602.5,157.6C602.5,156.4 601.5,155.3 599.7,155.3L594.9,155.3L594.9,156.1L596.4,156.1L596.4,163.9L594.9,163.9L594.9,164.7L600.1,164.7C602,164.7 603.1,163.8 603.1,162.3C603.1,160.7 601.9,159.9 600,159.8L600,159.7ZM597.9,156.2L599.3,156.2C600.3,156.2 600.8,156.7 600.8,157.8C600.8,158.9 600.2,159.4 599.2,159.4L597.9,159.4L597.9,156.2ZM599.3,163.8L597.9,163.8L597.9,160.2L599.4,160.2C600.7,160.2 601.4,160.8 601.4,162.1C601.4,163.2 600.6,163.8 599.3,163.8Z" style="fill:rgb(8,71,128);fill-rule:nonzero;"/>
        <path d="M609.5,160.3L612.1,160.3L612.1,161.3L612.8,161.3L612.8,158.5L612.1,158.5L612.1,159.5L609.5,159.5L609.5,156.2L612.8,156.2L612.8,157.2L613.5,157.2L613.5,155L612.8,155L612.8,155.4L606.5,155.4L606.5,156.1L608,156.1L608,163.9L606.5,163.9L606.5,164.6L613.6,164.6L613.6,162.8L612.9,162.8L612.9,163.8L609.5,163.8L609.5,160.3Z" style="fill:rgb(8,71,128);fill-rule:nonzero;"/>
        <path d="M624.8,163.1L623,160.4C624.3,160.1 625.2,159.2 625.2,157.8C625.2,156.4 624.2,155.3 622.3,155.3L617.6,155.3L617.6,156.1L619.1,156.1L619.1,163.8L617.6,163.8L617.6,164.6L622.1,164.6L622.1,163.8L620.6,163.8L620.6,160.5L621.6,160.5L623.8,163.7C624.3,164.5 624.5,164.6 625.4,164.6L626.9,164.6L626.9,163.8L626.4,163.8C625.7,163.8 625.3,163.6 625,163.1L624.8,163.1ZM620.4,159.7L620.4,156.2L621.8,156.2C622.8,156.2 623.4,156.8 623.4,157.9C623.4,159 622.8,159.7 621.8,159.7L620.4,159.7Z" style="fill:rgb(8,71,128);fill-rule:nonzero;"/>
        <path d="M632.2,156.2L633.7,156.2L633.7,155.4L629.2,155.4L629.2,156.2L630.7,156.2L630.7,163.9L629.2,163.9L629.2,164.6L636.3,164.6L636.3,162.6L635.6,162.6L635.6,163.8L632.2,163.8L632.2,156.2Z" style="fill:rgb(8,71,128);fill-rule:nonzero;"/>
        <path d="M640.5,163.9L639.1,163.9L639.1,164.6L643.5,164.6L643.5,163.9L642,163.9L642,156.2L643.5,156.2L643.5,155.4L639.1,155.4L639.1,156.2L640.5,156.2L640.5,163.9Z" style="fill:rgb(8,71,128);fill-rule:nonzero;"/>
        <path d="M655.1,161.9L649.5,155.4L646.9,155.4L646.9,156.2L648.3,156.2L648.7,156.7L648.7,163.9L647.2,163.9L647.2,164.6L651.2,164.6L651.2,163.9L649.7,163.9L649.7,158L655.5,164.7L656.1,164.7L656.1,156.2L657.6,156.2L657.6,155.4L653.6,155.4L653.6,156.2L655.1,156.2L655.1,161.9Z" style="fill:rgb(8,71,128);fill-rule:nonzero;"/>
        <path d="M695.6,173.3C696,173 696.1,172.3 695.8,171.8C695.5,171.4 694.8,171.3 694.3,171.6C693.9,171.9 693.8,172.6 694.1,173.1C694.4,173.5 695.1,173.6 695.6,173.3Z" style="fill:rgb(8,71,128);fill-rule:nonzero;"/>
        <path d="M701.7,183.2L698.8,180.8L705.6,179L705.8,178.8L701.9,175.5L702.1,175.3L701.7,174.9L700.7,176.2L701,176.5L701.6,176L704.3,178.2L697.5,180L697.2,180.3L701.7,184L702.7,182.8L702.3,182.5L701.7,183.2Z" style="fill:rgb(8,71,128);fill-rule:nonzero;"/>
        <path d="M715,184.4L712.5,183L712.2,183.5L713.2,184L711.5,187.1C710.9,188.1 709.9,188.5 708.9,188C707.9,187.5 707.8,186.4 708.3,185.4L710,182.3L711,182.8L711.3,182.3L708.4,180.7L708.1,181.2L709.1,181.7L707.2,185.1C706.5,186.3 707,187.7 708.4,188.5C709.9,189.3 711.3,188.9 712.1,187.5L713.8,184.3L714.8,184.8L715.1,184.3L715,184.4Z" style="fill:rgb(8,71,128);fill-rule:nonzero;"/>
        <path d="M721.9,193.4C723.2,193.7 724.1,193.4 724.4,192.3C724.7,191.3 724.1,190.4 722.8,190.1C723.8,190.4 724.7,189.9 724.9,189.1C725.2,188.1 724.6,187.3 723.3,187L719.9,186.1L719.9,186.6L720.9,186.9L719.5,192.3L718.5,192L718.3,192.5L721.9,193.4ZM721.1,190.1L722.1,190.4C723.1,190.7 723.4,191.2 723.1,192C722.9,192.8 722.3,193 721.4,192.9L720.4,192.6L721,190.1L721.1,190.1ZM721.8,187.2L722.8,187.5C723.5,187.7 723.8,188.2 723.6,188.9C723.4,189.6 722.8,189.9 722.1,189.8L721.2,189.5L721.8,187.3L721.8,187.2Z" style="fill:rgb(8,71,128);fill-rule:nonzero;"/>
        <path d="M733.7,194.2L731.3,194.1L731.4,191.6L733.2,191.7L733.2,192.4L733.7,192.4L733.8,190.4L733.3,190.4L733.2,191.1L731.4,191L731.5,188.7L733.8,188.7L733.8,189.5L734.3,189.5L734.4,187.9L733.9,187.8L733.8,188.2L729.3,188L729.3,188.5L730.4,188.6L730.2,194.1L729.1,194.1L729.1,194.7L734.2,194.8L734.3,193.4L733.7,193.4L733.7,194.2Z" style="fill:rgb(8,71,128);fill-rule:nonzero;"/>
        <path d="M746,192.9L745.4,192.9C745.1,193.1 744.8,192.9 744.5,192.6L742.9,190.9C743.9,190.6 744.3,189.8 744.1,188.8C743.9,187.7 743.1,187.2 741.7,187.4L738.3,187.9L738.3,188.5L739.4,188.3L740.3,193.7L739.3,193.9L739.3,194.4L742.6,193.9L742.6,193.4L741.5,193.6L741.2,191.3L741.9,191.3L743.8,193.3C744.2,193.8 744.4,193.8 745,193.7L746,193.5L746,192.9ZM740.6,188.2L741.6,188C742.4,188 742.8,188.3 742.9,189C742.9,189.8 742.6,190.4 741.9,190.5L740.9,190.7L740.6,188.2Z" style="fill:rgb(8,71,128);fill-rule:nonzero;"/>
        <path d="M754.4,189.9L752.1,190.7L750.2,185.6L751.2,185.2L751,184.7L748,185.8L748.2,186.4L749.2,186L751.2,191.1L750.2,191.5L750.3,192.1L755.1,190.2L754.6,188.9L754.1,189L754.4,189.9Z" style="fill:rgb(8,71,128);fill-rule:nonzero;"/>
        <path d="M757.5,182L758.4,181.4L758.1,181L755.3,182.6L755.6,183.2L756.6,182.6L759.4,187.3L758.5,187.8L758.7,188.3L761.5,186.6L761.2,186.2L760.4,186.8L757.5,182Z" style="fill:rgb(8,71,128);fill-rule:nonzero;"/>
        <path d="M767.1,173.6L765,175.5L765.4,176L766.2,175.2L769,178.2L762.9,177.5L761.5,178.8L761.9,179.3L762.6,178.6L763.1,178.7L766.6,182.4L765.8,183.2L766.2,183.5L768.3,181.6L768,181.2L767.1,181.9L764.3,178.8L770.7,179.5L770.9,179.3L766.8,174.8L767.5,174L767.1,173.6Z" style="fill:rgb(8,71,128);fill-rule:nonzero;"/>
        <path d="M773.8,170.1C773.4,169.8 772.7,169.9 772.4,170.4C772.1,170.8 772.2,171.5 772.7,171.8C773.1,172.1 773.8,172.1 774.1,171.5C774.4,171.2 774.3,170.5 773.8,170.1Z" style="fill:rgb(8,71,128);fill-rule:nonzero;"/>
        <path d="M685.1,160.9L684.6,160L684.2,160.2L685.5,163.1L686,162.9L685.6,162L687.8,160.9L689.4,164.6L687.1,165.5L686.7,164.6L686.2,164.7L687.6,167.8L688,167.5L687.6,166.6L692.7,164.2L693.1,165.3L693.6,165L692.3,162.1L691.8,162.3L692.2,163.3L689.9,164.3L688.3,160.7L690.7,159.7L691.1,160.7L691.5,160.4L690.2,157.5L689.7,157.7L690.2,158.7L685.1,160.9Z" style="fill:rgb(8,71,128);fill-rule:nonzero;"/>
        <path d="M681.5,147L681.9,149.9L682.5,149.9L682.3,148.8L685.8,148.3C686.9,148.1 687.9,148.7 688,149.9C688.2,150.9 687.5,151.7 686.4,152L682.9,152.6L682.7,151.6L682.1,151.6L682.6,154.9L683.2,154.9L683,153.8L686.9,153.2C688.2,153 689.1,151.7 688.8,150.2C688.5,148.6 687.3,147.6 685.8,147.9L682.3,148.5L682.1,147.5L681.4,147.3L681.5,147Z" style="fill:rgb(8,71,128);fill-rule:nonzero;"/>
        <path d="M682.8,133.4L683,132.4L682.4,132.3L682.1,134.6L686.6,137.4L681.5,139.1L681.2,141.2L681.9,141.3L682,140.3L687.5,140.9L687.4,142L687.9,142L688.2,139.1L687.7,139.1L687.6,140.2L683.1,139.7L688.5,137.9L683.4,134.7L688.2,135.3L688.1,136.3L688.6,136.4L688.9,133.1L688.4,133.1L688.3,134.1L682.8,133.4Z" style="fill:rgb(8,71,128);fill-rule:nonzero;"/>
        <path d="M691.4,125.5C691.9,124.2 691.6,123.3 690.5,122.9C689.5,122.6 688.6,122.9 688.1,124.3C688.4,123.3 688.1,122.4 687.4,122.1C686.4,121.8 685.6,122.3 685.2,123.4L683.9,126.7L684.4,126.9L684.7,125.9L689.9,127.9L689.6,128.9L690.1,129.1L691.4,125.6L691.4,125.5ZM688,125.8L688.3,124.8C688.6,123.9 689.3,123.7 690,123.9C690.8,124.2 691,124.8 690.6,125.7L690.3,126.7L688,125.7L688,125.8ZM685.3,124.8L685.6,123.8C685.9,123.1 686.4,122.9 687.1,123.2C687.8,123.5 688.1,124.1 687.8,124.8L687.5,125.7L685.3,124.8Z" style="fill:rgb(8,71,128);fill-rule:nonzero;"/>
        <path d="M696.1,117.4C697.1,115.9 696.7,113.7 695.1,112.6C693.5,111.6 691.4,111.9 690.3,113.4C689.3,114.9 689.7,117.1 691.2,118.2C692.8,119.3 695,118.9 696,117.4L696.1,117.4ZM690.8,113.7C691.5,112.7 693.1,112.7 694.4,113.5C695.7,114.5 696.2,115.9 695.5,117C694.8,118 693.2,118 691.9,117C690.6,116.1 690.1,114.6 690.8,113.6L690.8,113.7Z" style="fill:rgb(8,71,128);fill-rule:nonzero;"/>
        <path d="M703.5,107.8L701.7,109.5L697.9,105.6L698.7,104.8L698.4,104.4L696,106.6L696.4,107.1L697.2,106.3L701,110.3L700.3,111L700.6,111.4L704.2,107.8L703.3,106.8L702.9,107.2L703.5,107.8Z" style="fill:rgb(8,71,128);fill-rule:nonzero;"/>
        <path d="M706.7,105.9L709.6,104.1C711.2,103.1 711.8,101.1 710.8,99.4C709.8,97.8 707.8,97.4 706.1,98.4L703.2,100.2L703.5,100.6L704.5,100L707.4,104.8L706.4,105.4L706.7,105.8L706.7,105.9ZM708.2,104.3L705.3,99.6L706.3,99C707.4,98.3 708.9,98.7 709.8,100.1C710.7,101.4 710.4,103 709.3,103.6L708.3,104.2L708.2,104.3Z" style="fill:rgb(8,71,128);fill-rule:nonzero;"/>
        <path d="M716.9,94L718.9,93.3L719.1,94.1L719.6,93.9L719.1,92.4L718.6,92.5L718.7,92.8L713.7,94.5L713.6,94.3L713.2,94.4L713.7,96L714.2,95.8L713.9,95.1L715.8,94.4L717.6,99.6L716.5,100.1L716.7,100.5L720.1,99.4L719.9,98.9L718.7,99.3L716.9,94Z" style="fill:rgb(8,71,128);fill-rule:nonzero;"/>
        <path d="M724,95.5L726.7,95.1L726.5,93.9L723.8,94.4L724,95.5Z" style="fill:rgb(8,71,128);fill-rule:nonzero;"/>
        <path d="M737.9,90.8L735,90.8L735,91.3L736,91.3L736,94.9C736,96 735.1,96.9 734,96.9C732.9,96.9 732.3,96 732.3,94.9L732.3,91.3L733.5,91.3L733.5,90.7L730.2,90.7L730.2,91.2L731.3,91.2L731.3,95.1C731.3,96.5 732.3,97.4 733.8,97.5C735.4,97.5 736.6,96.5 736.6,94.9L736.6,91.3L737.7,91.3L737.7,90.8L737.9,90.8Z" style="fill:rgb(8,71,128);fill-rule:nonzero;"/>
        <path d="M750.8,93.4L748.1,92.7L747.9,93.2L748.9,93.5L747.9,97.5L745.2,91.9L743.4,91.4L743.2,92L744.3,92.3L744.5,92.7L743.1,97.6L742,97.4L741.9,97.9L744.7,98.7L744.8,98.2L743.8,97.9L744.9,93.8L747.7,99.5L748.1,99.7L749.6,93.8L750.7,94L750.8,93.4Z" style="fill:rgb(8,71,128);fill-rule:nonzero;"/>
        <path d="M757.7,97.2L758.6,97.7L758.9,97.2L756,95.7L755.8,96.2L756.7,96.7L754.1,101.6L753.2,101.1L752.9,101.5L755.8,103.1L756,102.7L755.1,102.1L757.7,97.2Z" style="fill:rgb(8,71,128);fill-rule:nonzero;"/>
        <path d="M767.5,103.1L765.9,101.9L765.5,102.3L766.2,102.8L762.1,105.3L763.3,100.6L764,101.1L764.3,100.7L762.2,99L761.8,99.5L762.3,99.9L760.7,106.4L761,106.6L766.8,103.2L767.2,103.5L767.5,103.1Z" style="fill:rgb(8,71,128);fill-rule:nonzero;"/>
        <path d="M769.5,113.8L767.9,112L769.8,110.3L771,111.7L770.5,112.2L770.8,112.5L772.3,111.2L771.9,110.9L771.4,111.3L770.1,109.9L771.9,108.3L773.5,110.1L773,110.6L773.3,111L774.5,109.9L774.2,109.5L773.9,109.7L770.9,106.3L770.6,106.7L771.3,107.5L767.1,111.2L766.4,110.4L766,110.8L769.4,114.6L770.5,113.7L770,113.3L769.5,113.8Z" style="fill:rgb(8,71,128);fill-rule:nonzero;"/>
        <path d="M776.8,127.3L776.8,129.1C777.1,130.2 778.2,130.8 779.2,130.5C780.1,130.2 780.4,129.7 780.7,128.3C780.7,128 780.9,127.6 781,127.2C781,126.7 781.3,126.4 781.6,126.3C782.1,126.1 782.6,126.3 782.9,127.1C782.9,127.4 783.1,127.7 782.9,128.4L782.2,128.6L782.4,129.1L784,128.6L783.8,128.1L783.5,128.1L783.5,126.8C783.2,125.7 782.1,125.1 781.1,125.4C780.3,125.7 780,126.3 779.7,127.6C779.5,128.9 779.3,129.4 778.7,129.6C778.2,129.8 777.7,129.4 777.4,128.7C777.2,128.3 777.2,127.8 777.4,127.1L778.1,126.8L777.9,126.3L776.2,126.8L776.4,127.3L776.8,127.3Z" style="fill:rgb(8,71,128);fill-rule:nonzero;"/>
        <path d="M784.7,136.3L784.9,137.3L785.5,137.2L785,134L784.5,134.1L784.6,135.2L779.1,135.9L779,134.9L778.4,134.9L779,138.2L779.5,138.1L779.3,137L784.7,136.3Z" style="fill:rgb(8,71,128);fill-rule:nonzero;"/>
        <path d="M785.1,145.5L785.1,147.5L784.2,147.5L784.2,148.1L785.9,148.1L786,147.5L785.6,147.5L785.8,142.3L786.1,142.3L786.1,141.7L784.5,141.7L784.4,142.3L785.3,142.3L785.2,144.3L779.6,144.2L779.6,143L779.1,143L779,146.4L779.6,146.5L779.6,145.2L785.1,145.5Z" style="fill:rgb(8,71,128);fill-rule:nonzero;"/>
        <path d="M777.5,157.2L777.7,156.6L784.4,155.6L784.4,155.3L779,151.1L779.2,150.6L778.7,150.6L778.2,152.5L778.7,152.5L778.9,151.8L780.3,152.8L779.7,155.3L778.1,155.6L778.3,155L777.8,155L777.2,157.2L777.6,157.2L777.5,157.2ZM785.4,157.8C785.8,157.8 786.3,157.6 786.4,157.3C786.4,156.9 786.2,156.4 785.8,156.3C785.4,156.3 785,156.5 784.8,156.9C784.8,157.2 785.1,157.6 785.4,157.8ZM786.1,155.3C786.5,155.3 787,155.1 787.1,154.8C787.1,154.4 786.9,153.9 786.5,153.8C786.1,153.8 785.7,154 785.5,154.4C785.5,154.7 785.7,155.2 786.1,155.3ZM780.7,153.1L782.9,154.7L780.2,155.1L780.7,153L780.7,153.1Z" style="fill:rgb(8,71,128);fill-rule:nonzero;"/>
        <path d="M780,165.3L779.1,167.2L778.4,167L778.2,167.4L779.6,168.1L779.9,167.7L779.6,167.5L781.9,162.8L782.2,162.8L782.3,162.4L780.9,161.7L780.6,162.1L781.4,162.5L780.5,164.4L775.5,162.1L776,160.9L775.5,160.8L774,164L774.5,164.1L775,163L780,165.3Z" style="fill:rgb(8,71,128);fill-rule:nonzero;"/>
        <path d="M775.6,123.5L775.4,123.2C775.2,122.9 775.2,122.6 775.4,122.2L776.4,120C777,120.8 778,121 778.7,120.4C779.7,119.8 779.9,118.8 779.2,117.6L777.6,114.7L777.1,115L777.6,116L772.8,118.7L772.3,117.7L771.9,118L773.5,120.9L773.9,120.6L773.4,119.6L775.5,118.5L775.8,119.1L774.5,121.6C774.2,122.2 774.2,122.3 774.5,122.9L775,123.9L775.5,123.6L775.6,123.5ZM778.3,117L778.8,117.9C779.1,118.6 779,119.1 778.3,119.5C777.6,119.8 776.9,119.8 776.6,119.2L776.1,118.3L778.3,117Z" style="fill:rgb(8,71,128);fill-rule:nonzero;"/>
        <path d="M745.1,121.5C745.1,121.5 743.8,120.9 743.5,120.9C743.2,120.9 742.8,120.5 742.3,120.1C741.8,119.8 741.5,119.6 741.4,119.5C741.4,119.5 740.7,119.2 740.4,119.1L737.4,117.1C737.4,117.1 737.1,116.8 736.8,116.8C736.8,116.8 735.9,116.5 734.8,116.6C734.1,116.6 732.4,116.9 732.4,116.9C732.4,116.9 730.7,117.2 730.6,117.3C730.6,117.3 729.2,118.2 728.8,118.4L728.6,119.4C728.6,119.4 729.8,118.2 730.8,117.8C730.8,117.8 733.1,117.3 734.8,117.3C734.8,117.3 736.4,117.3 737.7,118.3L738.7,119.2L740.3,120.1C740.3,120.1 741.5,121.1 744.1,122.1C744.1,122.1 745.5,122.6 746.3,123.4C746.7,122.5 744.9,121.6 744.8,121.5L745.1,121.5Z" style="fill:rgb(8,71,128);fill-rule:nonzero;"/>
        <path d="M751.6,129.1L751.3,127.5L751.1,126.5L750.8,125.5C750.5,124.2 749.8,123.3 749.2,122.4C749.2,122.4 748.9,121.8 748,120.9C748,120.9 747.8,120.7 747.7,120.6C747.4,120.3 746.8,119.7 746.1,119.4C745.9,119.4 744.5,118.4 744.4,118.4L744.1,118.4C743.8,118.4 743.3,118.1 743.2,118.1C742.9,118.1 742.5,117.9 742.2,117.9L742.4,117.9L742,117.9C742,118.1 742,118.2 742.8,118.3C743,118.3 744.4,118.8 744.4,118.9C744.4,118.9 746.1,119.9 746.4,120.1C746.4,120.1 747.8,121.1 748.6,122.4C748.6,122.4 749.7,123.9 750.4,126.5L751.2,128.7L752.1,130.3L751.7,129.2L751.6,129.1Z" style="fill:rgb(8,71,128);fill-rule:nonzero;"/>
        <path d="M754.1,135.7C754.1,135.1 753.9,134.3 753.8,133.9C753.8,133.2 753.3,132.1 752.9,131.5C752.6,131 751.9,130.5 751.8,130.4L751.6,130.4L752.2,131.7C752.2,131.7 752.9,133.2 753.3,136.6L753,139.7L752.7,140.8L752.7,141.8C752.7,141.8 753.3,141.1 753.5,140.3C753.5,140.3 753.8,139 753.8,138.7C753.8,138.7 754.1,136.9 754,136.3C754.2,136.3 754,136 754,135.6L754.1,135.7Z" style="fill:rgb(8,71,128);fill-rule:nonzero;"/>
        <path d="M759.3,152.5C758.7,152 758.9,151.5 758.9,151.5L759.1,149.3C759.1,148.2 758.7,147.3 758.7,147.3C758.5,146.8 757.7,146.4 757.7,146.3L756.3,146.3C755,146.3 754.7,146.6 754.5,146.6L754.3,146.6L754.3,146.4C754.3,146.2 754.5,145.9 754.3,145.4C754,144.7 754,143.9 754,143.8L755,142.4C756.4,140 756.1,137 756.1,137C755.8,132 754.8,129.2 754.8,129.2C753.4,124.7 751.3,120.6 751.3,120.6C748.5,116.2 742.7,115.3 742.6,115.3C739.7,114.7 734.7,115 734.6,115C732,115.2 730.5,115.9 730.5,115.9C730.5,115.9 728.2,116.9 727.2,118.3C727.2,118.3 727,118.6 726.9,118.9C726.7,119.1 725.9,119.5 724.8,118.9C723.8,118.5 723.7,116.6 723.7,116.6C723.7,116.6 723.4,115.9 722.7,115.9C720.4,115.6 719,116.4 719,116.4C719,116.4 717.8,117.4 717.4,118.3C717.1,118.3 715.9,118.6 714.5,120.6L713.4,122L711.8,123.4C711.8,123.4 711.2,124.7 711.5,127C711.5,127.2 712,127.5 712.9,128C713.1,128.3 713.1,130.7 712.6,131.3C712.6,131.3 712.2,132.4 712.1,132.6L711.6,133.5C711.6,133.5 711.3,133.8 711.3,134.7L711.3,135.4C711.3,135.4 711.3,136.4 710.9,136.9L709.8,138.5L708.8,140C708.8,140 708.1,141.2 707.9,141.5L707.7,141.7C707.4,142 707,142.5 706.9,143.1C706.9,143.1 706.9,143.9 707.4,144.4C707.7,144.7 708.1,144.8 708.6,144.8L709.2,144.8L709.2,146.7C709.2,146.7 709,147.5 709.2,147.8C709.2,147.8 709.5,148.1 709.4,148.2L709.4,148.6L709.2,148.9C709.2,148.9 709,149.7 709.4,149.9L709.8,150.2C709.8,150.2 710.3,150.6 710.1,151.2L709.7,151.9C709.7,151.9 709.4,152.3 709.3,152.9C709.3,152.9 709,154.2 709.7,155.3C710.2,156.1 711.1,156.6 712.3,156.8L714.6,157.1L717.1,157.5C717.1,157.5 717.8,157.7 717.8,158.6L717.8,158.9C717.8,158.9 717.8,159.6 718.1,160.1L718.6,161.3L719.2,162.4L719.8,163.9C719.8,163.9 720.3,165.2 720.3,166.8L720.3,169.8L721.3,169.8L721.3,165.6C721.3,165.6 721.1,164 720.4,162.7L719.9,161.7L719.1,160.4C719.1,160.4 718.6,159.4 718.4,157.9L718.4,157.1C718.7,157.1 720,156.6 721.3,156C721.5,156 723.6,154.5 724.5,153.8C726.2,152.3 726.7,152 726.8,151.8C727,151.6 728.2,150.6 728.6,149.9L729.2,149.9C729.5,150.2 729.5,151.1 729.5,151.1L731.1,158.4L729,161.5L726.8,166.8L725,173.2L726.2,173.2L726.2,173.4C726.2,168.2 730.3,161 730.3,160.9L734.1,155.7L738.3,151L742,147.1C742,147.1 745,145 745.4,144.8L745.7,144.8C746,144.8 746,145.3 746,145.3C746.3,146 746.5,146.7 746.5,146.7C746.8,147.8 746.8,148.2 746.7,148.3L746.5,148.3C745.2,148.5 744.6,149.4 744.6,149.4C743.9,150.5 744.1,151.8 744.2,152.3L744,152.3C742.4,152.3 742,153.5 742,153.5C741,155.5 741.7,157.6 741.7,157.6C741.7,157.6 742,158.9 741.9,159.8C741.9,160 741.9,161.3 742.4,161.6C742.8,161.9 743.2,162 743.3,162C743.3,162 743.6,162.6 744.1,162.7C744.6,162.7 745.1,162.4 745.5,161.7C745.5,161.5 746.5,160.7 746.5,160.7C746.5,160.7 747,160.4 747.8,160.5L748.9,160.5C749.7,160.5 750.1,159.9 750.3,159.5C750.3,160.1 750.6,161.9 752,162.4L752,163C751.7,164.4 752.7,165.2 752.7,165.2C754.9,166.6 757.2,165.2 757.2,165.2C758.6,164.4 758.7,162.5 758.7,162.5C758.9,161 758.7,160.1 758.7,160.1C757.5,158.2 758.7,156.8 758.7,156.8C759.1,156.5 759.4,155.7 759.6,154.6C759.9,152.8 759.1,152.1 759.1,152.1L759.3,152.5ZM758,160.4C758.5,161.3 758.3,163.1 758.3,163.1C758,164.7 756.7,165.1 756.1,165.3C755,165.6 753.9,165.3 753.3,164.6C753,164.3 753,163.7 753,163.2C753.2,162.8 753.4,161.9 755.3,161.8C755.6,161.8 756.3,162.3 756.3,162.7C756.3,163.1 756.1,163 755.9,163L755.6,163C755.4,163 755.3,163 755.2,163.2L755.2,163.4C755.2,163.4 755.4,163.8 756.1,163.8L756.7,163.8C757.4,163.6 757.3,162.7 757.3,162.6C757.3,161.9 756.6,161.6 756.6,161.6L755.9,161.2L754.7,161.2C753.7,161.4 753.3,162.1 753.1,162.4C752.1,161.5 751.9,160.8 751.9,160.8L751.5,159.6C751.5,159.4 751.7,159.3 751.8,159L752.1,159C752.1,159 753.1,159.3 754,159.3L756.1,159.3C756.1,159.3 757.1,159.6 757.6,160L757.9,160.3L757.9,160.6L758,160.4ZM743,158.5C743,158.5 743,158.2 743.2,158.1C743.4,157.9 743.7,157.8 744.2,157.8C744.2,157.8 744.8,157.8 745,158.3C745,158.3 745.3,158.6 745.3,159C745.1,159 744.4,159 743.9,159.5C743.5,159.8 743.2,160.2 743.1,160.5C742.9,159.9 742.9,159.3 742.9,158.9L742.9,158.6L743,158.5ZM744.3,159.9C744.7,159.6 745.3,159.6 745.7,159.7L746.4,160.3C746.4,160.6 746.4,161.1 745.7,161.3C745.3,161.8 744.8,162.2 744.5,162.2C744.2,162.2 744.1,161.9 744.1,161.9C743.9,161.9 743.8,161.6 743.7,161.5C743.7,161.2 743.7,160.3 744.4,159.9L744.3,159.9ZM746.9,160L746.4,159.7L746.2,159.4L745.7,158.2C745.7,158.2 745,157.3 744.5,157.2L743.8,157.2C743.8,157.2 743.3,157.4 743.1,157.5L742.7,157.5C742.4,156.6 742.7,155.7 742.9,155.3C742.9,155.3 743.2,155 743.3,155C743.6,155 743.9,155 744.3,155.3L745.3,156.3L745.9,157.1C745.9,157.3 746.9,158.6 747.1,158.7L747.3,158.7C747.3,158.5 747.1,157.9 747,157.6C747,157.6 746.8,157.3 746.7,157.2C746.4,156.6 745.9,155.8 745.4,155.4C745.4,155.4 745.333,155.333 745.2,155.2C744.7,154.7 744.2,154.3 743.6,154.2C744.1,153.6 744.9,153.5 745.2,153.4L745.6,153.7L745.9,154L746.3,154.5L746.6,154.9L746.9,155.9L747.1,156.6L747.4,157.2L748.1,158.2C748.3,158.4 748.5,158.4 748.8,158.4L749.1,158.4C749.5,158.4 749.9,157.9 750.1,157.5C750.8,156 748.6,152.8 748.5,152.6C748.3,151.2 749.4,149.7 749.6,149.4L750.9,149.4L750.9,149.6L750.7,150.6C750.7,150.8 750.5,151.2 750.4,151.3C750.4,151.3 749.9,152 749.8,152.8L749.8,153.6C750.3,154.2 751.1,155.2 751.1,155.3C751.4,157.2 751.1,157.6 750.7,158.6C750.7,158.9 750.4,159.1 750.3,159.5L749.8,160C749.4,160.6 748.2,160.6 748.2,160.6L747.1,160.6L746.9,160ZM745.2,151.9C745.2,151.2 745.6,150.3 745.6,150.3C746.3,149.5 746.9,149.4 746.9,149.4C747.2,149.4 747.4,149.4 747.6,149.1L748.5,149.1C748.2,149.4 746.6,151.7 747.8,153.3C748.7,154.4 749.5,156.1 749.4,156.7C749.4,156.7 749.4,156.9 749.2,157C748.9,157.3 748.7,157.4 748.4,157.4C748.1,157.4 748,156.9 748,156.8L747.6,155.9L747.3,154.9C747.3,154.6 746.7,153.9 746.7,153.9L746.1,153.3L745.8,152.9L745.3,152.4L745.3,151.8L745.2,151.9ZM710.4,148.2C710.4,148.2 710.7,147.9 710.9,148C710.9,148 711.3,148.3 711.5,148.3L712.6,148.3L712.6,148L711.7,148C711.7,148 711.5,148 711.3,147.6C711.3,147.6 711.1,147.4 711,147.4L710.3,147.4L710.3,146.7C710.3,146.7 710.6,145.6 710.3,145.1L711,145.1L711.9,145.5C711.9,145.5 712.3,145.7 713.3,145.1C713.3,144.3 712.5,143.3 712.5,143.3L712.3,143.6C712.3,143.6 712.5,144.1 712.6,144.2C712.8,144.6 712.8,144.8 712.8,144.9C712.8,145 712.8,144.9 712.6,144.9C712.3,144.9 711.8,145.1 711.5,144.6C711.5,144.6 711,144.3 710.2,144.2L709,144.2C708.6,144.2 708.2,144.2 708.1,144C707.9,143.8 707.9,143.6 707.9,143.3L707.9,143C707.9,142.8 708.7,141.5 709.3,141L709.6,140.6L710.6,138.9L711.4,137.9C711.4,137.9 712.4,136.9 712.4,136.2L712.4,135.2C712.4,135.2 712.4,134.7 712.7,134.1L713.1,133.2L713.5,132L713.8,130.8L714,129.2L714,128.9C714.2,128.6 714.6,127.9 714.7,127.4C714.7,126.8 715.4,126.3 715.9,126C716.2,125.8 716.5,125.7 716.7,125.7C716.9,125.7 717,125.7 717,125.5C717,125.5 717.2,125.3 717,125.2C717,125.2 716.8,125 716.7,124.9C716.5,124.9 715.9,125.2 715.7,125.3C715.3,125.6 714.8,125.8 714.6,126.1C714.4,126.3 714.3,126.5 714.1,126.7C714.1,126.9 713.9,127 713.8,127.1C713.6,127.3 713.5,127.4 713.4,127.4C712.8,127.1 712.4,126.8 712.4,126.5L712.4,125.2C712.4,124.9 712.4,124.2 712.8,123.6C712.8,123.6 713.1,123.8 713.3,123.8L713.5,123.8C714.3,123.8 715.4,123.5 716,122.8C716.4,122.3 717.2,122.2 717.7,122.3C717.7,122.3 717.633,122.367 717.5,122.5C717.3,122.7 717,123.8 717.2,124.1L717.2,124.4C717.4,124.7 717.5,125.1 717.7,125.1L717.7,124.5C717.7,124.1 717.5,123.5 717.7,123.2C718.3,122.2 719.5,121.2 720.5,120.8C721.6,120.3 722.5,120.2 723,120.5C723.4,120.8 723.9,121.3 724.2,121.6C724.4,121.8 724.5,121.9 724.7,122.1C725,122.4 725.4,122.4 725.7,122.4C725.7,122.7 725.5,122.9 725.4,123.3L724.1,123.3C723.7,122.9 722.2,121.6 721.2,122C720.2,122.4 719.4,123 719.1,123.4C718.9,123.6 718.7,124 718.7,124.3C718.7,124.6 718.7,124.3 718.7,124.3C719,124.3 719.4,123.9 719.6,123.7C719.6,123.7 720.7,122.7 721.5,122.7C722.3,122.7 722.9,123.3 723.1,123.6C723.1,123.6 722.9,123.6 722.8,123.8C722.1,124.2 721.8,124.6 721.6,124.8C721.6,124.8 721.533,124.867 721.4,125C720.9,125.5 720.5,125.8 720.3,125.8C720.1,125.8 719.5,125.5 719.2,125.4C719,125.4 718.9,125.2 718.7,125.2C718.4,125.2 718.1,125.2 717.7,125.4C717.5,125.4 717.3,125.7 717.2,125.9C717.2,126.1 717.5,126.1 718.1,125.9L718.4,125.9C718.6,125.9 719.1,126.2 719.4,126.3C719.7,126.3 719.8,126.5 719.9,126.6L720.1,126.6C720.6,126.6 721.5,125.9 721.6,125.8C721.6,125.8 721.9,125.5 721.9,125.4C722.2,125 722.7,124.4 723.4,124C724,123.7 724.5,123.7 724.9,123.8C724.9,124.1 724.7,124.3 724.6,124.6L724.6,124.9C724.4,124.9 724.3,125.1 724.1,125.3C723.1,126.2 722,126.8 721.3,127.1C720.8,127.4 719.3,127.1 718.7,126.9C718.7,127.2 719.2,127.6 719.9,127.8L720.6,127.8C721,127.8 722.2,127.8 722.9,127.1L724.4,126C724.4,126.3 723.7,127.6 723.6,127.9C723.3,129.2 722.9,129.9 722.9,129.9L719.4,135.3C719,136.1 719,136.8 719.1,137.1C719.1,137.4 719.3,137.6 719.7,137.6L720.9,137.6C721.4,137.6 721.5,138 721.5,138L721.5,140.7C721.5,140.7 721.5,141.2 722.1,141.5L722.1,141.9C722.1,141.9 721.8,142.9 721.9,143C721.9,143.2 721.9,143.3 722.2,143.3C722.9,143.6 722.9,144.1 722.9,144.1C722.9,144.3 722.6,145.1 722.3,145.7C721.9,146.4 722,148.4 722,148.5C722.3,149.5 724.1,149.9 724.2,149.9C726,149.9 727.3,150.2 727.3,150.2L727.8,150.2C727.8,150.2 727.733,150.267 727.6,150.4L724.3,153.2C724.3,153.2 720.5,156.7 717.5,156.7L715.2,156.7C714.9,156.7 713.9,156.4 713,156.4C711,156.4 709.7,155.6 709.6,154.2C709.4,153.2 709.6,152.7 709.6,152.6C709.6,152.6 710.6,151.6 710.6,151.1C710.6,151.1 710.4,150.2 710.1,150C709.8,150 709.7,150 709.6,149.8C709.3,149.5 709.3,148.8 709.6,148.5L710.4,148.2ZM755.4,138.5C755.2,141.4 753.9,142.6 753.6,142.8C753.6,142.8 753.4,142.8 753.3,143C753,143.3 752.7,143.5 752.3,143.8L751.7,143.8C751.4,143.8 751.1,143.5 750.9,143.3C751.1,143 751.4,142.2 751.2,141.7C751,141.3 750.8,141 750.7,140.7C750.7,140.7 750.7,140.5 750.5,140.4L750.5,139.7C750.5,139.1 750.3,138.4 750.2,138.1C749.7,137.4 748.7,136.7 748.3,136.5L746.8,136.5C746.8,135.7 746,133.6 745.3,133C745.1,132.8 744.2,132.7 743.8,132.7C743.5,132.7 742.6,132.9 742.3,132.5L742.3,132.2L742.3,132C742.3,131.8 741.4,129.3 741.2,128.5C740.9,127.8 740.3,127.6 739.8,127.5C739.3,127.3 738.5,127.1 738.2,126.8C738,126.8 737.9,126.3 737.9,125.8C737.9,125.2 737.7,124.5 737.3,124.2C736.6,123.6 734,123.3 733.9,123.3L733.5,123.3L733.5,122.3L734.5,122.3C735,122.3 736.1,122 736.8,122.1C737.3,122.1 737.7,122.5 738.1,123C738.1,123 738.4,123.3 738.4,123.4C738.7,123.7 738.9,124.2 739.2,124.7C739.5,125.4 740,126.2 740.6,126.7C741.4,127.4 742.6,127.9 743.3,128.3C743.5,128.3 743.6,128.5 743.7,128.5C744,128.5 744,128.8 744,129.2C744,129.5 744,129.7 744.3,130.2C744.7,131.4 745.3,131.9 745.9,132.3C746.2,132.6 747,132.8 747.7,133.1C748.4,133.4 749.2,133.6 749.4,133.8C749.7,134 749.7,134.4 749.8,134.8C749.8,135.1 749.8,135.5 750.1,135.8C750.4,136.1 751,136.7 751.5,137.1C751.8,137.4 752.1,137.6 752.3,137.8C752.6,138.1 752.7,138.5 752.8,138.8C752.8,139.1 752.8,139.1 753,139.1C753.2,138.9 753,138.4 753,137.7C753,137.4 752.6,137.1 752,136.7C752,136.7 751.8,136.5 751.7,136.4C752,136.1 752.2,135.7 752.2,135.2C752.2,134.3 751.9,133.1 751.5,132.5C751.1,131.9 750.5,131.2 749.7,130.9C749.5,130.9 749.4,130.9 749.3,130.7C749,130.7 748.9,130.5 748.5,130.3C748.1,129.9 747.6,127.9 747.5,126.4C747.5,125.4 747,124.9 746.3,124.7C746,124.5 745.3,124.4 744.5,124.2C743.9,124 743.3,123.9 742.8,123.7C742.1,123.4 740.7,122.5 739.7,121.8C739.2,121.5 738.7,121.1 738.5,121C737.7,120.6 734.4,120 733.7,120.2C733.4,120.4 733.2,120.5 733.1,120.8C733.1,120.6 732.8,120.5 732.8,120.5C732.5,120.3 731.9,120.1 731.8,120.1L731.6,120.1C731.8,119.9 732,119.8 732.4,119.6C732.9,119.3 734,119.2 734.7,119.2C735.4,119.2 735.9,119 735.9,119C735.9,119 735.6,118.7 735,118.7L732.4,118.7C732,118.7 730.8,119.7 730.6,119.7L728.6,119.7C728.3,119.7 727.9,119.9 727.9,120C727.7,119.7 727.6,119.4 727.6,119C727.6,118.6 727.8,118.3 727.9,118.1C728.2,117.7 729.1,117.1 729.1,117.1C729.4,116.9 731.9,115.8 734.5,115.7C736.9,115.7 739.2,115.7 741.3,116C742.9,116.2 747.4,118.2 747.4,118.2C748.8,118.9 749.8,120.4 749.8,120.4C750.7,121.3 752.5,125.5 752.5,125.5C753.6,129.3 753.8,129.9 753.9,130.1C753.9,130.1 754.9,133.2 755,138.3L755.4,138.5ZM753.7,146L753.5,146.6L753.5,147.1C753.3,147.7 750.6,148.3 749.5,148.5L748.1,148.5L748.1,147.6C749.7,147.6 751,147 751,147C751,147 751.9,146.7 752.2,146.5C752.5,146.5 752.8,146.1 752.8,145.8L752.5,145.8C751.8,146.1 749.6,146.8 749.5,146.9L748.2,146.9C747.9,146.9 747.8,146.5 747.7,146.1C747.7,146.1 748,145.8 748.7,145.8L749,145.8C749,145.8 751.4,145.4 752.8,144.3L753.4,144.3L753.4,144.6C753.7,145.5 753.6,145.9 753.6,145.9L753.7,146ZM757.9,157.7C757.9,158.1 757.7,158.5 757.7,158.7C757.4,158.4 757,158.2 756.5,158.2L754.9,158.2C754.9,157.8 754.6,156.4 753.9,155.6C753.4,155.1 753,154.8 752.7,154.6C752.5,154.6 752.4,154.3 752.2,154.2C751.7,153.8 750.8,153.1 750.8,153.1C750.4,152.6 750.4,152.2 750.8,151.3C751.1,151 751.1,149.4 751.2,148.9C751.5,148.9 751.8,148.9 752.1,148.7C752.1,149 752.1,149.7 752.3,150.3C752.3,150.8 752.3,151.3 752.1,151.8C752.1,152.1 751.9,152.3 752.1,152.4C752.1,152.7 753.2,153.6 753.7,153.9C753.7,153.9 753.9,153.9 754,154.1C754.5,154.4 755.5,154.8 755.8,155.1C756.1,155.3 756.5,155.7 756.9,156.1C757.2,156.4 757.4,156.6 757.6,156.8C757.8,156.8 757.9,157.2 758.1,157.4C757.9,157.7 757.9,157.9 757.8,157.9L757.9,157.7ZM751.8,155.3L751.8,155.1L752.8,155.9L753.7,156.8C753.7,156.8 754.1,157.2 754.1,157.7L754.1,158.3L752.4,158.3C752.4,158.3 751.8,158.3 751.6,157.7L751.6,156.7L751.8,156.3L751.6,155.4L751.8,155.3ZM751.4,135.3C751.4,135.6 751.2,135.8 751.1,136C750.9,135.7 750.8,135.6 750.7,135.4C750.7,135.2 750.7,135.1 750.5,134.9C750.3,134.4 750.2,133.8 749.5,133.2C749,132.9 748.2,132.6 747.5,132.4C746.8,132.2 746.1,132 745.7,131.7C745.4,131.5 745.2,130.7 744.9,130C744.7,129.5 744.6,129 744.5,128.6C744.2,127.8 743.4,127.6 742.7,127.6L742.3,127.6C741.7,127.4 740.3,126.4 739.4,124.4C738.5,122.4 737.6,122.2 737.1,122.2L734,122.2C733.9,122.2 733.7,122.2 733.6,122C733.6,121.6 733.9,121 734.5,121C735.4,121 736.8,121 738.4,122C738.7,122.3 739.2,122.5 739.7,122.8C741.2,123.7 742.9,124.8 744.2,125.1C745.8,125.5 746.4,125.7 746.6,126.4C746.6,126.7 746.6,127 746.8,127.4C746.8,128.4 747.1,129.5 747.5,130.2C747.8,130.6 748.5,131.1 749.1,131.5C749.8,131.9 750.5,132.4 750.8,133C751.5,134 751.7,134.9 751.6,135.4L751.4,135.3ZM747,144.6C747,144.4 746.7,144.1 746.6,143.7C746.4,143.4 746,143 745.3,142.4C745.3,142.4 744.9,142.2 744.4,142.1L744.4,141.9C744.267,141.7 744.267,141.467 744.4,141.2L744.4,139.8L744.9,139.8C745.3,139.8 745.9,139.3 746.4,138.7C746.6,138.5 746.7,138 746.8,137.5C747.1,137.5 747.5,137.3 747.8,137.5C748.2,137.7 749.3,138.2 749.4,138.5C749.4,138.7 749.7,139.1 749.7,139.5L749.7,139.8L748,140L746.9,140.3L745.7,140.8L746,141.1C746,141.1 747.2,140.9 747.3,140.9C749,140.4 750.1,140.7 750.2,140.7L750.2,140.9C750.5,141.2 750.6,141.6 750.6,141.8C750.6,142 750.4,142.6 750.1,143.1C749.9,143.1 749.5,143.4 749.1,143.4L748.4,143.4L747.9,143.2L747.6,143.2C747.6,143.2 747.3,143.2 747.2,143C746.8,142.7 746.7,142.7 746.7,142.7C746.7,142.7 746.4,142.7 746.1,142.5L745.5,142.5L745.8,142.8L746.1,143L746.4,143L746.9,143.5L747.4,143.8L747.7,144L748.1,144.2L749.9,144.2C750.2,144.2 750.6,144.4 750.6,144.5L750.6,144.8C750.6,144.8 749.6,145.5 747.9,145.5L747.6,145.5L747.2,144.7L747,144.6ZM742.7,141.7C742.2,141.4 741.8,141.1 741.7,141C740.8,140.2 740.4,140.1 740.4,140L740.2,140C739.9,139.7 739.6,139.3 739.7,139C739.7,138.7 740,138.4 740.1,138.3L741.3,138.3C741.6,138.5 742.3,138.9 742.3,138.9C742.7,139.2 743,139.5 743.2,139.9C743.4,140.5 743.2,141.4 743,141.6L742.7,141.6L742.7,141.7ZM740.9,131.7C740.5,131.7 739.9,131.9 739.6,131.7C739.4,131.5 739.2,131.3 739,131C738.8,130.7 738.7,130.6 738.6,130.4C738.3,130.1 738,130 737.6,129.8C737.6,129.5 737.1,128.8 736.8,128.7C736.2,128.2 735.8,127.8 735.4,127.6C735.2,127.6 735.1,127.3 734.9,127.3C733.9,126.5 732.9,126.1 732.5,126C732.7,125.4 732.8,125 732.9,124.6L733.9,124.6C734.8,124.6 735.8,124.6 736.7,125.4C736.7,125.4 736.9,125.9 736.9,126.4C736.9,127 737.1,127.7 737.3,127.8C737.6,128 737.9,128.1 738.3,128.2C739,128.5 739.8,128.8 740.3,129.4C741,130.1 741,131.4 741,131.8L740.9,131.7ZM745.8,136.6C745.8,137 745.5,137.7 745.4,138.1C745.1,138.6 744.8,138.8 744.4,139L743.7,139C743.7,138.8 743.4,138.7 743.1,138.6C742.9,138.6 742.8,138.4 742.7,138.3C742.5,138.1 742.2,138 741.9,137.8C742.2,137.5 742.5,137 742.6,136.7C742.6,136.1 742.8,135.7 742.6,135.2L742.6,134.1C742.9,133.8 743.4,133.4 744.2,133.6C744.9,133.8 745.5,135.2 745.8,136L745.8,136.6ZM734.6,127.5C735.2,127.9 735.9,128.6 736.2,128.9C736.2,129.1 736.4,129.2 736.4,129.3C735.9,129.3 735.4,129.1 735.1,129.1C734.8,129.1 734.1,129.3 733.7,129.6C733.4,128.7 732.6,128 732.6,127.9C732.1,127.4 732.2,127.1 732.2,127.1C732.2,126.9 732.4,126.7 732.5,126.5C733,126.5 734,126.8 734.7,127.4L734.6,127.5ZM733.6,131.8L733.6,130.5C733.9,130.2 734.1,129.9 734.5,129.9C735.1,129.7 735.8,129.9 736.3,129.9C736.8,130.1 737.7,130.2 738.1,130.9C738.1,131.1 738.4,131.2 738.4,131.4C738.6,131.7 738.8,132.1 739.2,132.3C739.5,132.3 740.1,132.6 740.4,132.6L740.7,132.6C741,132.6 741.3,132.9 741.5,133C741.5,133.3 741.9,134.4 741.9,135.4C741.9,136.4 741.9,136.2 741.6,136.8L741.6,137C741.6,137.2 741.6,137.3 741.4,137.3L741.2,137.3C741,137.3 740.9,137.3 740.9,137.1C740.7,137.1 740.6,137.1 740.5,136.9L739.7,136.9C739.7,136.9 738.9,137.1 738.6,136.6C738.4,136.4 738.4,136.2 738.3,136C738.3,135.7 738.1,135.5 738,135.5L737.8,135.5C738.1,135 738.1,134.8 738.2,134.5L738.2,133.2C738,132.7 737.7,132.1 737.6,131.9C737.4,131.6 736.3,131.2 736,131.2C735.7,131.2 736,131.2 736,131.2C736,131.4 736.7,131.8 736.8,131.9C737.2,132.2 737.6,132.9 737.8,133.3C737.8,133.6 737.6,134.6 737.5,134.8C737.3,134.8 736.5,135.1 736.1,135C735.8,135 735.6,134.8 735.4,134.7C735.2,134.7 735.1,134.5 734.8,134.4C734.5,134.2 733.8,133.5 733.5,133.2C733.3,132.4 733.7,131.9 733.7,131.9L733.6,131.8ZM734.2,134.5C734.5,134.5 734.6,134.8 734.8,135C734.8,135.7 735,136.7 735.1,137.2C735.1,137.5 735.3,137.6 735.4,137.8C735.4,138.1 735.6,138.3 735.6,138.6L735.6,139.6L734.4,139.6C734.2,139.4 733.9,137 733.7,135.5L733.4,134.3C733.7,134.3 733.9,134.5 734.2,134.6L734.2,134.5ZM736,138.1L736,137.9C735.7,137.4 735.6,136.8 735.6,136.3L735.6,135.3C735.8,135.3 735.9,135.5 736.1,135.6C736.3,135.6 736.4,135.9 736.6,135.9L736.9,135.9C736.9,136.1 736.9,136.2 736.7,136.2L736.7,137.2C736.7,137.5 736.7,138.2 736.9,138.4C736.9,138.6 737.1,138.9 737.1,139.2L736.1,139.2C736.3,138.9 736.1,138.3 736.1,137.9L736,138.1ZM738.4,140.4C738.2,140.1 738.1,139.8 738.1,139.7L738.1,139.4C738.1,139.3 737.6,139 737.6,138.4L737.6,137.5C737.6,137.1 737.4,136.6 737.6,136.5C737.6,136.5 737.9,136.2 738,136.2C738.2,136.4 738.3,136.5 738.4,136.6L738.4,136.8C738.7,137.1 738.8,137.5 739.4,137.5C739.8,137.5 740.1,137.5 740.4,137.7C740.1,137.7 739.8,137.7 739.7,137.9C739.4,138.2 739.2,138.5 739.1,138.9L739.1,139.9C739.1,140.1 739.1,140.2 739.3,140.3C739.1,140.5 739,140.6 738.8,140.7C738.5,140.4 738.5,140.3 738.5,140.3L738.4,140.4ZM758.1,151.9L757.9,151.9C755.8,152.3 755.1,152.1 755,151.7C754.8,151.5 755,151.3 755,151.1C755,151.1 755.2,151.1 755.6,149.5C755.8,149.1 755.3,148.5 755.3,148.4C755.3,148.2 754.5,147.4 754.3,147.2C754.6,147.2 755.3,146.9 755.3,146.9C756.8,146.7 758.1,146.7 758.4,148.7C758.4,149 758.1,150.4 758.1,151.8L758.1,151.9ZM727,120.1L726.3,121.2C726.3,121.2 726.3,121.4 726.1,121.5L725.7,121.5C725.4,121.5 724.7,120.7 724.2,120.2C724.2,120.2 724.133,120.133 724,120C724,120 724.3,120 724.4,119.8L724.6,119.8C724.9,120.1 725.6,120.2 726.3,120.1L727.1,120.1L726.9,120.1L727,120.1ZM724,119.2C723.8,119.2 723.7,119.4 723.5,119.5C722.8,118.9 721.9,119.1 721.3,119.2C721.1,119.2 720.9,119.4 720.6,119.6C720.6,119.6 720.3,119.6 720.3,119.4C720,119 719.6,118.6 719.5,118.5C719.2,118.3 718.8,118.2 718.5,118.1L718.5,117.9L718.8,117.6C718.8,117.6 719.2,117 719.6,116.7C719.9,116.5 720.2,116.4 720.5,116.4L722.1,116.4C722.1,116.4 723.1,116.4 723.3,117.4L723.8,118.9L724.1,119.2L724,119.2ZM717.9,118.8C718.2,118.8 718.6,119 719,119.2C719.3,119.4 719.6,119.8 719.9,120C719.3,120.4 718.8,120.9 718.6,121C718.6,121 718.3,121.3 718.2,121.4C716.6,121.1 715.8,121.8 715.5,122.1C714.7,123 713.8,123 713.3,122.7C713.6,122.4 714,122.2 714.2,122C714.6,121.7 715,121.1 715.4,120.5C715.8,119.9 717.2,118.9 717.3,118.9L718,118.6L717.9,118.8ZM725.8,149.4L725.5,149.4C724.2,149.4 723.4,149.1 723,148.4C722.4,147.4 723,146.1 723,146L723.4,145C723.4,144.8 723.6,144.8 723.7,145L724,145C724.2,145 724.3,145 724.3,144.8C724.3,144.6 724.1,144.3 724.1,144.3C723.9,144.1 723.8,143.9 723.8,143.5C723.8,143.1 723.8,143.2 724.1,143C724.1,142.8 723.8,142.8 723.8,143C723.3,143.3 723,143 723,143C723,142.8 722.8,142.7 723,142.6C723,142.4 723.3,142.3 723.3,142.3C723.3,142.3 723.6,142 724.6,142.3L725.5,142.3C725.9,142.3 725.9,141.9 725.9,141.9C725.6,141.7 725.6,141.6 725.5,141.6C725.5,141.6 725.4,141.533 725.2,141.4C725,141.267 724.933,141.267 725,141.4C724.8,141.6 724.7,141.8 724,141.4C723.6,141 723.4,141 723.3,141L723,141C722.7,141 722.7,141 722.6,140.6L722.6,137.9L723.5,137.9C723.9,138.2 724.3,138.2 724.4,138.2C724.5,138.2 724.7,138.2 724.9,137.9C725.1,137.7 725.2,137.5 724.9,136.9C724.6,137.4 723.6,137.3 723.4,137.3C722.4,136.6 721.2,137 721.2,137C720.8,137 720.4,137 720.3,136.8C720,136.5 720.3,135.9 720.3,135.9L721.9,133.5C721.9,133.5 723.6,131.2 724.5,129.6C724.7,128 724.9,127.4 725,127.4C725.6,126.7 725.9,126.1 725.9,125.9C726.8,123 726.9,122.4 726.9,122.4C726.9,122 727.6,120.9 728.3,120.8L728.6,120.8C729,120.8 729.7,120.6 730,120.8L730.3,120.8C730.7,120.8 731.4,121 732.5,121.4C733.5,121.7 732.8,124.3 732.8,124.3L731.3,127.5C731.1,127.8 731.7,128.3 731.7,128.3C731.7,128.3 732.6,129.3 732.6,129.4C732.6,129.4 733.3,130 733.2,131.2C733.2,132 733.2,132.2 732.9,132.6C732.9,132.8 732.7,132.9 732.6,133C732.6,133.7 732.9,134.9 732.9,135C732.6,135.3 732,135.7 731.1,136C730.9,136 730.7,136.2 730.4,136.3C729.2,136.7 728.8,136.9 728.8,137.1C728.8,137.3 729.1,137.3 729.3,137.3L729.9,137.3C730.2,137.3 731.1,137 731.5,136.8C731.8,136.8 732.6,136.4 733.1,136.1C733.1,136.4 733.3,136.8 733.3,137.1C733.1,137.1 733,137.3 732.8,137.4C732.5,137.6 732.1,137.7 731.8,137.9C731.6,137.9 731.5,138.1 731.5,138.1C731.3,138.1 730.7,138.5 730.7,138.6C730.7,138.8 731,138.9 731.1,138.9C731.2,138.9 731.6,138.7 732.1,138.5C732.3,138.5 732.4,138.3 732.5,138.3C732.8,138.3 733.1,138 733.3,138C733.5,140.1 733.6,140.4 733.6,140.5C733.8,140.7 734.9,140.7 737.1,140.5C738.1,140.9 738.2,141.6 738.2,142L738,142.6C737.7,143.4 736.4,146.9 736.4,146.9L736.4,147.2C736.2,147.6 736,148.2 734.9,148.4C733.9,148.8 733.2,149 732,149.2C729.9,149.6 728.5,149.7 728.4,149.7L726.1,149.9L725.8,149.4ZM730.6,150L730.6,149.8C730.6,149.8 731.1,149.5 731.6,149.5C736.1,148.7 736.8,147.5 737,147.1C737.8,145.7 739.2,141.7 739.2,141.6C739.2,141.6 739.7,141.1 740.1,140.9C740.5,140.7 741,141.2 741.1,141.2C741.3,141.2 742.2,142.1 742.2,142.1C742.5,142.4 743.3,142.5 743.3,142.5C743.6,142.5 744.3,142.8 744.6,142.9L744.9,142.9C744.9,142.9 745.6,143.3 745.6,143.4L745.6,143.6L745.6,143.9L745.3,144.2L741.5,147C738.5,149.3 734.5,154.3 734.5,154.4L732.3,157.2L732,157.6L731.7,156L730.7,151.7C730.4,150.4 730.2,150.1 730.2,149.9L730.6,150ZM758.6,156.5C758.3,156.3 758.1,156.1 757.7,155.6C756.9,154.8 756.1,154.2 755.3,153.8C755.3,153.8 755.1,153.8 755,153.6C754.1,153.2 753.4,152.7 753.1,152.1L753.1,151.3C753.3,151 753.4,150.6 753.3,150C753.1,149.3 753,148.7 752.9,148.4C753.2,148.2 753.4,148.1 753.5,148.1C753.5,148.1 753.8,147.9 753.8,147.8C753.8,148 754.1,148.2 754.1,148.3C754.1,148.3 754.8,148.9 754.9,149.3C754.9,149.5 754.2,151.1 754.2,151.1C754,151.7 754,152.1 754.2,152.4C754.4,152.6 754.5,152.6 754.9,152.6L758.7,152.9C759.4,153.9 759.4,154.8 759.3,155.2C759.3,155.2 759.3,155.4 758.8,156.1C758.6,156.1 758.5,156.4 758.5,156.5L758.6,156.5Z" style="fill:rgb(8,71,128);fill-rule:nonzero;"/>
        <path d="M714.2,137.2L714.2,136L715.7,136L715.9,136C715.9,136 716.1,136 716.2,136.2L716.4,136.2C716.6,136.2 716.9,136.4 717,136.5C717.2,136.5 717.4,137 717.5,137.1C717.5,137.1 717.7,137.4 717.8,137.4L718.1,137.6L718.4,137.6C718.4,137.4 718.1,137 717.8,136.6C717.5,136.2 717.4,136 717.4,135.9C717.4,135.9 717.2,135.7 717.1,135.7L716.5,135.7C716.4,135.7 716.3,135.7 716.2,135.5C716.2,135.5 715.9,135.5 715.9,135.3L715.7,135.3C715.4,135.3 715.1,135 714.9,135L713.3,135C713.3,135 713.1,135.2 713.1,135.3L713.1,135.6L713.1,135.8L713.1,137.6C713.1,137.8 712.9,137.9 712.8,138C712.6,138.2 712.6,138.3 712.6,138.3C712.8,138.3 713.3,138.3 713.4,138.1C713.6,138.1 713.8,137.4 713.8,137.1L714.2,137.2Z" style="fill:rgb(8,71,128);fill-rule:nonzero;"/>
        <path d="M717.1,137.9C717.1,137.7 716.9,137.6 716.8,137.6L716.6,137.6C716.4,137.6 716.6,137.6 716.6,137.6L716.4,137.6C716.2,137.6 716.1,137.4 716.1,137.4L715.8,137.4L715.8,137.2L715.3,137.2L715,137.4L715,137.7L715.3,137.7L715.3,138.6C715.3,138.6 715.5,138.9 715.6,139L715.9,139.2L715.9,138.5C715.9,138.3 715.9,138.2 716.1,138L716.3,138C716.3,138 716.7,138.3 716.8,138.4C716.8,138.6 717,138.6 717,138.7C717,139 716.8,139 716.7,139C716.7,139 716.4,139.2 716.3,139.2L715.5,139.2C715.5,139.2 715.3,139.2 715.3,139.4L715.3,139.6L716.4,139.6C716.4,139.6 716.7,139.6 716.8,139.4C717,139.4 717.5,139.1 717.6,139C717.6,139 717.6,138.8 717.8,138.8L717.8,138.5C717.8,138.2 717.8,138 717.6,138L717.1,137.9Z" style="fill:rgb(8,71,128);fill-rule:nonzero;"/>
        <path d="M725.9,128.9C726.2,128.9 727,129.1 727.4,129.2C727.7,129.2 727.9,129.4 728,129.5C728,129.5 728.5,129.9 728.8,130.2C728.8,130.2 729,130.4 729.1,130.4C729.1,130.4 729.3,130.4 729.3,130.7L729.7,130.7C729.9,130.7 730,130.7 730,130.5L730,130.1C730,130.1 729.8,130.1 729.7,129.8C729.5,129.6 729.4,129.5 729.2,129.3C729.2,129.3 729,129.3 729,129.1C728.7,128.8 728.5,128.7 728.3,128.6C728,128.4 727.3,128 726.3,128C725.3,128 725.5,128.3 725.4,128.4L725.4,128.7C725.6,128.7 725.8,128.9 726,128.7L725.9,128.9Z" style="fill:rgb(8,71,128);fill-rule:nonzero;"/>
        <path d="M729.4,132.1L729.8,132.1L730,131.9C730,131.9 729,131.7 728.8,131.9L728.4,131.9C728.1,131.9 727.9,131.9 727.8,132.1L727.5,132.1C727.2,132.1 727.1,132.3 727.1,132.4C727.1,132.5 727.1,132.4 727.1,132.4L727.3,132.4C727.5,132.4 727.7,132.4 728,132.2L729.4,132.2L729.4,132.1Z" style="fill:rgb(8,71,128);fill-rule:nonzero;"/>
        <path d="M727.2,130.3C727.5,130.3 728,130.7 728.1,130.9C728.1,130.9 727.8,131.1 727.6,131.2C727.2,131.4 727.1,131.5 727,131.5C727.2,131.5 728,131.2 728.2,131.2C728.4,131.2 728.5,130.9 728.5,130.9L728.5,130.6C728.5,130.6 728.3,130.4 728.2,130.3C728,130.1 727.2,129.6 727,129.6C727,129.6 725.6,129.3 725.4,129.6C725.2,129.6 725.4,130.1 725.4,130.1L725.8,130.1L725.8,130.5C725.8,130.8 725.8,130.8 726,131C726,131 726,131.2 726.3,131.2C726.5,131.2 726.5,130.9 726.5,130.8L726.5,130.5C726.5,130.3 726.5,130.2 726.7,130.1C726.7,130.4 726.7,130.4 727,130.4L727.2,130.3Z" style="fill:rgb(8,71,128);fill-rule:nonzero;"/>
    </g>
</svg>
