<?xml version="1.0" encoding="UTF-8" standalone="no"?>
<!DOCTYPE svg PUBLIC "-//W3C//DTD SVG 1.1//EN" "http://www.w3.org/Graphics/SVG/1.1/DTD/svg11.dtd">
<svg width="100%" height="100%" viewBox="0 0 924 731" version="1.1" xmlns="http://www.w3.org/2000/svg" xmlns:xlink="http://www.w3.org/1999/xlink" xml:space="preserve" xmlns:serif="http://www.serif.com/" style="fill-rule:evenodd;clip-rule:evenodd;stroke-linejoin:round;stroke-miterlimit:2;">
    <g transform="matrix(1,0,0,1,-476.396,-69)">
        <g transform="matrix(1,0,0,1,36.0185,-98.5)">
            <path d="M1033.98,897.5C1002.52,895.865 976.429,653.81 970,600C968.023,583.451 937.454,595.093 930,610C921.667,626.667 936.667,703.333 920,720C903.333,736.667 866.667,758.333 850,750C835.093,742.546 844.907,707.454 830,700C813.333,691.667 806.667,701.667 790,710C775.093,717.454 774.907,762.546 760,770C750.41,774.795 707.707,784.026 670,770C642.178,759.651 624.219,739.457 620,720C615.005,696.965 696.667,606.667 680,590C663.333,573.333 648.095,598.333 620,620C606.802,630.178 581.098,657.308 550,660C531.436,661.607 466.667,666.667 450,650C433.333,633.333 441.667,566.667 450,550C457.454,535.093 481.667,548.333 490,540C498.333,531.667 498.333,518.333 490,510C481.667,501.667 467.454,494.907 460,480C451.667,463.333 451.667,426.667 460,410C467.454,395.093 501.667,378.333 510,370C518.333,361.667 515.093,327.454 530,320C546.667,311.667 573.333,326.667 590,310C606.667,293.333 591.667,266.667 600,250C607.454,235.093 642.546,264.907 650,250C658.333,233.333 653.333,216.667 670,200C686.667,183.333 743.333,163.333 760,180C776.667,196.667 763.333,193.333 780,210C796.667,226.667 813.333,196.667 830,180C846.667,163.333 923.333,163.333 940,180C956.667,196.667 953.333,236.667 970,220C986.667,203.333 983.333,196.667 1000,180C1016.67,163.333 1103.33,183.333 1120,200C1136.67,216.667 1143.33,233.333 1160,250C1176.67,266.667 1213.33,233.333 1230,250C1246.67,266.667 1253.33,303.333 1270,320C1286.67,336.667 1323.33,343.333 1340,360C1356.67,376.667 1336.67,393.333 1320,410C1303.33,426.667 1366.67,473.333 1350,490C1333.33,506.667 1293.33,503.333 1310,520C1326.67,536.667 1343.33,533.333 1360,550C1376.67,566.667 1336.67,613.333 1320,630C1303.33,646.667 1246.67,621.667 1230,640C1213.33,658.333 1276.67,741.667 1260,760C1252.92,767.784 1217.82,775.768 1190,780C1152.29,785.736 1128.16,809.564 1110,800C1092.8,790.944 1098.33,700 1090,690C1081.67,680 1075.52,724.275 1070,740C1055.95,780 1070.17,899.381 1033.98,897.5ZM1033.98,738.5C1050.34,750.367 1048.98,651.833 1053.98,618.5C1057.3,596.387 1092.72,578.737 1103.98,588.5C1118.27,600.881 1126.24,631.23 1143.98,628.5C1165.65,625.167 1157.29,582.315 1173.98,568.5C1191.55,553.962 1199.79,539.33 1193.98,528.5C1185.95,513.508 1176.58,515.091 1183.98,488.5C1189.86,467.381 1196.12,428.5 1183.98,418.5C1177.86,413.457 1122.32,416.833 1113.98,408.5C1105.65,400.167 1121.36,375.405 1113.98,358.5C1109.27,347.699 1099.46,332.31 1083.98,338.5C1067.32,345.167 1062.55,365.167 1043.98,358.5C1028.3,352.869 1030.65,318.5 1013.98,318.5C997.315,318.5 970.648,348.5 953.981,348.5C937.315,348.5 939.759,304.951 903.981,308.5C888.349,310.051 866.331,343.738 843.981,348.5C827.681,351.973 810.648,325.167 793.981,328.5C783.45,330.606 781.545,355.643 763.981,358.5C747.531,361.176 715.41,343.738 703.981,368.5C698.394,380.606 699.64,403.979 683.981,418.5C667.758,433.544 647.315,431.833 633.981,448.5C620.648,465.167 620.648,510.167 633.981,518.5C647.315,526.833 698.333,500 720,510C741.667,520 758.952,558.843 753.981,578.5C749.102,597.797 730.028,639.385 743.981,648.5C775.515,669.099 779.867,608.563 813.981,608.5C844.351,608.443 843.777,633.21 853.981,628.5C872.391,620.003 862.056,564.898 873.981,548.5C887.315,530.167 908.981,523.5 933.981,518.5C958.981,513.5 982.791,522.548 993.981,538.5C1006.16,555.866 1010.26,585.226 1013.98,608.5C1020.65,650.167 1011.65,722.3 1033.98,738.5Z"/>
        </g>
    </g>
</svg>
