<?xml version="1.0" encoding="UTF-8" standalone="no"?>
<!DOCTYPE svg PUBLIC "-//W3C//DTD SVG 1.1//EN" "http://www.w3.org/Graphics/SVG/1.1/DTD/svg11.dtd">
<svg width="100%" height="100%" viewBox="0 0 924 616" version="1.1" xmlns="http://www.w3.org/2000/svg" xmlns:xlink="http://www.w3.org/1999/xlink" xml:space="preserve" xmlns:serif="http://www.serif.com/" style="fill-rule:evenodd;clip-rule:evenodd;stroke-linejoin:round;stroke-miterlimit:2;">
    <g transform="matrix(1,0,0,1,-538.198,-284.5)">
        <g transform="matrix(0.645186,0,0,0.645186,413.612,176.431)">
            <path d="M1033.98,897.5C1002.52,895.865 976.429,653.81 970,600C968.023,583.451 937.454,595.093 930,610C921.667,626.667 936.667,703.333 920,720C903.333,736.667 866.667,758.333 850,750C835.093,742.546 844.907,707.454 830,700C813.333,691.667 806.667,701.667 790,710C775.093,717.454 774.907,762.546 760,770C750.41,774.795 707.707,784.026 670,770C642.178,759.651 624.219,739.457 620,720C615.005,696.965 696.667,606.667 680,590C663.333,573.333 657.614,597.201 623.981,608.5C599.355,616.773 574.082,583.408 543.981,588.5C523.887,591.899 495.756,612.774 473.981,588.5C443.049,554.016 484.696,540.167 483.981,518.5C483.593,506.721 467.454,494.907 460,480C451.667,463.333 451.667,426.667 460,410C467.454,395.093 501.667,378.333 510,370C518.333,361.667 515.093,327.454 530,320C546.667,311.667 573.333,326.667 590,310C606.667,293.333 591.667,266.667 600,250C607.454,235.093 642.546,264.907 650,250C658.333,233.333 653.333,216.667 670,200C686.667,183.333 743.333,163.333 760,180C776.667,196.667 763.333,193.333 780,210C796.667,226.667 813.333,196.667 830,180C846.667,163.333 923.333,163.333 940,180C956.667,196.667 953.333,236.667 970,220C986.667,203.333 983.333,196.667 1000,180C1016.67,163.333 1103.33,183.333 1120,200C1136.67,216.667 1143.33,233.333 1160,250C1176.67,266.667 1213.33,233.333 1230,250C1246.67,266.667 1253.33,303.333 1270,320C1286.67,336.667 1323.33,343.333 1340,360C1356.67,376.667 1336.67,393.333 1320,410C1303.33,426.667 1366.67,473.333 1350,490C1333.33,506.667 1293.33,503.333 1310,520C1326.67,536.667 1343.33,533.333 1360,550C1376.67,566.667 1336.67,613.333 1320,630C1303.33,646.667 1246.67,621.667 1230,640C1213.33,658.333 1276.67,741.667 1260,760C1252.92,767.784 1217.82,775.768 1190,780C1152.29,785.736 1128.16,809.564 1110,800C1092.8,790.944 1098.33,700 1090,690C1081.67,680 1075.52,724.275 1070,740C1055.95,780 1070.17,899.381 1033.98,897.5ZM1033.98,718.5C1050.34,730.367 1048.98,631.833 1053.98,598.5C1057.3,576.387 1092.72,568.737 1103.98,578.5C1118.27,590.881 1136.24,621.23 1153.98,618.5C1175.65,615.167 1157.29,582.315 1173.98,568.5C1191.55,553.962 1199.79,539.33 1193.98,528.5C1185.95,513.508 1176.58,515.091 1183.98,488.5C1189.86,467.381 1196.12,428.5 1183.98,418.5C1177.86,413.457 1122.32,416.833 1113.98,408.5C1105.65,400.167 1121.36,375.405 1113.98,358.5C1109.27,347.699 1099.46,332.31 1083.98,338.5C1067.32,345.167 1062.55,365.167 1043.98,358.5C1028.3,352.869 1030.65,318.5 1013.98,318.5C997.315,318.5 970.648,348.5 953.981,348.5C937.315,348.5 939.759,304.951 903.981,308.5C888.349,310.051 866.331,343.738 843.981,348.5C827.681,351.973 810.648,325.167 793.981,328.5C783.45,330.606 781.545,355.643 763.981,358.5C747.531,361.176 715.41,343.738 703.981,368.5C698.394,380.606 699.64,403.979 683.981,418.5C667.758,433.544 647.315,431.833 633.981,448.5C620.648,465.167 620.648,500.167 633.981,508.5C647.315,516.833 702.315,488.5 723.981,498.5C745.648,508.5 758.952,528.843 753.981,548.5C749.102,567.797 739.314,600.585 753.981,608.5C779.8,622.433 779.867,588.563 813.981,588.5C844.351,588.443 835.206,613.21 853.981,608.5C873.648,603.567 862.056,544.898 873.981,528.5C887.315,510.167 908.981,503.5 933.981,498.5C958.981,493.5 982.791,502.548 993.981,518.5C1006.16,535.866 1010.26,555.226 1013.98,578.5C1020.65,620.167 1011.65,702.3 1033.98,718.5Z" style="fill:rgb(2,0,205);"/>
        </g>
        <g transform="matrix(1.37884,0,0,1.37884,-102.979,-335.545)">
            <g transform="matrix(83.7092,0,0,83.7092,457.143,895.238)">
                <path d="M0.094,-0L0.094,-0.7L0.4,-0.7C0.476,-0.7 0.543,-0.685 0.6,-0.656C0.657,-0.627 0.702,-0.586 0.734,-0.534C0.766,-0.482 0.782,-0.421 0.782,-0.35C0.782,-0.28 0.766,-0.219 0.734,-0.166C0.702,-0.114 0.657,-0.073 0.6,-0.044C0.543,-0.015 0.476,-0 0.4,-0L0.094,-0ZM0.224,-0.11L0.394,-0.11C0.446,-0.11 0.491,-0.12 0.53,-0.14C0.569,-0.16 0.598,-0.188 0.619,-0.224C0.64,-0.26 0.651,-0.302 0.651,-0.35C0.651,-0.399 0.64,-0.441 0.619,-0.476C0.598,-0.512 0.569,-0.54 0.53,-0.56C0.491,-0.58 0.446,-0.59 0.394,-0.59L0.224,-0.59L0.224,-0.11Z" style="fill:rgb(2,0,205);fill-rule:nonzero;"/>
            </g>
            <g transform="matrix(83.7092,0,0,83.7092,526.287,895.238)">
                <rect x="0.094" y="-0.7" width="0.13" height="0.7" style="fill:rgb(2,0,205);fill-rule:nonzero;"/>
            </g>
            <g transform="matrix(83.7092,0,0,83.7092,551.734,895.238)">
                <path d="M0.301,-0L-0.005,-0.7L0.136,-0.7L0.409,-0.067L0.328,-0.067L0.604,-0.7L0.734,-0.7L0.429,-0L0.301,-0Z" style="fill:rgb(2,0,205);fill-rule:nonzero;"/>
            </g>
            <g transform="matrix(83.7092,0,0,83.7092,611.503,895.238)">
                <path d="M0.094,-0L0.094,-0.7L0.605,-0.7L0.605,-0.591L0.224,-0.591L0.224,-0.109L0.619,-0.109L0.619,-0L0.094,-0ZM0.214,-0.302L0.214,-0.409L0.562,-0.409L0.562,-0.302L0.214,-0.302Z" style="fill:rgb(2,0,205);fill-rule:nonzero;"/>
            </g>
            <g transform="matrix(83.7092,0,0,83.7092,667.588,895.238)">
                <path d="M0.094,-0L0.094,-0.7L0.381,-0.7C0.474,-0.7 0.547,-0.678 0.6,-0.634C0.653,-0.59 0.68,-0.529 0.68,-0.451C0.68,-0.4 0.668,-0.355 0.644,-0.318C0.62,-0.281 0.586,-0.253 0.541,-0.233C0.497,-0.214 0.444,-0.204 0.382,-0.204L0.166,-0.204L0.224,-0.263L0.224,-0L0.094,-0ZM0.552,-0L0.375,-0.254L0.514,-0.254L0.692,-0L0.552,-0ZM0.224,-0.249L0.166,-0.311L0.376,-0.311C0.433,-0.311 0.476,-0.323 0.505,-0.348C0.534,-0.373 0.549,-0.407 0.549,-0.451C0.549,-0.496 0.534,-0.53 0.505,-0.554C0.476,-0.578 0.433,-0.59 0.376,-0.59L0.166,-0.59L0.224,-0.654L0.224,-0.249Z" style="fill:rgb(2,0,205);fill-rule:nonzero;"/>
            </g>
            <g transform="matrix(83.7092,0,0,83.7092,728.779,895.238)">
                <path d="M0.311,0.01C0.256,0.01 0.204,0.002 0.154,-0.013C0.104,-0.029 0.064,-0.049 0.035,-0.074L0.08,-0.175C0.108,-0.153 0.143,-0.135 0.184,-0.12C0.225,-0.105 0.268,-0.098 0.311,-0.098C0.348,-0.098 0.377,-0.102 0.4,-0.11C0.423,-0.118 0.439,-0.129 0.45,-0.142C0.461,-0.156 0.466,-0.172 0.466,-0.189C0.466,-0.21 0.458,-0.227 0.443,-0.24C0.428,-0.253 0.408,-0.264 0.383,-0.271C0.359,-0.279 0.332,-0.286 0.302,-0.293C0.273,-0.3 0.243,-0.307 0.213,-0.316C0.184,-0.325 0.157,-0.337 0.132,-0.351C0.108,-0.366 0.088,-0.385 0.073,-0.409C0.058,-0.433 0.05,-0.464 0.05,-0.501C0.05,-0.539 0.06,-0.574 0.08,-0.605C0.101,-0.637 0.132,-0.662 0.173,-0.681C0.215,-0.7 0.268,-0.71 0.332,-0.71C0.374,-0.71 0.416,-0.705 0.457,-0.694C0.498,-0.683 0.534,-0.668 0.565,-0.648L0.524,-0.547C0.493,-0.566 0.46,-0.579 0.427,-0.588C0.394,-0.597 0.362,-0.602 0.331,-0.602C0.295,-0.602 0.266,-0.598 0.243,-0.589C0.221,-0.58 0.205,-0.569 0.194,-0.555C0.184,-0.541 0.179,-0.525 0.179,-0.507C0.179,-0.486 0.186,-0.468 0.201,-0.455C0.216,-0.442 0.236,-0.432 0.26,-0.425C0.285,-0.418 0.312,-0.41 0.342,-0.403C0.372,-0.396 0.402,-0.389 0.431,-0.38C0.461,-0.371 0.488,-0.36 0.512,-0.346C0.537,-0.332 0.556,-0.313 0.571,-0.289C0.586,-0.265 0.594,-0.235 0.594,-0.198C0.594,-0.161 0.584,-0.126 0.563,-0.094C0.543,-0.063 0.512,-0.037 0.47,-0.018C0.428,0.001 0.375,0.01 0.311,0.01Z" style="fill:rgb(2,0,205);fill-rule:nonzero;"/>
            </g>
            <g transform="matrix(83.7092,0,0,83.7092,781.432,895.238)">
                <path d="M0.094,-0L0.094,-0.7L0.605,-0.7L0.605,-0.591L0.224,-0.591L0.224,-0.109L0.619,-0.109L0.619,-0L0.094,-0ZM0.214,-0.302L0.214,-0.409L0.562,-0.409L0.562,-0.302L0.214,-0.302Z" style="fill:rgb(2,0,205);fill-rule:nonzero;"/>
            </g>
            <g transform="matrix(83.7092,0,0,83.7092,837.517,895.238)">
            </g>
            <g transform="matrix(83.7092,0,0,83.7092,860.621,895.238)">
                <path d="M0.094,-0L0.094,-0.7L0.422,-0.7C0.506,-0.7 0.57,-0.683 0.614,-0.65C0.658,-0.617 0.68,-0.573 0.68,-0.518C0.68,-0.481 0.671,-0.449 0.654,-0.422C0.637,-0.396 0.613,-0.376 0.584,-0.361C0.555,-0.347 0.524,-0.34 0.49,-0.34L0.508,-0.376C0.547,-0.376 0.583,-0.369 0.614,-0.354C0.645,-0.34 0.67,-0.319 0.688,-0.292C0.707,-0.265 0.716,-0.231 0.716,-0.19C0.716,-0.13 0.693,-0.083 0.647,-0.05C0.601,-0.017 0.533,-0 0.442,-0L0.094,-0ZM0.224,-0.102L0.434,-0.102C0.483,-0.102 0.52,-0.11 0.546,-0.126C0.572,-0.142 0.585,-0.168 0.585,-0.203C0.585,-0.238 0.572,-0.263 0.546,-0.279C0.52,-0.296 0.483,-0.304 0.434,-0.304L0.214,-0.304L0.214,-0.405L0.408,-0.405C0.453,-0.405 0.488,-0.413 0.512,-0.429C0.537,-0.445 0.549,-0.469 0.549,-0.501C0.549,-0.534 0.537,-0.558 0.512,-0.574C0.488,-0.59 0.453,-0.598 0.408,-0.598L0.224,-0.598L0.224,-0.102Z" style="fill:rgb(2,0,205);fill-rule:nonzero;"/>
            </g>
            <g transform="matrix(83.7092,0,0,83.7092,924.324,895.238)">
                <path d="M0.094,-0L0.094,-0.7L0.381,-0.7C0.474,-0.7 0.547,-0.678 0.6,-0.634C0.653,-0.59 0.68,-0.529 0.68,-0.451C0.68,-0.4 0.668,-0.355 0.644,-0.318C0.62,-0.281 0.586,-0.253 0.541,-0.233C0.497,-0.214 0.444,-0.204 0.382,-0.204L0.166,-0.204L0.224,-0.263L0.224,-0L0.094,-0ZM0.552,-0L0.375,-0.254L0.514,-0.254L0.692,-0L0.552,-0ZM0.224,-0.249L0.166,-0.311L0.376,-0.311C0.433,-0.311 0.476,-0.323 0.505,-0.348C0.534,-0.373 0.549,-0.407 0.549,-0.451C0.549,-0.496 0.534,-0.53 0.505,-0.554C0.476,-0.578 0.433,-0.59 0.376,-0.59L0.166,-0.59L0.224,-0.654L0.224,-0.249Z" style="fill:rgb(2,0,205);fill-rule:nonzero;"/>
            </g>
            <g transform="matrix(83.7092,0,0,83.7092,985.515,895.238)">
                <path d="M-0.005,-0L0.31,-0.7L0.438,-0.7L0.754,-0L0.618,-0L0.347,-0.631L0.399,-0.631L0.129,-0L-0.005,-0ZM0.14,-0.162L0.175,-0.264L0.553,-0.264L0.588,-0.162L0.14,-0.162Z" style="fill:rgb(2,0,205);fill-rule:nonzero;"/>
            </g>
            <g transform="matrix(83.7092,0,0,83.7092,1048.21,895.238)">
                <rect x="0.094" y="-0.7" width="0.13" height="0.7" style="fill:rgb(2,0,205);fill-rule:nonzero;"/>
            </g>
            <g transform="matrix(83.7092,0,0,83.7092,1074.92,895.238)">
                <path d="M0.094,-0L0.094,-0.7L0.201,-0.7L0.64,-0.161L0.587,-0.161L0.587,-0.7L0.716,-0.7L0.716,-0L0.609,-0L0.17,-0.539L0.223,-0.539L0.223,-0L0.094,-0Z" style="fill:rgb(2,0,205);fill-rule:nonzero;"/>
            </g>
            <g transform="matrix(83.7092,0,0,83.7092,1142.72,895.238)">
            </g>
        </g>
    </g>
</svg>
