<?xml version="1.0" encoding="UTF-8" standalone="no"?>
<!DOCTYPE svg PUBLIC "-//W3C//DTD SVG 1.1//EN" "http://www.w3.org/Graphics/SVG/1.1/DTD/svg11.dtd">
<svg width="100%" height="100%" viewBox="0 0 260 89" version="1.1" xmlns="http://www.w3.org/2000/svg" xmlns:xlink="http://www.w3.org/1999/xlink" xml:space="preserve" xmlns:serif="http://www.serif.com/" style="fill-rule:evenodd;clip-rule:evenodd;stroke-linejoin:round;stroke-miterlimit:2;">
    <g transform="matrix(1,0,0,1,-920.9,-98.4)">
        <path d="M1004.3,187.3C1011.2,187.3 1016.2,185.2 1020.1,182.7C1023.7,180.3 1026.5,177.4 1028.6,173.7C1031.4,168.9 1031.7,164.5 1031.9,161.9L1037.1,108.5L1012,108.5L1004.4,187.2L1004.3,187.3Z" style="fill:rgb(196,13,30);fill-rule:nonzero;"/>
        <path d="M980.1,123.4L976.3,162.9C975.7,171.5 978.9,176 980.9,178.3C984.6,182.6 991.3,185.9 999.2,187.3C999.4,185 1006.5,111.8 1006.5,111.8C1006.7,108.2 1005.7,105.1 1003.3,102.3C1000.5,99.1 996.4,98.4 994.7,98.4L932.4,98.4C927.8,98.4 920.9,102.9 920.9,110.6C920.9,118.3 929.4,123.4 932.3,123.4L980.3,123.4L980.1,123.4Z" style="fill:rgb(196,13,30);fill-rule:nonzero;"/>
        <path d="M944.7,177C945.3,170.7 949.4,128.5 949.4,128.5L974.6,128.5L969.9,177L944.7,177Z" style="fill:rgb(196,13,30);fill-rule:nonzero;"/>
        <g>
            <path d="M1052.8,110.7L1052.8,123.6L1050.4,123.6L1050.4,110.7L1046.3,110.7L1046.3,108.7L1056.9,108.7L1056.9,110.7L1052.8,110.7Z" style="fill:rgb(196,13,30);fill-rule:nonzero;"/>
            <path d="M1060.1,123.5L1060.1,108.6L1068,108.6L1068,110.6L1062.5,110.6L1062.5,114.8L1067.7,114.8L1067.7,116.8L1062.5,116.8L1062.5,121.4L1068,121.4L1068,123.5L1060.1,123.5Z" style="fill:rgb(196,13,30);fill-rule:nonzero;"/>
            <path d="M1078.4,123.7C1073.4,123.7 1071.6,120.5 1071.6,116.5C1071.6,112.5 1073.9,108.5 1078.9,108.5C1083.9,108.5 1081.2,108.7 1082.2,108.9L1081.9,111.1C1080.8,110.8 1079.8,110.6 1078.7,110.6C1075.6,110.6 1074.2,113 1074.2,116.1C1074.2,119.2 1075.7,121.5 1078.9,121.5C1082.1,121.5 1081.2,121.2 1082,120.8L1082.3,122.9C1081.2,123.3 1079.8,123.6 1078.3,123.6L1078.4,123.7Z" style="fill:rgb(196,13,30);fill-rule:nonzero;"/>
            <path d="M1096.1,123.5L1096.1,116.8L1089.1,116.8L1089.1,123.5L1086.7,123.5L1086.7,108.6L1089.1,108.6L1089.1,114.8L1096.1,114.8L1096.1,108.6L1098.5,108.6L1098.5,123.5L1096.1,123.5Z" style="fill:rgb(196,13,30);fill-rule:nonzero;"/>
            <path d="M1112.6,123.5L1107.5,115C1106.8,113.9 1106.3,112.9 1105.8,111.9C1105.8,113.4 1105.9,116.4 1105.9,118.5L1105.9,123.5L1103.6,123.5L1103.6,108.6L1106.8,108.6L1111.7,116.7C1112.4,117.8 1113,119 1113.5,120.1C1113.5,118.4 1113.3,115.2 1113.3,113L1113.3,108.6L1115.6,108.6L1115.6,123.5L1112.5,123.5L1112.6,123.5Z" style="fill:rgb(196,13,30);fill-rule:nonzero;"/>
            <rect x="1120.9" y="108.6" width="2.4" height="14.9" style="fill:rgb(196,13,30);fill-rule:nonzero;"/>
            <path d="M1130.8,123.8C1129.7,123.8 1128.7,123.7 1127.8,123.4L1127.8,121.1C1128.8,121.4 1129.9,121.7 1131,121.7C1132.6,121.7 1134,121 1134,119.4C1134,116.3 1127.5,117.6 1127.5,112.8C1127.5,108 1129.5,108.5 1133,108.5C1136.5,108.5 1134.8,108.6 1135.7,108.8L1135.7,110.9C1134.7,110.6 1133.8,110.5 1132.9,110.5C1131,110.5 1130.1,111.4 1130.1,112.6C1130.1,115.6 1136.6,114.5 1136.6,119.1C1136.6,123.7 1134.4,123.8 1130.9,123.8L1130.8,123.8Z" style="fill:rgb(196,13,30);fill-rule:nonzero;"/>
            <path d="M1146.6,123.7C1141.6,123.7 1139.8,120.5 1139.8,116.5C1139.8,112.5 1142.1,108.5 1147.1,108.5C1152.1,108.5 1149.4,108.7 1150.4,108.9L1150.1,111.1C1149,110.8 1148,110.6 1146.9,110.6C1143.8,110.6 1142.4,113 1142.4,116.1C1142.4,119.2 1143.9,121.5 1147.1,121.5C1150.3,121.5 1149.4,121.2 1150.2,120.8L1150.5,122.9C1149.4,123.3 1148,123.6 1146.5,123.6L1146.6,123.7Z" style="fill:rgb(196,13,30);fill-rule:nonzero;"/>
            <path d="M1164.2,123.5L1164.2,116.8L1157.2,116.8L1157.2,123.5L1154.8,123.5L1154.8,108.6L1157.2,108.6L1157.2,114.8L1164.2,114.8L1164.2,108.6L1166.6,108.6L1166.6,123.5L1164.2,123.5Z" style="fill:rgb(196,13,30);fill-rule:nonzero;"/>
            <path d="M1171.8,123.5L1171.8,108.6L1179.7,108.6L1179.7,110.6L1174.2,110.6L1174.2,114.8L1179.4,114.8L1179.4,116.8L1174.2,116.8L1174.2,121.4L1179.7,121.4L1179.7,123.5L1171.8,123.5Z" style="fill:rgb(196,13,30);fill-rule:nonzero;"/>
            <path d="M1053.3,150.5C1048.6,150.5 1047.6,147.9 1047.6,145.2L1047.6,135.4L1050,135.4L1050,145C1050,147 1050.7,148.5 1053.4,148.5C1056.1,148.5 1056.9,147.5 1056.9,144.7L1056.9,135.4L1059.3,135.4L1059.3,144.6C1059.3,148.6 1057.2,150.6 1053.3,150.6L1053.3,150.5Z" style="fill:rgb(196,13,30);fill-rule:nonzero;"/>
            <path d="M1073.2,150.3L1068.1,141.8C1067.4,140.7 1066.9,139.7 1066.4,138.7C1066.4,140.2 1066.5,143.2 1066.5,145.3L1066.5,150.3L1064.2,150.3L1064.2,135.4L1067.4,135.4L1072.3,143.5C1073,144.6 1073.6,145.8 1074.1,146.9C1074.1,145.2 1073.9,142 1073.9,139.8L1073.9,135.4L1076.2,135.4L1076.2,150.3L1073.1,150.3L1073.2,150.3Z" style="fill:rgb(196,13,30);fill-rule:nonzero;"/>
            <rect x="1081.3" y="135.4" width="2.4" height="14.9" style="fill:rgb(196,13,30);fill-rule:nonzero;"/>
            <path d="M1094.7,150.3L1092,150.3L1086.7,135.4L1089.3,135.4L1092.4,144.6C1092.7,145.5 1093.1,146.5 1093.3,147.6C1093.6,146.6 1093.8,145.6 1094.3,144.4L1097.5,135.4L1100,135.4L1094.6,150.3L1094.7,150.3Z" style="fill:rgb(196,13,30);fill-rule:nonzero;"/>
            <path d="M1103.1,150.3L1103.1,135.4L1111,135.4L1111,137.4L1105.5,137.4L1105.5,141.6L1110.7,141.6L1110.7,143.6L1105.5,143.6L1105.5,148.2L1111,148.2L1111,150.3L1103.1,150.3Z" style="fill:rgb(196,13,30);fill-rule:nonzero;"/>
            <path d="M1122.4,150.3L1117.8,143.9L1117.7,143.9L1117.7,150.3L1115.3,150.3L1115.3,135.4L1119.3,135.4C1122.4,135.4 1124.5,136.5 1124.5,139.4C1124.5,142.3 1122.7,143.3 1120.3,143.6C1120.7,144.1 1121.2,144.7 1121.6,145.2L1125.5,150.4L1122.5,150.4L1122.4,150.3ZM1118.9,137.3L1117.6,137.3L1117.6,142L1118.8,142C1120.7,142 1121.9,141 1121.9,139.5C1121.9,138 1120.9,137.2 1118.9,137.2L1118.9,137.3Z" style="fill:rgb(196,13,30);fill-rule:nonzero;"/>
            <path d="M1131.2,150.5C1130.1,150.5 1129.1,150.4 1128.2,150.1L1128.2,147.8C1129.2,148.1 1130.3,148.4 1131.4,148.4C1133,148.4 1134.4,147.7 1134.4,146.1C1134.4,143 1127.9,144.3 1127.9,139.5C1127.9,134.7 1129.9,135.2 1133.4,135.2C1136.9,135.2 1135.2,135.3 1136.1,135.5L1136.1,137.6C1135.1,137.3 1134.2,137.2 1133.3,137.2C1131.4,137.2 1130.5,138.1 1130.5,139.3C1130.5,142.3 1137,141.2 1137,145.8C1137,150.4 1134.8,150.5 1131.3,150.5L1131.2,150.5Z" style="fill:rgb(196,13,30);fill-rule:nonzero;"/>
            <rect x="1140.8" y="135.4" width="2.4" height="14.9" style="fill:rgb(196,13,30);fill-rule:nonzero;"/>
            <path d="M1152.8,137.4L1152.8,150.3L1150.4,150.3L1150.4,137.4L1146.3,137.4L1146.3,135.4L1156.9,135.4L1156.9,137.4L1152.8,137.4Z" style="fill:rgb(196,13,30);fill-rule:nonzero;"/>
            <path d="M1167.6,150.3L1166.5,147L1160.5,147L1159.4,150.3L1157,150.3L1162.3,135.4L1165,135.4L1170.4,150.3L1167.6,150.3ZM1161.4,134.1C1160.6,134.1 1160.1,133.5 1160.1,132.8C1160.1,132.1 1160.7,131.5 1161.4,131.5C1162.1,131.5 1162.7,132.1 1162.7,132.8C1162.7,133.5 1162.1,134.1 1161.4,134.1ZM1164.1,140.4C1163.8,139.6 1163.6,138.9 1163.4,138.1C1163.2,138.9 1163,139.7 1162.7,140.5L1161,145.1L1165.8,145.1L1164.1,140.4ZM1165.7,134.1C1164.9,134.1 1164.4,133.5 1164.4,132.8C1164.4,132.1 1165,131.5 1165.7,131.5C1166.4,131.5 1167,132.1 1167,132.8C1167,133.5 1166.4,134.1 1165.7,134.1Z" style="fill:rgb(196,13,30);fill-rule:nonzero;"/>
            <path d="M1176.8,137.4L1176.8,150.3L1174.4,150.3L1174.4,137.4L1170.3,137.4L1170.3,135.4L1180.9,135.4L1180.9,137.4L1176.8,137.4Z" style="fill:rgb(196,13,30);fill-rule:nonzero;"/>
            <path d="M1051.7,177.1L1047.6,177.1L1047.6,162.2L1052.3,162.2C1055.5,162.2 1057.2,163.5 1057.2,165.8C1057.2,168.1 1056.2,168.7 1054.7,169.2C1056.6,169.6 1057.5,171.1 1057.5,172.6C1057.5,174.1 1056.2,177.2 1051.7,177.2L1051.7,177.1ZM1051.9,164L1050,164L1050,168.4L1051.3,168.4C1053.5,168.4 1054.7,167.5 1054.7,166C1054.7,164.5 1054,163.9 1051.9,163.9L1051.9,164ZM1051.4,170.3L1050.1,170.3L1050.1,175C1050.5,175 1051.1,175.1 1051.8,175.1C1054,175.1 1055,174 1055,172.5C1055,171 1053.5,170.2 1051.4,170.2L1051.4,170.3Z" style="fill:rgb(196,13,30);fill-rule:nonzero;"/>
            <path d="M1061.6,177L1061.6,162.1L1069.5,162.1L1069.5,164.1L1064,164.1L1064,168.3L1069.2,168.3L1069.2,170.3L1064,170.3L1064,174.9L1069.5,174.9L1069.5,177L1061.6,177Z" style="fill:rgb(196,13,30);fill-rule:nonzero;"/>
            <path d="M1080.8,177L1076.2,170.6L1076.1,170.6L1076.1,177L1073.7,177L1073.7,162.1L1077.7,162.1C1080.8,162.1 1082.9,163.2 1082.9,166.1C1082.9,169 1081.1,170 1078.7,170.3C1079.1,170.8 1079.6,171.4 1080,171.9L1083.9,177.1L1080.9,177.1L1080.8,177ZM1077.3,164L1076,164L1076,168.7L1077.2,168.7C1079.1,168.7 1080.3,167.7 1080.3,166.2C1080.3,164.7 1079.3,163.9 1077.3,163.9L1077.3,164Z" style="fill:rgb(196,13,30);fill-rule:nonzero;"/>
            <path d="M1087.3,177L1087.3,162.1L1089.7,162.1L1089.7,174.9L1094.8,174.9L1094.8,177L1087.3,177Z" style="fill:rgb(196,13,30);fill-rule:nonzero;"/>
            <rect x="1097.8" y="162.1" width="2.4" height="14.9" style="fill:rgb(196,13,30);fill-rule:nonzero;"/>
            <path d="M1114.2,177L1109.1,168.5C1108.4,167.4 1107.9,166.4 1107.4,165.4C1107.4,166.9 1107.5,169.9 1107.5,172L1107.5,177L1105.2,177L1105.2,162.1L1108.4,162.1L1113.3,170.2C1114,171.3 1114.6,172.5 1115.1,173.6C1115.1,171.9 1114.9,168.7 1114.9,166.5L1114.9,162.1L1117.2,162.1L1117.2,177L1114.1,177L1114.2,177Z" style="fill:rgb(196,13,30);fill-rule:nonzero;"/>
        </g>
    </g>
</svg>
