<?xml version="1.0" encoding="UTF-8" standalone="no"?>
<!DOCTYPE svg PUBLIC "-//W3C//DTD SVG 1.1//EN" "http://www.w3.org/Graphics/SVG/1.1/DTD/svg11.dtd">
<svg width="100%" height="100%" viewBox="0 0 238 88" version="1.1" xmlns="http://www.w3.org/2000/svg" xmlns:xlink="http://www.w3.org/1999/xlink" xml:space="preserve" xmlns:serif="http://www.serif.com/" style="fill-rule:evenodd;clip-rule:evenodd;stroke-linejoin:round;stroke-miterlimit:2;">
    <g transform="matrix(1,0,0,1,-1315.1,-98.2)">
        <path id="polygon10" d="M1545.3,115.7L1540.5,122.3L1542.5,123.4L1548.7,117.2L1545.3,115.7ZM1431.5,125.4L1430.9,126.8L1417.5,157.2L1421.2,157.2L1424.9,148.6L1437.9,148.6L1441.5,157.2L1445.3,157.2L1432.3,126.8L1431.7,125.4L1431.5,125.4ZM1361.9,126.1C1352,126.1 1345.9,133.5 1345.9,142C1345.9,150.5 1352.1,157.7 1361.9,157.7C1365.1,157.7 1368.3,156.6 1370.9,154.8L1370.9,150.7C1368.5,153.1 1365.2,154.7 1361.8,154.7C1354.4,154.7 1349.6,148.6 1349.6,142C1349.6,135.4 1354.4,129.3 1361.8,129.3C1369.2,129.3 1368.6,130.8 1371,133.3L1371,129.2C1368.3,127.2 1365.4,126.2 1362,126.2L1361.9,126.1ZM1384.2,126.8L1384.2,157.2L1387.6,157.2L1387.6,142.3L1397.9,142.3L1397.9,139.2L1387.6,139.2L1387.6,126.9L1384.2,126.9L1384.2,126.8ZM1402.5,126.8L1402.5,157.2L1405.9,157.2L1405.9,126.8L1402.5,126.8ZM1456.3,126.8L1456.3,157.2L1459.7,157.2L1459.7,143.9L1464.3,143.9L1471.2,157.2L1475.1,157.2L1467.7,143.4C1470.8,142.5 1473.9,140.1 1473.9,135.2C1473.9,129.1 1469.3,126.8 1464.3,126.8L1456.3,126.8ZM1489.1,126.8L1489.1,157.2L1492.5,157.2L1492.5,126.8L1489.1,126.8ZM1505.3,126.8L1505.3,129.9L1512.6,129.9L1512.6,157.1L1516,157.1L1516,129.9L1523.4,129.9L1523.4,126.8L1505.3,126.8ZM1535.6,126.8L1535.6,157.2L1552,157.2L1552,154.1L1538.9,154.1L1538.9,142.2L1550.1,142.2L1550.1,139.1L1538.9,139.1L1538.9,130.1L1551.5,130.1L1551.5,127L1535.6,127L1535.6,126.8ZM1459.7,129.9L1463.9,129.9C1467.4,129.9 1470.5,131.3 1470.5,135.2C1470.5,139.1 1467.8,140.9 1463.9,140.9L1459.7,140.9L1459.7,129.9ZM1431.5,133.2L1436.6,145.4L1426.3,145.4L1431.5,133.2Z" style="fill-rule:nonzero;"/>
        <path id="path26" d="M1315.1,142C1315.1,117.8 1334.6,98.2 1359.3,98.2C1370.1,98.2 1380,102.1 1387.6,108.6L1387.6,115.3C1380.5,107.8 1370.5,103.1 1359.5,103.1C1337.9,103.1 1321,120.4 1321,141.8C1321,163.2 1337.9,180.5 1359.5,180.5C1381.1,180.5 1380.6,175.8 1387.6,168.3L1387.6,175.3C1380,181.8 1370.1,185.7 1359.3,185.7C1334.6,185.7 1315.1,166.1 1315.1,141.9C1315.1,117.7 1315.1,141.9 1315.1,141.9L1315.1,142Z" style="fill:rgb(135,135,135);fill-rule:nonzero;"/>
        <path id="path30" d="M1451.9,166.3C1451.5,166.3 1451.2,166.6 1451.2,167C1451.2,167.4 1451.5,167.7 1451.9,167.7C1452.3,167.7 1452.6,167.4 1452.6,167C1452.6,166.6 1452.3,166.3 1451.9,166.3ZM1453.9,166.3L1453.8,166.3C1453.5,166.3 1453.2,166.7 1453.2,167C1453.2,167.3 1453.5,167.7 1453.9,167.7C1454.3,167.7 1454.6,167.4 1454.6,167C1454.6,166.6 1454.3,166.3 1453.9,166.3ZM1436.3,168.1L1435,168.1C1434.4,168.4 1434,169 1434,169.8C1434,170.6 1434.1,170.7 1434.4,171L1434.5,171.1C1434.5,171.1 1434.7,171.3 1434.8,171.3C1434.9,171.3 1435,171.4 1435.2,171.5C1435.5,171.6 1435.8,171.7 1436.2,171.8C1436.4,171.8 1436.5,171.8 1436.6,171.9C1437.5,172.2 1437.8,172.5 1437.8,173C1437.8,173.5 1437.5,173.9 1437,174L1436.3,174C1435.6,174 1434.9,173.7 1434.4,173.1L1433.6,173.9C1434.1,174.5 1434.9,174.9 1435.8,175L1436.2,175C1438,175 1438.9,174.1 1438.9,172.8C1438.9,171.5 1438.9,172.1 1438.7,171.8L1438.6,171.7C1438.2,171.2 1437.5,170.9 1436.7,170.7C1436.4,170.7 1436.1,170.5 1435.9,170.4C1435.8,170.4 1435.7,170.4 1435.6,170.3C1435.2,170.1 1435.1,169.9 1435.1,169.6C1435.1,169.3 1435.1,169.5 1435.1,169.4L1435.1,169.2C1435.2,168.9 1435.6,168.7 1436.2,168.7C1436.8,168.7 1437.3,168.9 1437.7,169.2C1437.7,169.2 1437.8,169.3 1437.9,169.4L1438.7,168.6C1438.1,168 1437.3,167.6 1436.3,167.6L1436.3,168.1ZM1466.1,168.1C1464.8,168.1 1463.7,168.9 1463.7,170.1C1463.7,171.3 1464.4,171.8 1465.9,172.2C1467.1,172.6 1467.5,172.8 1467.5,173.4C1467.5,173.9 1467.2,174.3 1466.7,174.4L1466,174.4C1465.3,174.4 1464.6,174.1 1464.1,173.5L1463.3,174.3C1463.8,174.9 1464.6,175.3 1465.5,175.4L1465.9,175.4C1467.7,175.4 1468.6,174.5 1468.6,173.2C1468.6,172.8 1468.6,172.5 1468.4,172.2L1468.3,172.1C1467.9,171.6 1467.2,171.3 1466.4,171.1C1466.1,171.1 1465.8,170.9 1465.6,170.8C1465.5,170.8 1465.4,170.8 1465.3,170.7C1464.9,170.5 1464.8,170.3 1464.8,170C1464.8,169.7 1464.8,169.9 1464.8,169.8L1464.8,169.6C1464.9,169.3 1465.3,169.1 1465.9,169.1C1466.5,169.1 1467,169.3 1467.4,169.6C1467.4,169.6 1467.5,169.7 1467.6,169.8L1468.4,169C1467.8,168.4 1467,168 1466,168L1466.1,168.1ZM1394.9,168.2L1394.9,172.4C1394.9,174.4 1395.8,175.5 1397.6,175.5C1399.4,175.5 1400.4,174.4 1400.4,172.4L1400.4,168.2L1399.3,168.2L1399.3,172.4C1399.3,173.7 1398.8,174.4 1397.6,174.4C1396.4,174.4 1396,173.7 1396,172.3L1396,168.2L1394.9,168.2ZM1402.3,168.2L1402.3,175.4L1403.3,175.4L1403.3,170C1403.4,170.2 1403.7,170.6 1403.8,170.9L1406.7,175.4L1407.7,175.4L1407.7,168.2L1406.7,168.2L1406.7,173.6C1406.6,173.4 1406.3,172.9 1406.1,172.6L1403.4,168.2L1402.3,168.2ZM1409.9,168.2L1409.9,175.4L1411,175.4L1411,168.2L1409.9,168.2ZM1412.6,168.2L1415.1,175.4L1416.2,175.4L1418.7,168.2L1417.6,168.2L1416.1,172.8C1416.1,173 1415.9,173.3 1415.9,173.5C1415.9,173.7 1415.8,174 1415.7,174.1C1415.7,173.8 1415.4,173.2 1415.3,172.8L1413.8,168.2L1412.6,168.2ZM1420.3,168.2L1420.3,175.4L1425.1,175.4L1425.1,174.4L1421.4,174.4L1421.4,172.1L1423.5,172.1L1423.5,171.1L1421.4,171.1L1421.4,169.3L1424.9,169.3L1424.9,168.3L1420.3,168.3L1420.3,168.2ZM1426.7,168.2L1426.7,175.4L1427.8,175.4L1427.8,172.6L1429.4,172.6L1430.8,175.4L1432,175.4L1430.5,172.5C1431.5,172.3 1432.1,171.5 1432.1,170.4C1432.1,169.3 1431,168.3 1429.8,168.3L1426.6,168.3L1426.7,168.2ZM1440.7,168.2L1440.7,175.4L1441.8,175.4L1441.8,168.2L1440.7,168.2ZM1443.4,168.2L1443.4,169.3L1445.5,169.3L1445.5,175.4L1446.6,175.4L1446.6,169.3L1448.7,169.3L1448.7,168.2L1443.4,168.2ZM1452.4,168.2L1449.8,175.4L1450.9,175.4L1451.5,173.7L1454.4,173.7L1455,175.4L1456.1,175.4L1453.5,168.2L1452.4,168.2ZM1457.3,168.2L1457.3,169.3L1459.4,169.3L1459.4,175.4L1460.5,175.4L1460.5,169.3L1462.6,169.3L1462.6,168.2L1457.3,168.2ZM1470.5,168.2L1470.5,175.4L1471.5,175.4L1471.5,170.3C1471.5,170.5 1471.8,171 1472,171.4L1473.7,175.4L1475.4,171.4C1475.6,171 1475.8,170.5 1475.9,170.3L1475.9,175.4L1477,175.4L1477,168.2L1475.9,168.2L1474.3,172C1474.3,172.2 1474.1,172.4 1474,172.7C1474,172.9 1473.8,173.1 1473.8,173.3C1473.8,173 1473.5,172.5 1473.3,172.1L1471.7,168.3L1470.6,168.3L1470.5,168.2ZM1478.9,168.2L1478.9,175.4L1483.7,175.4L1483.7,174.4L1480,174.4L1480,172.1L1482.1,172.1L1482.1,171.1L1480,171.1L1480,169.3L1483.5,169.3L1483.5,168.3L1478.9,168.3L1478.9,168.2ZM1485.4,168.2L1485.4,175.4L1487.4,175.4C1489.3,175.4 1490.9,174.3 1490.9,171.8C1490.9,169.3 1489.3,168.2 1487.4,168.2L1485.4,168.2ZM1492.6,168.2L1492.6,175.4L1493.7,175.4L1493.7,168.2L1492.6,168.2ZM1495.7,168.2L1495.7,169.2L1499.8,169.2C1499.6,169.4 1499.2,169.8 1499,170.1L1495.5,174.3L1495.5,175.3L1501,175.3L1501,174.3L1496.8,174.3C1497,174.1 1497.4,173.7 1497.6,173.4L1501.1,169.2L1501.1,168.2L1495.7,168.2ZM1502.8,168.2L1502.8,175.4L1503.9,175.4L1503.9,168.2L1502.8,168.2ZM1506,168.2L1506,175.4L1507,175.4L1507,170C1507.1,170.2 1507.4,170.6 1507.5,170.9L1510.4,175.4L1511.4,175.4L1511.4,168.2L1510.4,168.2L1510.4,173.6C1510.3,173.4 1510,172.9 1509.8,172.6L1507.1,168.2L1506,168.2ZM1516.4,168.2L1516.4,175.4L1519.6,175.4C1521,175.4 1521.8,174.6 1521.8,173.2C1521.8,171.8 1521.2,171.7 1520.6,171.5C1521.1,171.2 1521.5,170.8 1521.5,170.1C1521.5,168.9 1520.7,168.2 1519.4,168.2L1516.4,168.2ZM1523.6,168.2L1523.6,175.4L1528.4,175.4L1528.4,174.4L1524.7,174.4L1524.7,172.1L1526.8,172.1L1526.8,171.1L1524.7,171.1L1524.7,169.3L1528.2,169.3L1528.2,168.3L1523.6,168.3L1523.6,168.2ZM1530,168.2L1530,175.4L1531.1,175.4L1531.1,172.6L1532.7,172.6L1534.1,175.4L1535.3,175.4L1533.8,172.5C1534.8,172.3 1535.4,171.5 1535.4,170.4C1535.4,168.9 1534.3,168.3 1533.1,168.3L1529.9,168.3L1530,168.2ZM1537.3,168.2L1537.3,175.4L1542,175.4L1542,174.3L1538.4,174.3L1538.4,168.2L1537.3,168.2ZM1543.7,168.2L1543.7,175.4L1544.8,175.4L1544.8,168.2L1543.7,168.2ZM1546.8,168.2L1546.8,175.4L1547.8,175.4L1547.8,170C1547.9,170.2 1548.2,170.6 1548.3,170.9L1551.2,175.4L1552.2,175.4L1552.2,168.2L1551.2,168.2L1551.2,173.6C1551.1,173.4 1550.8,172.9 1550.6,172.6L1547.9,168.2L1546.8,168.2ZM1517.5,169.2L1519.4,169.2C1520.1,169.2 1520.4,169.6 1520.4,170.1C1520.4,170.6 1520.1,171 1519.4,171L1517.5,171L1517.5,169.1L1517.5,169.2ZM1427.8,169.2L1429.9,169.2C1430.6,169.2 1431.1,169.6 1431.1,170.4C1431.1,171.2 1430.6,171.5 1429.9,171.5L1427.8,171.5L1427.8,169.2ZM1531.1,169.2L1533.2,169.2C1533.9,169.2 1534.4,169.6 1534.4,170.4C1534.4,171.2 1533.9,171.5 1533.2,171.5L1531.1,171.5L1531.1,169.2ZM1486.5,169.2L1487.4,169.2C1489.1,169.2 1489.8,170.2 1489.8,171.7C1489.8,173.2 1489.1,174.2 1487.4,174.2L1486.5,174.2L1486.5,169.1L1486.5,169.2ZM1453,169.4C1453,169.7 1453.4,170.5 1453.5,171L1454.1,172.6L1451.9,172.6L1452.5,171C1452.7,170.5 1452.9,169.6 1453,169.3L1453,169.4ZM1517.5,172L1519.4,172C1520.2,172 1520.7,172.4 1520.7,173.2C1520.7,173.9 1520.3,174.4 1519.4,174.4L1517.5,174.4L1517.5,172Z" style="fill:rgb(135,135,135);fill-rule:nonzero;"/>
    </g>
</svg>
