<?xml version="1.0" encoding="UTF-8" standalone="no"?>
<!DOCTYPE svg PUBLIC "-//W3C//DTD SVG 1.1//EN" "http://www.w3.org/Graphics/SVG/1.1/DTD/svg11.dtd">
<svg width="100%" height="100%" viewBox="0 0 924 731" version="1.1" xmlns="http://www.w3.org/2000/svg" xmlns:xlink="http://www.w3.org/1999/xlink" xml:space="preserve" xmlns:serif="http://www.serif.com/" style="fill-rule:evenodd;clip-rule:evenodd;stroke-linejoin:round;stroke-miterlimit:2;">
    <g transform="matrix(1,0,0,1,-446.396,-120)">
        <g transform="matrix(1,0,0,1,6.01852,-47.5)">
            <path d="M1033.98,897.5C1002.52,895.865 976.429,653.81 970,600C968.023,583.451 937.454,595.093 930,610C921.667,626.667 936.667,703.333 920,720C903.333,736.667 866.667,758.333 850,750C835.093,742.546 844.907,707.454 830,700C813.333,691.667 806.667,701.667 790,710C775.093,717.454 774.907,762.546 760,770C750.41,774.795 707.707,784.026 670,770C642.178,759.651 624.219,739.457 620,720C615.005,696.965 696.667,606.667 680,590C663.333,573.333 648.095,598.333 620,620C606.802,630.178 581.098,657.308 550,660C531.436,661.607 466.667,666.667 450,650C433.333,633.333 441.667,566.667 450,550C457.454,535.093 481.667,548.333 490,540C498.333,531.667 498.333,518.333 490,510C481.667,501.667 467.454,494.907 460,480C451.667,463.333 451.667,426.667 460,410C467.454,395.093 501.667,378.333 510,370C518.333,361.667 515.093,327.454 530,320C546.667,311.667 573.333,326.667 590,310C606.667,293.333 591.667,266.667 600,250C607.454,235.093 642.546,264.907 650,250C658.333,233.333 653.333,216.667 670,200C686.667,183.333 743.333,163.333 760,180C776.667,196.667 763.333,193.333 780,210C796.667,226.667 813.333,196.667 830,180C846.667,163.333 923.333,163.333 940,180C956.667,196.667 953.333,236.667 970,220C986.667,203.333 983.333,196.667 1000,180C1016.67,163.333 1103.33,183.333 1120,200C1136.67,216.667 1143.33,233.333 1160,250C1176.67,266.667 1213.33,233.333 1230,250C1246.67,266.667 1253.33,303.333 1270,320C1286.67,336.667 1323.33,343.333 1340,360C1356.67,376.667 1336.67,393.333 1320,410C1303.33,426.667 1366.67,473.333 1350,490C1333.33,506.667 1293.33,503.333 1310,520C1326.67,536.667 1343.33,533.333 1360,550C1376.67,566.667 1336.67,613.333 1320,630C1303.33,646.667 1246.67,621.667 1230,640C1213.33,658.333 1276.67,741.667 1260,760C1252.92,767.784 1217.82,775.768 1190,780C1152.29,785.736 1128.16,809.564 1110,800C1092.8,790.944 1098.33,700 1090,690C1081.67,680 1075.52,724.275 1070,740C1055.95,780 1070.17,899.381 1033.98,897.5ZM1030,770C1053.98,766.629 1035,683.333 1040,650C1043.32,627.887 1088.74,620.237 1100,630C1114.29,642.381 1142.26,662.73 1160,660C1181.67,656.667 1163.31,583.815 1180,570C1197.57,555.462 1244.54,541.417 1240,530C1233.01,512.408 1197.98,503.139 1200,490C1203.33,468.333 1240,476.667 1240,460C1240,443.333 1248.33,406.667 1240,390C1236.45,382.904 1190.5,396.325 1190,380C1189.45,362.029 1194.37,344.367 1190,340C1181.67,331.667 1148.33,358.333 1140,350C1131.67,341.667 1158.33,318.333 1150,310C1141.67,301.667 1095.48,283.81 1080,290C1063.33,296.667 1066.67,340 1050,340C1033.33,340 1026.67,280 1010,280C993.333,280 956.667,320 940,320C923.333,320 936.667,270 920,270C910.444,270 855.777,265.975 840,280C828.259,290.437 837.111,320 830,320C813.333,320 796.667,266.667 780,270C769.469,272.106 758.986,266.992 750,290C746.459,299.067 736.135,320 730,320C713.333,320 703.333,290 690,290C676.667,290 640,338.333 640,360C640,381.667 683.333,401.667 680,420C676.667,438.333 593.333,423.333 580,440C566.667,456.667 566.667,551.667 580,560C593.333,568.333 698.333,500 720,510C741.667,520 744.97,570.343 740,590C735.121,609.297 706.047,660.885 720,670C751.533,690.599 775.885,620.063 810,620C840.369,619.943 859.796,644.71 870,640C888.41,631.503 878.074,576.398 890,560C903.333,541.667 905,545 930,540C955,535 978.81,534.048 990,550C1002.18,567.366 1000.26,604.226 1003.98,627.5C1010.65,669.167 1002.68,773.84 1030,770Z"/>
        </g>
    </g>
</svg>
