<?xml version="1.0" encoding="UTF-8" standalone="no"?>
<!DOCTYPE svg PUBLIC "-//W3C//DTD SVG 1.1//EN" "http://www.w3.org/Graphics/SVG/1.1/DTD/svg11.dtd">
<svg width="100%" height="100%" viewBox="0 0 588 471" version="1.1" xmlns="http://www.w3.org/2000/svg" xmlns:xlink="http://www.w3.org/1999/xlink" xml:space="preserve" xmlns:serif="http://www.serif.com/" style="fill-rule:evenodd;clip-rule:evenodd;stroke-linejoin:round;stroke-miterlimit:2;">
    <g transform="matrix(1,0,0,1,-714.16,-289)">
        <g transform="matrix(0.645186,0,0,0.645186,421.407,180.931)">
            <path d="M1033.98,897.5C1002.52,895.865 976.429,653.81 970,600C968.023,583.451 937.454,595.093 930,610C921.667,626.667 936.667,703.333 920,720C903.333,736.667 866.667,758.333 850,750C835.093,742.546 844.907,707.454 830,700C813.333,691.667 806.667,701.667 790,710C775.093,717.454 774.907,762.546 760,770C750.41,774.795 707.707,784.026 670,770C642.178,759.651 624.219,739.457 620,720C615.005,696.965 696.667,606.667 680,590C663.333,573.333 657.614,597.201 623.981,608.5C599.355,616.773 574.082,583.408 543.981,588.5C523.887,591.899 495.756,612.774 473.981,588.5C443.049,554.016 484.696,540.167 483.981,518.5C483.593,506.721 467.454,494.907 460,480C451.667,463.333 451.667,426.667 460,410C467.454,395.093 501.667,378.333 510,370C518.333,361.667 515.093,327.454 530,320C546.667,311.667 574.809,331.095 590,310C603.773,290.873 564.027,268.914 600,250C611.892,243.747 642.546,264.907 650,250C658.333,233.333 653.333,216.667 670,200C686.667,183.333 743.333,163.333 760,180C776.667,196.667 763.333,193.333 780,210C796.667,226.667 813.333,196.667 830,180C846.667,163.333 923.333,163.333 940,180C956.667,196.667 953.333,236.667 970,220C986.667,203.333 983.333,196.667 1000,180C1016.67,163.333 1103.33,183.333 1120,200C1136.67,216.667 1143.33,233.333 1160,250C1176.67,266.667 1213.33,233.333 1230,250C1246.67,266.667 1253.33,303.333 1270,320C1286.67,336.667 1323.33,343.333 1340,360C1356.67,376.667 1336.67,393.333 1320,410C1303.33,426.667 1366.67,473.333 1350,490C1333.33,506.667 1293.33,503.333 1310,520C1326.67,536.667 1343.33,533.333 1360,550C1376.67,566.667 1336.67,613.333 1320,630C1303.33,646.667 1246.67,621.667 1230,640C1221.12,649.768 1213.14,649.711 1231.25,676.655C1242.06,692.736 1260.07,691.772 1273.1,711.529C1278.43,719.611 1273.91,757.648 1249.85,780.501C1227.77,801.481 1186.96,792.641 1171.4,794.451C1148.39,797.128 1118.05,811.08 1106.12,791.475C1094.2,771.869 1098.33,700 1090,690C1081.67,680 1075.52,724.275 1070,740C1055.95,780 1070.17,899.381 1033.98,897.5ZM759.792,572.349C760.675,572.062 765.273,570.564 770.237,567.273C771.037,566.734 775.256,563.885 779.492,559.546C780.178,558.837 783.798,555.098 787.156,549.887C790.606,544.529 792.355,539.845 792.699,538.924C794.906,533.21 795.413,528.384 795.512,527.443C796.212,521.553 795.134,516.97 794.926,516.085C793.71,510.913 791.797,507.831 791.393,507.18C789.136,503.384 786.295,501.133 785.756,500.707C785.187,500.256 782.343,498.002 777.785,496.373C776.987,496.088 773.163,494.721 767.471,493.95L763.025,493.48L758.677,492.446L761.705,487.718L764.801,482.357C766.152,479.566 766.678,477.369 766.786,476.919C767.495,474.149 766.952,472.085 766.846,471.68C765.853,467.906 763.436,465.916 762.989,465.548C762.517,465.133 760.168,463.068 756.147,461.687C755.458,461.45 752.088,460.293 747.212,459.928C746.428,459.864 742.394,459.535 737.384,459.922L727.772,461.207L719.504,463.331L710.506,466.974C709.723,467.341 705.644,469.249 701.075,472.248C696.508,475.246 693.133,478.222 692.485,478.793C688.483,482.322 686.347,485.622 685.914,486.291C683.366,490.227 682.708,493.663 682.576,494.348C682.452,494.996 681.794,498.429 683.497,502.54C683.659,502.931 684.503,504.97 686.351,506.993L690.56,510.641L695.302,514L700.091,517.609L704.25,521.731C704.559,522.08 706.159,523.89 707.265,526.724C708.614,530.179 708.791,533.289 708.824,533.874L708.995,541.241L709.302,548.565C709.343,549.149 709.562,552.208 710.968,555.684C712.731,560.046 715.403,562.877 715.906,563.411C716.409,563.944 719.038,566.73 723.096,569.085C723.746,569.454 727.081,571.342 731.719,572.675C732.455,572.886 736.325,573.998 741.136,574.408C741.897,574.462 745.908,574.744 750.679,574.253C755.453,573.762 759.084,572.58 759.792,572.349ZM746.29,533.114C746.051,533.192 744.818,533.596 743.362,531.951L740.738,527.912L738.698,523.187L737.122,518.471L736.71,516.397L736.796,514.402C737.059,513.496 737.705,513.283 737.822,513.244C740.366,512.404 742.509,512.469 742.922,512.482C745.532,512.458 747.39,513.17 747.756,513.311C749.972,514.16 751.326,515.524 751.583,515.782C751.849,516.033 753.268,517.369 753.976,519.68C754.073,519.996 754.588,521.679 754.328,523.798C754.282,524.125 754.045,525.831 752.996,527.708C752.833,528.002 752.01,529.479 750.295,530.923C750.016,531.158 748.585,532.364 746.29,533.114ZM730.295,495.44L728.813,495.362L727.755,494.242L726.996,492.858L726.575,491.606L724.878,486.275L723.743,480.837L724.889,479.799L726.364,479.145L730.318,478.179L734.103,477.944C735.928,478.097 737.087,478.896 737.31,479.051C737.54,479.199 738.664,479.927 739.265,481.859C739.36,482.162 739.841,483.707 739.334,485.825C739.252,486.168 738.829,487.933 737.49,489.83C737.283,490.138 736.243,491.691 734.315,493.218C732.477,494.714 730.644,495.324 730.295,495.44ZM742.253,442.058C747.671,440.665 750.681,437.802 751.274,437.238C754.954,433.699 756.638,429.896 756.957,429.174C757.286,428.439 759.036,424.523 759.463,419.429C759.957,414.186 759.065,410.223 758.89,409.443C757.602,403.719 755.079,399.568 754.602,398.783L748.281,388.996L741.841,379.176C738.785,374.194 737.649,369.46 737.435,368.566C736.58,365.002 737.008,362.023 737.089,361.459L738.426,354.437L739.895,347.394C740.452,343.824 739.798,340.973 739.673,340.43C738.732,336.326 736.273,334.155 735.811,333.746C735.331,333.323 732.869,331.149 728.814,329.887C728.143,329.678 724.741,328.619 720.117,328.65C715.576,328.66 711.984,329.592 711.296,329.771C710.601,329.951 706.929,330.904 702.929,333.032C698.915,335.082 696.583,337.556 696.118,338.048C693.399,340.905 692.438,343.975 692.258,344.552C692.066,345.142 691.102,348.106 692.314,352.298C692.477,352.861 693.281,355.64 695.528,358.891L700.197,365.475L705.032,372.505C705.401,373.088 707.32,376.118 708.517,380.404C708.742,381.211 709.929,385.461 710.157,390.756L710.27,401.219L710.53,411.65C710.573,412.475 710.796,416.797 712.252,421.828C712.469,422.578 713.561,426.349 716.426,430.65C719.34,434.885 722.675,437.418 723.312,437.901C727.335,440.877 731.413,441.947 732.174,442.147C732.954,442.351 736.991,443.411 742.253,442.058ZM1101.1,436.33C1111.08,438.549 1119,437.922 1120.55,437.799C1130.18,437.063 1136.9,433.934 1138.22,433.318C1139.51,432.725 1146.42,429.553 1152.55,422.789C1153.58,421.653 1158.77,415.912 1161.68,405.936C1161.95,405.015 1163.6,399.341 1162.57,393.98C1161.55,388.497 1158.97,384.73 1158.48,384.019C1157.99,383.276 1155.43,379.444 1150.89,375.823C1150.18,375.231 1146.45,372.14 1141.43,369.107L1131.49,363.614L1122.81,359.031C1118.95,356.79 1117.23,355.15 1116.81,354.743C1114.65,352.596 1115.08,350.623 1115.16,350.249C1115.37,349.261 1116.07,348.874 1116.2,348.805L1118.26,348.141L1120.56,348.014L1122.6,348.31C1125.29,348.915 1127.18,350.021 1127.55,350.235L1131.96,353.263L1135.77,356.813L1139.2,360.295L1142.41,363.102C1143.93,364.289 1145.12,364.595 1145.38,364.661C1148.71,365.517 1151.51,365.11 1152.04,365.033C1155.48,364.496 1157.88,363.27 1158.35,363.029C1161.27,361.481 1163.04,359.547 1163.38,359.173C1165.52,356.851 1166.18,354.474 1166.3,354.017C1167.48,349.813 1166.43,346.769 1166.23,346.176C1166.03,345.567 1165,342.441 1162.06,339.323C1161.57,338.785 1159.13,336.115 1154.97,333.595C1154.3,333.176 1150.81,330.993 1146.19,329.051L1137.01,325.636L1128.67,323.396C1127.81,323.203 1123.62,322.258 1117.86,321.746C1116.93,321.651 1112.07,321.154 1106.23,321.496C1100.4,321.763 1095.76,322.891 1094.87,323.108C1089.46,324.389 1085.71,326.507 1084.97,326.924C1080.6,329.383 1078.08,332.545 1077.6,333.148C1077.12,333.77 1074.71,336.896 1073.83,342.208C1072.92,347.705 1074.16,351.325 1074.42,352.073C1074.67,352.747 1076,356.346 1079.12,359.738C1079.64,360.292 1082.31,363.13 1086.5,365.726L1095.25,370.488L1104.13,374.354L1111.84,377.755C1115.25,379.373 1116.74,380.608 1117.12,380.922C1119.05,382.474 1118.73,383.866 1118.66,384.144C1118.62,384.335 1118.37,385.43 1117.24,386.131L1114.67,387.061L1111.75,387.282L1109.3,386.98C1105.56,386.163 1102.91,384.608 1102.4,384.309L1096.18,380.336L1089.82,376.395C1089.3,376.093 1086.61,374.511 1082.82,373.818C1078.62,373.05 1076.05,373.838 1075.49,374.01C1072.4,374.89 1070.57,376.707 1070.22,377.05C1069.88,377.393 1068.15,379.139 1066.89,382.088C1066.69,382.572 1065.64,385.02 1065.09,388.405C1063.59,397.529 1065.34,404.191 1065.69,405.516C1067.75,413.391 1071.87,418.6 1072.64,419.585C1073.44,420.587 1077.5,425.726 1084.73,430.022C1085.93,430.735 1091.98,434.301 1101.1,436.33ZM1029.34,424.29C1034.93,424.988 1039.16,423.267 1039.95,422.945C1045.07,420.904 1048.46,417.852 1049.1,417.276C1053.25,413.556 1055.54,409.503 1055.97,408.739C1058.82,403.802 1059.49,399.614 1059.62,398.776C1060.35,394.234 1059.56,391.338 1059.39,390.715C1058.51,387.188 1056.8,384.822 1056.48,384.368C1056.16,383.904 1054.52,381.549 1051.63,379.246L1045.53,374.696L1039.11,370.16L1033.13,365.031L1039,362.235L1045.1,359.427L1051.02,356.321C1053.88,354.679 1055.83,352.933 1056.21,352.592C1058.55,350.494 1059.85,348.253 1060.1,347.828C1060.37,347.391 1061.75,345.158 1062.26,341.789C1063.09,336.31 1061.48,332.403 1061.17,331.649C1060.86,330.877 1059.25,326.87 1055.44,322.971C1054.81,322.297 1051.7,318.978 1046.36,315.868C1045.51,315.366 1041.08,312.756 1035.19,310.591C1029.31,308.349 1024.26,307.246 1023.29,307.034C1017.31,305.731 1012.9,305.341 1011.99,305.26L1001.95,304.897C1001.02,304.889 996.257,304.85 990.381,305.562C984.5,306.198 979.776,307.46 978.872,307.702C973.267,309.2 969.56,311.325 968.807,311.756C964.38,314.294 962.099,317.415 961.65,318.03C961.216,318.613 958.945,321.659 958.801,326.649C958.782,327.315 958.683,330.745 960.235,334.854L963.728,343.053L967.045,351.729C967.294,352.439 968.587,356.122 968.383,361.037L967.563,368.545L966.25,376.035L964.877,383.445L964.177,390.96C964.147,391.744 964.002,395.585 965.106,400.715C966.283,405.717 968.423,409.286 968.834,409.97C971.371,414.118 974.67,416.528 975.286,416.977C975.939,417.445 979.26,419.827 984.797,420.193C988.912,420.466 991.706,419.384 992.269,419.166C995.638,417.862 997.689,415.811 998.081,415.419C998.484,415.03 1000.61,412.972 1002.11,409.681C1002.35,409.14 1003.63,406.288 1003.96,402.513C1004.23,399.485 1003.83,397.036 1003.75,396.567L1002.7,390.626L1001.63,384.764C1001.13,381.749 1001.34,379.221 1001.38,378.74L1002.02,375.052L1003.67,371.527C1004.83,369.909 1006.18,369.113 1006.44,368.96C1006.73,368.79 1008.15,367.94 1010.52,368.161C1013.22,368.413 1014.44,369.633 1014.7,369.889C1014.94,370.123 1016.25,371.368 1016.97,373.474C1017.11,373.807 1017.78,375.505 1017.88,377.863L1017.78,381.993C1017.21,387.52 1016.11,392.03 1015.9,392.89C1015.7,393.749 1014.62,398.188 1014.05,403.789C1013.99,404.36 1013.68,407.406 1014.53,410.947C1015.46,414.394 1017.1,416.739 1017.42,417.19C1017.74,417.635 1019.44,419.984 1022.43,421.894C1022.92,422.205 1025.48,423.808 1029.34,424.29ZM1004.62,347.124C1002.46,346.942 1001.53,346.038 1001.32,345.84C1001.16,345.668 1000.27,344.742 999.775,343.302L999.411,340.079L999.563,336.974C999.718,334.958 1000.21,334.065 1000.34,333.839C1001.04,332.724 1001.97,332.34 1002.14,332.266L1004.85,331.707L1008.39,331.852L1012.51,332.609C1014.77,333.129 1016.32,334.062 1016.62,334.245C1018.47,335.283 1019.38,336.616 1019.55,336.877C1019.74,337.114 1020.73,338.399 1020.51,340.489C1020.28,342.803 1018.73,343.981 1018.47,344.186C1018.18,344.42 1016.75,345.573 1014.31,346.278L1009.25,347.136L1004.62,347.124ZM674.425,463.038C681.394,460.542 685.545,456.678 686.358,455.921C687.162,455.165 691.394,451.182 694.889,445.087C695.452,444.087 698.376,438.891 700.313,431.807C702.349,424.625 702.935,418.579 703.048,417.412C703.737,410.003 703.271,404.175 703.179,403.028C702.611,395.927 701.221,391.17 700.928,390.167C698.93,383.326 695.988,378.257 695.426,377.288C691.872,371.164 687.78,367.118 686.994,366.341C686.207,365.554 682.04,361.39 675.878,357.961C674.887,357.387 669.728,354.401 662.503,352.84C661.314,352.564 655.29,351.165 647.297,351.693C645.944,351.783 639.241,352.226 630.736,355.324C629.765,355.678 624.958,357.429 619.022,360.766C613.128,364.008 609.41,367.655 608.676,368.374C604.333,372.686 602.789,377.049 602.486,377.906C602.19,378.744 600.654,383.086 603.102,388.995C603.401,389.717 604.995,393.564 608.282,397.279L615.007,404.515L621.666,411.794C622.174,412.379 624.825,415.436 626.683,420.077C626.88,420.571 627.92,423.167 628.498,426.464L629.582,433.063L630.718,439.727C630.813,440.249 631.314,442.992 632.576,446.1C635.104,452.319 638.831,455.975 639.555,456.686C644.003,460.899 648.74,462.779 649.629,463.132C650.534,463.481 655.185,465.275 661.54,465.375C662.588,465.374 667.907,465.373 674.425,463.038ZM658.684,409.1C658.444,409.185 656.405,409.906 655.498,409.161L653.851,406.615L650.025,397.505L646.161,388.327L644.293,384.457L642.564,380.456L642.195,379.433L642.001,378.099L642.251,376.935L643.281,376.07C647.605,374.521 650.855,375.179 651.503,375.311C655.468,376.067 658.088,377.938 658.588,378.296C659.082,378.649 661.691,380.512 663.893,383.72C666.16,386.875 667.066,389.584 667.25,390.133C667.395,390.568 668.158,392.85 668.222,395.789C668.261,398.638 667.376,400.805 667.209,401.214C667.05,401.631 666.243,403.753 664.141,405.877C663.776,406.229 662.022,407.92 658.684,409.1ZM818.851,426.621C819.915,426.46 825.601,425.601 831.582,422.296C837.656,418.974 841.275,414.539 841.956,413.704C845.151,409.788 846.723,406.238 847.035,405.534C848.938,401.238 849.78,397.498 849.942,396.778C850.104,396.058 850.956,392.273 851.308,387.652L851.777,378.31L852.186,368.898L853.161,359.668C853.286,358.952 853.885,355.506 855.617,350.926L859.239,341.703L862.433,332.617C863.751,328.119 863.486,324.87 863.431,324.193C863.094,320.074 861.207,317.426 860.849,316.923C860.503,316.417 858.679,313.744 855.225,311.719C854.663,311.367 851.84,309.599 847.464,308.782C846.771,308.636 843.16,307.876 838.624,308.368C837.595,308.479 830.491,309.249 826.347,312.447C822.253,315.606 820.989,319.476 820.752,320.204C820.497,320.965 819.252,324.69 819.529,330.161L820.475,341.243L821.23,352.116C821.408,357.326 820.001,360.793 819.715,361.498L818.504,364.02L816.855,366.45L814.705,368.329C814.505,368.458 813.442,369.141 811.921,369.367C808.288,369.909 806.046,368.204 805.635,367.891C805.184,367.535 803.059,365.855 801.091,362.319C800.767,361.699 799.188,358.677 797.838,354.189L795.403,345.298L793.426,337.12L791.553,331.288C791.337,330.834 790.292,328.648 788.116,326.034C787.781,325.612 786.016,323.389 783.191,321.441C782.739,321.118 780.343,319.409 776.924,318.449C776.377,318.289 773.585,317.47 769.809,318.183C769.107,318.315 765.92,318.917 761.5,321.456C757.143,323.907 754.229,326.786 753.672,327.337C750.214,330.753 748.53,334.05 748.196,334.704C746.28,338.606 746.957,341.667 747.089,342.264L748.449,344.272L751.338,347.457L755.082,351.339L759.104,355.411L762.571,359.132L764.77,362.011C765.237,362.789 767.597,366.721 769.838,372.16L774.104,383.033L778.345,394.075C780.52,399.549 782.907,403.837 783.362,404.656C786.171,409.703 789.237,413.403 789.822,414.108C790.42,414.812 793.513,418.452 798.45,421.78C799.154,422.254 802.891,424.773 808.129,426.115C808.962,426.323 813.434,427.44 818.851,426.621ZM911.445,418.298C920.16,418.043 926.457,415.201 927.669,414.653C935.304,411.243 940.054,406.55 940.968,405.647C941.883,404.744 946.771,399.918 950.181,392.495C950.738,391.311 953.726,384.958 953.933,376.571C953.947,375.983 954.016,373.212 953.269,369.25C952.604,365.179 951.027,362.291 950.723,361.734C948.917,358.271 946.349,356.273 945.87,355.9C945.361,355.503 942.81,353.518 938.17,353.494C934.819,353.477 932.153,354.138 931.642,354.264L925.391,355.859L919.08,357.579C918.579,357.703 916.019,358.333 912.685,358.418L908.065,358.316L903.754,357.374C901.755,356.591 900.624,355.333 900.407,355.092C900.176,354.835 899.055,353.588 898.948,351.03C898.847,348.62 900.268,347.309 900.518,347.078C900.787,346.817 902.191,345.454 904.881,345.361L909.145,345.614L913.328,346.278L917.505,347.041L921.753,347.279C926.168,347.215 928.544,345.194 929.011,344.797C929.437,344.434 931.87,342.365 931.861,338.414C931.851,334.674 929.754,332.518 929.377,332.131C926.976,329.493 923.058,329.546 922.468,329.554L917.703,330.019L912.953,330.977L908.213,331.962L903.467,332.506L900.636,332.301L898.041,331.473L896.202,329.841C896.076,329.677 895.45,328.862 895.384,327.389C895.304,325.601 896.078,324.525 896.226,324.318C896.372,324.102 897.148,322.955 898.632,322.117L902.07,320.895L905.629,320.383C909.292,320.263 912.081,321.042 912.624,321.193L919.265,323.153L925.786,325.165C929.081,326.066 931.913,326.061 932.451,326.06C935.025,326.055 936.886,325.282 937.247,325.132C939.563,324.208 940.987,322.923 941.266,322.671C942.976,321.051 943.819,319.37 943.982,319.046C945.081,317.034 945.104,315.211 945.109,314.864C945.141,312.373 944.257,310.813 944.08,310.5C943.928,310.207 943.107,308.622 941.304,307.443C941.004,307.233 939.499,306.183 937.14,305.553C936.744,305.447 934.776,304.922 932.051,304.928L927.688,305.181L923.417,305.377L916.319,305.024L909.377,304.025L902.327,303.083L895.287,302.818C894.345,302.859 889.355,303.077 883.713,305.034C878.169,306.903 874.629,309.691 873.933,310.239C869.808,313.552 867.819,317.385 867.444,318.109C867.064,318.827 865.092,322.554 865.532,328.077C865.845,332.01 867.274,334.997 867.541,335.556L871.151,342.528L874.71,349.514C874.97,350.076 876.342,353.044 876.616,357.014C876.661,357.657 876.893,361.025 876.235,365.062L874.679,372.962L873.158,380.787C873.058,381.418 872.538,384.711 872.847,388.758C873.395,395.913 876.422,400.633 877.003,401.537C880.569,407.098 885.045,410.306 885.884,410.908C886.753,411.521 891.243,414.688 897.873,416.637C904.56,418.499 910.352,418.33 911.445,418.298ZM1189.17,461.505C1197.52,464.437 1204.51,464.083 1205.86,464.015C1214.33,463.618 1220.52,460.981 1221.71,460.471C1229.29,457.248 1234.26,452.47 1235.19,451.575C1236.14,450.676 1241.27,445.841 1244.48,438.092C1244.71,437.548 1245.77,434.988 1246.48,431.016C1247.31,426.973 1246.85,423.698 1246.76,423.067C1246.29,419.173 1244.57,416.365 1244.25,415.844C1243.9,415.285 1242.2,412.499 1237.8,410.78C1234.62,409.538 1231.86,409.18 1231.33,409.111L1224.83,408.317L1218.23,407.622C1217.71,407.555 1215.06,407.21 1211.87,406.076L1207.53,404.301L1203.79,401.855C1202.18,400.398 1201.56,398.814 1201.44,398.509C1201.32,398.187 1200.71,396.616 1201.53,394.19C1202.3,391.903 1204.11,391.195 1204.43,391.072C1204.78,390.925 1206.6,390.163 1209.17,391.054L1213.12,392.84L1216.84,394.981L1220.52,397.214L1224.46,398.984C1228.67,400.535 1231.64,399.517 1232.23,399.316C1232.77,399.134 1235.82,398.09 1237.23,394.4C1238.57,390.907 1237.35,388.126 1237.13,387.63C1235.8,384.292 1232.07,382.911 1231.51,382.704L1226.83,381.401L1221.98,380.566L1217.14,379.76L1212.45,378.544L1209.85,377.324L1207.69,375.609L1206.54,373.419C1206.48,373.22 1206.18,372.232 1206.65,370.833C1207.22,369.136 1208.34,368.412 1208.55,368.274C1208.77,368.124 1209.91,367.336 1211.62,367.092L1215.31,367.2L1218.86,368.016C1222.37,369.235 1224.73,370.977 1225.19,371.316L1230.77,375.563L1236.23,379.818C1239.03,381.861 1241.72,382.892 1242.23,383.087C1244.68,384.023 1246.72,383.983 1247.12,383.975C1249.65,383.959 1251.46,383.282 1251.82,383.149C1254.02,382.263 1255.43,381.004 1255.7,380.76C1257.47,379.285 1258.14,377.593 1258.27,377.271C1259.2,374.958 1258.92,373.177 1258.86,372.822C1258.83,372.491 1258.61,370.713 1257.33,368.952C1257.12,368.646 1256.07,367.115 1254.05,365.665C1253.71,365.421 1252.04,364.211 1249.45,363.221L1245.22,361.864L1241.1,360.489L1234.5,357.573L1228.28,354.113L1221.95,350.671L1215.39,347.868C1214.48,347.565 1209.69,345.957 1203.66,345.74C1197.75,345.478 1193.41,346.799 1192.56,347.059C1187.48,348.659 1184.22,351.518 1183.61,352.059C1182.99,352.591 1179.8,355.358 1178.23,360.672C1177.11,364.456 1177.38,367.761 1177.43,368.379L1178.33,376.189L1179.18,383.996C1179.22,384.614 1179.45,387.881 1178.28,391.684C1178.1,392.301 1177.1,395.528 1175.03,399.058L1170.73,405.869L1166.48,412.623C1166.16,413.175 1164.49,416.061 1163.33,419.95C1161.27,426.826 1162.43,432.326 1162.65,433.379C1164.02,439.858 1167.09,444.473 1167.67,445.336C1168.27,446.224 1171.37,450.804 1176.93,455.026C1182.58,459.189 1188.13,461.138 1189.17,461.505ZM1030.3,552.859C1035.79,553.813 1039.71,552.46 1040.48,552.193C1045.3,550.5 1048.42,547.757 1049.02,547.235C1052.87,543.877 1055,540.145 1055.4,539.446C1058.08,534.889 1058.93,530.932 1059.11,530.15C1060.35,524.404 1059.78,519.583 1059.67,518.669L1057.97,507.117L1056.13,495.486C1055.38,489.662 1056.32,484.898 1056.5,483.995C1057.21,480.394 1058.87,477.874 1059.19,477.399L1063.43,471.596L1067.83,465.839C1069.88,462.838 1070.48,459.981 1070.6,459.435C1071.47,455.311 1070.06,452.29 1069.8,451.728C1069.53,451.134 1068.12,448.114 1064.8,445.246C1064.25,444.769 1061.46,442.361 1057.04,440.441C1052.71,438.535 1048.89,437.883 1048.15,437.758C1047.42,437.633 1043.51,436.966 1038.8,437.253C1034.12,437.462 1030.87,438.766 1030.22,439.027C1026.44,440.52 1024.27,442.935 1023.85,443.394C1023.43,443.85 1021.29,446.168 1020.72,450.499C1020.64,451.082 1020.26,453.943 1021.06,457.833L1022.76,465.75L1024.43,474.144C1024.54,474.827 1025.1,478.373 1024.46,482.782C1024.34,483.612 1023.71,487.967 1021.75,492.911L1017.59,502.525L1013.6,512.175C1013.3,512.947 1011.76,516.983 1011.08,522.186C1010.98,522.961 1010.47,526.842 1011.36,531.943C1012.33,536.986 1014.36,540.653 1014.74,541.353C1017.22,545.696 1020.49,548.331 1021.1,548.823C1021.73,549.327 1024.97,551.933 1030.3,552.859ZM1114.5,555.468C1113.3,559.139 1113.44,562.224 1113.47,562.817C1113.67,566.389 1114.87,569.004 1115.1,569.504C1115.34,570.01 1116.53,572.601 1119.25,575.111C1119.7,575.516 1121.97,577.536 1125.83,578.938C1131.28,580.917 1135.52,580.544 1136.37,580.47C1141.52,579.947 1145.22,578.072 1145.93,577.711C1146.64,577.34 1150.41,575.382 1153.86,571.539C1157.44,567.673 1159.11,563.665 1159.42,562.906C1161.49,557.911 1162.21,553.523 1162.35,552.683L1163.93,542.166L1165.38,531.521C1166.25,526.215 1167.91,522.068 1168.23,521.279C1169.59,517.87 1171.31,515.419 1171.64,514.948L1176.08,509.114L1180.47,503.267C1182.7,500.295 1183.86,497.475 1184.08,496.936C1184.3,496.388 1185.53,493.396 1185.02,489.598C1184.95,488.982 1184.62,485.734 1182.58,482.254C1182.24,481.672 1180.53,478.755 1177.09,475.849C1176.53,475.377 1173.63,472.931 1169.16,471.281L1163.05,469.632C1159.68,468.997 1156.97,469.154 1156.44,469.185C1153.3,469.404 1151.15,470.46 1150.73,470.669C1150.36,470.844 1148.2,471.854 1147.31,474.512C1147.12,475.058 1146.17,477.88 1146.68,481.683L1147.9,489.412L1149,497.533C1149.05,498.191 1149.33,501.581 1147.86,505.702L1147.07,507.398C1146.99,507.532 1146.58,508.214 1145.43,508.468C1144.97,507.795 1142.78,504.576 1140.74,499.44L1136.8,488.787L1132.67,477.5C1130.51,471.843 1127.9,467.795 1127.39,467.005C1124.29,462.092 1120.81,459.057 1120.13,458.468C1119.45,457.865 1115.98,454.762 1110.12,453.184C1105.65,451.981 1101.9,452.305 1101.19,452.367C1096.74,452.751 1093.67,454.213 1093.06,454.503C1089.42,456.168 1087.21,458.612 1086.79,459.071C1084.2,461.875 1083.48,464.956 1083.35,465.526L1082.07,472.647L1081.34,479.816L1080.6,486.907L1079.37,494.041L1076.75,502.441L1073.56,510.632L1070.43,518.757L1067.95,527.195L1066.85,534.196C1066.79,534.805 1066.5,537.916 1066.77,541.836L1067.92,549.378C1068.87,553.111 1070.37,555.766 1070.66,556.283C1070.94,556.773 1072.46,559.367 1075.25,561.696C1075.73,562.085 1078.11,564.035 1082.12,565.132C1086.05,566.207 1088.87,565.335 1089.43,565.162C1089.96,564.997 1092.83,564.112 1095.54,561.765C1095.98,561.389 1098.28,559.401 1100.17,556.255C1102.18,553.023 1102.98,550.39 1103.14,549.849C1104.6,545.054 1104.59,540.927 1104.59,540.141L1104.61,530.256L1105.05,515.166C1105.58,507.547 1107.3,501.543 1107.63,500.389L1108.4,498.023L1109.83,495.36C1110.67,494.065 1111.63,493.469 1111.82,493.349C1112.02,493.23 1113.09,492.582 1114.66,493.045L1117.13,494.344L1118.99,496.365L1120.45,498.758L1121.52,501.12C1123.58,506.046 1124.15,510.434 1124.26,511.267C1124.37,512.093 1124.94,516.427 1124.63,521.671C1124.59,522.491 1124.35,526.769 1123.23,531.84L1120.56,541.594C1120.37,542.169 1119.37,545.186 1117.48,548.514C1117.19,549.047 1115.69,551.827 1114.5,555.468ZM879.895,547.701C885.495,547.16 889.251,544.577 889.956,544.093C894.522,541.003 897.199,537.31 897.704,536.612C900.995,532.095 902.403,527.663 902.668,526.826C904.446,521.391 904.234,517.17 904.191,516.322C903.959,511.724 902.57,509.058 902.272,508.486C900.655,505.216 898.462,503.261 898.043,502.887C897.623,502.5 895.499,500.539 892.12,498.907L885.052,495.771L877.647,492.742L870.528,489.062L875.789,485.033L881.287,480.957L886.564,476.64C889.089,474.419 890.671,472.301 890.981,471.885C892.886,469.335 893.719,466.872 893.878,466.402C894.056,465.92 894.969,463.441 894.763,460.043C894.428,454.503 891.954,451.028 891.48,450.362C890.994,449.668 888.491,446.094 883.762,443.115C882.967,442.59 879.069,440.018 872.931,438.171C871.947,437.869 866.842,436.302 860.336,435.531C853.817,434.684 848.392,434.789 847.351,434.81C840.957,434.935 836.337,435.613 835.388,435.752L825.032,437.826C824.084,438.045 819.204,439.17 813.381,441.326C807.533,443.411 803.027,445.841 802.162,446.307C796.824,449.186 793.582,452.209 792.921,452.826C789.055,456.432 787.532,460.049 787.229,460.77C786.94,461.439 785.406,464.987 786.532,469.856C786.683,470.507 787.454,473.841 790.068,477.414L795.662,484.436L801.176,491.978C801.603,492.599 803.82,495.827 804.846,500.647L805.905,508.126L806.474,515.712L806.969,523.236L808.162,530.689C808.329,531.455 809.146,535.199 811.519,539.899C813.92,544.436 816.905,547.367 817.476,547.928C818.026,548.459 820.981,551.309 825.502,553.123C826.253,553.416 830.068,554.908 835.55,553.933C839.624,553.209 842.088,551.498 842.585,551.153C845.562,549.087 847.085,546.614 847.375,546.142C847.678,545.669 849.279,543.166 849.98,539.62C850.091,539.038 850.676,535.961 850.13,532.216C849.691,529.204 848.725,526.92 848.539,526.481L846.116,520.95L843.675,515.505C842.471,512.687 842.086,510.184 842.012,509.707L841.785,505.969C841.904,503.904 842.485,502.442 842.6,502.152C843.372,500.305 844.538,499.212 844.761,499.003C845.007,498.768 846.228,497.607 848.641,497.269C851.398,496.884 852.895,497.789 853.212,497.98C853.51,498.15 855.105,499.06 856.305,500.946C856.513,501.239 857.576,502.736 858.209,505.012L859.061,509.055C859.171,509.933 859.75,514.555 859.685,520.096C859.675,520.98 859.622,525.536 860.337,531.134C860.41,531.703 860.798,534.734 862.44,537.994C864.137,541.137 866.268,543.055 866.678,543.424C867.094,543.785 869.284,545.689 872.622,546.888C873.175,547.081 876.026,548.075 879.895,547.701ZM837.802,478.205C835.577,478.545 834.43,477.892 834.177,477.747C832.86,476.932 832.146,475.855 832.013,475.654L830.877,472.611L830.289,469.559C829.964,467.563 830.249,466.575 830.321,466.326C830.77,465.073 831.615,464.475 831.775,464.362L834.384,463.167L838.005,462.46L842.344,462.222C844.757,462.193 846.537,462.74 846.888,462.847C849.003,463.423 850.225,464.51 850.466,464.724C850.703,464.91 852.005,465.932 852.271,468.017C852.566,470.323 851.279,471.832 851.059,472.09C850.819,472.387 849.648,473.837 847.36,475.093L842.461,477.118L837.802,478.205ZM975.301,546.618C980.749,547.02 984.709,544.954 985.443,544.571C986.191,544.169 990.17,542.032 993.754,537.971C997.465,533.798 999.395,529.58 999.761,528.781C1002.18,523.69 1002.63,519.843 1002.72,519.033C1003.33,513.824 1002.16,509.712 1001.93,508.932L998.711,499.042L995.346,489.246C995.117,488.468 993.885,484.302 994.38,479.159C994.656,476.286 995.55,474.088 995.72,473.669L997.969,468.348L1000.25,463.035C1001.36,460.325 1001.61,457.934 1001.65,457.478C1002.13,452.897 1000.81,449.713 1000.56,449.087C1000.3,448.468 998.966,445.241 995.856,442.152C995.346,441.616 992.823,438.969 988.459,436.594C987.765,436.197 984.172,434.137 979.312,432.566C978.531,432.3 974.446,430.913 969.322,430.023C964.312,429.142 960.383,428.994 959.601,428.964C958.819,428.934 954.975,428.789 949.829,429.287C949.018,429.355 944.747,429.712 939.777,430.913C934.907,432.036 931.167,433.687 930.448,434.005C926.01,435.965 923.209,438.355 922.651,438.831C919.314,441.598 917.739,444.718 917.439,445.312C917.131,445.908 915.578,448.914 915.706,453.518C915.791,456.534 916.55,458.943 916.693,459.398L918.748,465.098L920.677,470.728C920.829,471.18 921.63,473.57 921.689,476.613C921.761,480.321 920.707,483.239 920.51,483.786C920.321,484.334 919.358,487.134 917.519,490.386L913.727,496.796L909.929,503.154L907.159,509.881C906.993,510.429 906.135,513.252 906.311,516.997C906.349,517.815 906.537,521.837 908.825,526.916C909.185,527.703 911.075,531.84 914.783,535.939C918.457,540.002 922.456,542.151 923.211,542.557C927.949,545.103 932.419,545.098 933.247,545.097C937.055,545.092 939.36,543.899 939.84,543.651C942.722,542.124 944.301,540.073 944.603,539.68C944.908,539.272 946.499,537.142 947.459,533.99C948.51,530.81 948.581,528.017 948.594,527.489L948.39,522.51L947.764,517.521L947.127,512.456L946.899,507.477L947.518,502.517C947.611,502.046 948.098,499.564 949.368,496.81C950.646,494.04 952.36,492.471 952.697,492.162C953.007,491.867 954.757,490.2 957.717,490.314C960.329,490.414 961.513,492.199 961.714,492.503C961.948,492.841 963.098,494.506 963.655,497.26L964.324,502.816L964.356,507.252L963.378,514.982L962.502,522.64C962.474,523.208 962.355,525.638 962.89,529.738C963.422,533.709 964.616,536.797 964.844,537.386C966.335,541.038 968.402,543.251 968.809,543.686C969.204,544.097 971.35,546.327 975.301,546.618ZM957.856,472.748C955.887,472.674 954.364,473.214 954.076,473.316C953.783,473.421 952.268,473.958 950.216,473.827L949.708,472.727L950.07,469.005L951.183,464.449C952.06,462.216 953.238,460.894 953.475,460.628C953.688,460.389 954.894,459.036 957.18,459.118C957.509,459.129 959.375,459.196 960.956,460.741C961.214,460.993 962.534,462.283 963.527,464.431L964.951,468.777L965.401,472.455L965.258,473.537L964.531,473.734L961.153,473.192L957.856,472.748Z" style="fill:rgb(2,0,205);"/>
        </g>
    </g>
</svg>
